STARTFONT 2.1
COMMENT
COMMENT Converted from OpenType font "alphbeta.ttf" by "otf2bdf 3.0".
COMMENT
FONT -FreeType-Alpha Beta BRK-Medium-R-Normal--89-640-100-100-P-366-ISO10646-1
SIZE 64 100 100
FONTBOUNDINGBOX 67 80 0 -13
STARTPROPERTIES 19
FOUNDRY "FreeType"
FAMILY_NAME "Alpha Beta BRK"
WEIGHT_NAME "Medium"
SLANT "R"
SETWIDTH_NAME "Normal"
ADD_STYLE_NAME ""
PIXEL_SIZE 89
POINT_SIZE 640
RESOLUTION_X 100
RESOLUTION_Y 100
SPACING "P"
AVERAGE_WIDTH 366
CHARSET_REGISTRY "ISO10646"
CHARSET_ENCODING "1"
FONT_ASCENT 66
FONT_DESCENT 13
COPYRIGHT "ÆNIGMA FONTS   [e-mail]  kentpw@norwich.net"
_OTF_FONTFILE "alphbeta.ttf"
_OTF_PSNAME "AlphaBetaBRK"
ENDPROPERTIES
CHARS 227
STARTCHAR 0020
ENCODING 32
SWIDTH 528 0
DWIDTH 47 0
BBX 0 0 0 0
BITMAP
ENDCHAR
STARTCHAR 0021
ENCODING 33
SWIDTH 225 0
DWIDTH 20 0
BBX 13 53 0 0
BITMAP
FFF8
FFF8
FFF8
FFF8
FFF8
FFF8
FFF8
FFF8
FFF8
FFF8
FFF8
FFF8
FFF8
FFF8
FFF8
FFF8
FFF8
FFF8
FFF8
FFF8
FFF8
FFF8
FFF8
FFF8
FFF8
FFF8
FFF8
FFF8
FFF8
FFF8
FFF8
FFF8
FFF8
FFF8
FFF8
FFF8
FFF8
FFF8
FFF8
FFF8
0000
0000
0000
0000
0000
0000
FFF8
FFF8
FFF8
FFF8
FFF8
FFF8
FFF8
ENDCHAR
STARTCHAR 0022
ENCODING 34
SWIDTH 472 0
DWIDTH 42 0
BBX 34 13 1 40
BITMAP
FFF80FFFC0
FFF80FFFC0
FFF80FFFC0
FFF80FFFC0
FFF80FFFC0
FFF80FFFC0
FFF80FFFC0
03F8001FC0
03F8001FC0
03F8001FC0
03F8001FC0
03F8001FC0
03F8001FC0
ENDCHAR
STARTCHAR 0023
ENCODING 35
SWIDTH 675 0
DWIDTH 60 0
BBX 53 53 0 0
BITMAP
01FFF0003FFE00
01FFF0003FFE00
01FFF0003FFE00
01FFF0003FFE00
01FFF0003FFE00
01FFF0003FFE00
01FFF0003FFE00
01FFF0003FFE00
01FFF0003FFE00
01FFF0003FFE00
01FFF0003FFE00
01FFF0003FFE00
01FFF0003FFE00
FFFFFFFFFFFFF8
FFFFFFFFFFFFF8
FFFFFFFFFFFFF8
FFFFFFFFFFFFF8
FFFFFFFFFFFFF8
FFFFFFFFFFFFF8
FFFFFFFFFFFFF8
01FFF0003FFE00
01FFF0003FFE00
01FFF0003FFE00
01FFF0003FFE00
01FFF0003FFE00
01FFF0003FFE00
01FFF0003FFE00
01FFF0003FFE00
01FFF0003FFE00
01FFF0003FFE00
01FFF0003FFE00
01FFF0003FFE00
01FFF0003FFE00
FFFFFFFFFFFFF8
FFFFFFFFFFFFF8
FFFFFFFFFFFFF8
FFFFFFFFFFFFF8
FFFFFFFFFFFFF8
FFFFFFFFFFFFF8
FFFFFFFFFFFFF8
01FFF0003FFE00
01FFF0003FFE00
01FFF0003FFE00
01FFF0003FFE00
01FFF0003FFE00
01FFF0003FFE00
01FFF0003FFE00
01FFF0003FFE00
01FFF0003FFE00
01FFF0003FFE00
01FFF0003FFE00
01FFF0003FFE00
01FFF0003FFE00
ENDCHAR
STARTCHAR 0024
ENCODING 36
SWIDTH 528 0
DWIDTH 47 0
BBX 40 79 0 -13
BITMAP
00000FE000
00000FE000
00000FE000
00000FE000
00000FE000
00000FE000
0007FFE000
0007FFE000
0007FFE000
0007FFE000
0007FFE000
0007FFE000
0007FFE000
01FFFFFF80
01FFFFFF80
01FFFFFF80
01FFFFFF80
01FFFFFF80
01FFFFFF80
FFF8001FFF
FFF8001FFF
FFF8001FFF
FFF8001FFF
FFF8001FFF
FFF8001FFF
FFF8001FFF
FFF8000000
FFF8000000
FFF8000000
FFF8000000
FFF8000000
FFF8000000
FFF8000000
FFF80FFF80
FFF80FFF80
FFF80FFF80
FFF80FFF80
FFF80FFF80
FFF80FFF80
FFFFFFFFFF
01FFF01FFF
01FFF01FFF
01FFF01FFF
01FFF01FFF
01FFF01FFF
01FFF01FFF
0000001FFF
0000001FFF
0000001FFF
0000001FFF
0000001FFF
0000001FFF
FFF8001FFF
FFF8001FFF
FFF8001FFF
FFF8001FFF
FFF8001FFF
FFF8001FFF
FFF8001FFF
01FFFFFF80
01FFFFFF80
01FFFFFF80
01FFFFFF80
01FFFFFF80
01FFFFFF80
01FFFFFF80
0007FFE000
0007FFE000
0007FFE000
0007FFE000
0007FFE000
0007FFE000
0007F00000
0007F00000
0007F00000
0007F00000
0007F00000
0007F00000
0007F00000
ENDCHAR
STARTCHAR 0025
ENCODING 37
SWIDTH 675 0
DWIDTH 60 0
BBX 53 53 0 0
BITMAP
FFFFF0007FFE00
FFFFF0007FFE00
FFFFF0007FFE00
FFFFF0007FFE00
FFFFF0007FFE00
FFFFF0007FFE00
FFFFF0007FFE00
FE07F01FFF0000
FE07F01FFF0000
FE07F01FFF0000
FE07F01FFF0000
FE07F01FFF0000
FE07F01FFF0000
FFFFF01FFF0000
FFFFF01FFF0000
FFFFF01FFF0000
FFFFF01FFF0000
FFFFF01FFF0000
FFFFF01FFF0000
FFFFF01FFF0000
00000FFF800000
00000FFF800000
00000FFF800000
00000FFF800000
00000FFF800000
00000FFF800000
00000FFF800000
00000FFF800000
00000FFF800000
00000FFF800000
00000FFF800000
00000FFF800000
00000FFF800000
0007FFC07FFFF8
0007FFC07FFFF8
0007FFC07FFFF8
0007FFC07FFFF8
0007FFC07FFFF8
0007FFC07FFFF8
0007FFC07FFFF8
0007FFC07F01F8
0007FFC07F01F8
0007FFC07F01F8
0007FFC07F01F8
0007FFC07F01F8
0007FFC07F01F8
01FFF0007FFFF8
01FFF0007FFFF8
01FFF0007FFFF8
01FFF0007FFFF8
01FFF0007FFFF8
01FFF0007FFFF8
01FFF0007FFFF8
ENDCHAR
STARTCHAR 0026
ENCODING 38
SWIDTH 528 0
DWIDTH 47 0
BBX 40 79 0 -13
BITMAP
00000FE000
00000FE000
00000FE000
00000FE000
00000FE000
00000FE000
0007FFE000
0007FFE000
0007FFE000
0007FFE000
0007FFE000
0007FFE000
0007FFE000
01FFFFFFC0
01FFFFFFC0
01FFFFFFC0
01FFFFFFC0
01FFFFFFC0
01FFFFFFC0
01F8001FC0
FFF8001FFF
FFF8001FFF
FFF8001FFF
FFF8001FFF
FFF8001FFF
FFF8001FFF
FFF8001FFF
FFF8000000
FFF8000000
FFF8000000
FFF8000000
FFF8000000
FFF8000000
01FFFFE000
01FFFFE000
01FFFFE000
01FFFFE000
01FFFFE000
01FFFFE000
FFFFFFE000
FFF8000000
FFF8000000
FFF8000000
FFF8000000
FFF8000000
FFF8000000
FFF8000000
FFF8000000
FFF8000000
FFF8000000
FFF8000000
FFF8000000
FFF8001FFF
FFF8001FFF
FFF8001FFF
FFF8001FFF
FFF8001FFF
FFF8001FFF
FFF8001FFF
01FFFFFFC0
01FFFFFFC0
01FFFFFFC0
01FFFFFFC0
01FFFFFFC0
01FFFFFFC0
01FFFFFFC0
0007FFE000
0007FFE000
0007FFE000
0007FFE000
0007FFE000
0007FFE000
0007F00000
0007F00000
0007F00000
0007F00000
0007F00000
0007F00000
0007F00000
ENDCHAR
STARTCHAR 0027
ENCODING 39
SWIDTH 225 0
DWIDTH 20 0
BBX 14 13 0 40
BITMAP
FFFC
FFFC
FFFC
FFFC
FFFC
FFFC
FFFC
FE00
FE00
FE00
FE00
FE00
FE00
ENDCHAR
STARTCHAR 0028
ENCODING 40
SWIDTH 303 0
DWIDTH 27 0
BBX 20 53 0 0
BITMAP
01FFF0
01FFF0
01FFF0
01FFF0
01FFF0
01FFF0
01FFF0
FFF800
FFF800
FFF800
FFF800
FFF800
FFF800
FFF800
FFF800
FFF800
FFF800
FFF800
FFF800
FFF800
FFF800
FFF800
FFF800
FFF800
FFF800
FFF800
FFF800
FFF800
FFF800
FFF800
FFF800
FFF800
FFF800
FFF800
FFF800
FFF800
FFF800
FFF800
FFF800
FFF800
FFF800
FFF800
FFF800
FFF800
FFF800
FFF800
01FFF0
01FFF0
01FFF0
01FFF0
01FFF0
01FFF0
01FFF0
ENDCHAR
STARTCHAR 0029
ENCODING 41
SWIDTH 303 0
DWIDTH 27 0
BBX 20 53 0 0
BITMAP
FFF800
FFF800
FFF800
FFF800
FFF800
FFF800
FFF800
01FFF0
01FFF0
01FFF0
01FFF0
01FFF0
01FFF0
01FFF0
01FFF0
01FFF0
01FFF0
01FFF0
01FFF0
01FFF0
01FFF0
01FFF0
01FFF0
01FFF0
01FFF0
01FFF0
01FFF0
01FFF0
01FFF0
01FFF0
01FFF0
01FFF0
01FFF0
01FFF0
01FFF0
01FFF0
01FFF0
01FFF0
01FFF0
01FFF0
01FFF0
01FFF0
01FFF0
01FFF0
01FFF0
01FFF0
FFF800
FFF800
FFF800
FFF800
FFF800
FFF800
FFF800
ENDCHAR
STARTCHAR 002A
ENCODING 42
SWIDTH 450 0
DWIDTH 40 0
BBX 33 33 0 20
BITMAP
0007F00000
0007F00000
0007F00000
0007F00000
0007F00000
0007F00000
FE07F01F80
FE07F01F80
FE07F01F80
FE07F01F80
FE07F01F80
FE07F01F80
FE07F01F80
01FFFFE000
01FFFFE000
01FFFFE000
01FFFFE000
01FFFFE000
01FFFFE000
01FFFFE000
FE07F01F80
FE07F01F80
FE07F01F80
FE07F01F80
FE07F01F80
FE07F01F80
FE07F01F80
0007F00000
0007F00000
0007F00000
0007F00000
0007F00000
0007F00000
ENDCHAR
STARTCHAR 002B
ENCODING 43
SWIDTH 450 0
DWIDTH 40 0
BBX 33 33 0 13
BITMAP
0007F00000
0007F00000
0007F00000
0007F00000
0007F00000
0007F00000
0007F00000
0007F00000
0007F00000
0007F00000
0007F00000
0007F00000
0007F00000
FFFFFFFF80
FFFFFFFF80
FFFFFFFF80
FFFFFFFF80
FFFFFFFF80
FFFFFFFF80
FFFFFFFF80
0007F00000
0007F00000
0007F00000
0007F00000
0007F00000
0007F00000
0007F00000
0007F00000
0007F00000
0007F00000
0007F00000
0007F00000
0007F00000
ENDCHAR
STARTCHAR 002C
ENCODING 44
SWIDTH 236 0
DWIDTH 21 0
BBX 13 20 1 -13
BITMAP
FFF8
FFF8
FFF8
FFF8
FFF8
FFF8
FFF8
FFF8
FFF8
FFF8
FFF8
FFF8
FFF8
03F8
03F8
03F8
03F8
03F8
03F8
03F8
ENDCHAR
STARTCHAR 002D
ENCODING 45
SWIDTH 450 0
DWIDTH 40 0
BBX 33 7 0 26
BITMAP
FFFFFFFF80
FFFFFFFF80
FFFFFFFF80
FFFFFFFF80
FFFFFFFF80
FFFFFFFF80
FFFFFFFF80
ENDCHAR
STARTCHAR 002E
ENCODING 46
SWIDTH 225 0
DWIDTH 20 0
BBX 13 7 0 0
BITMAP
FFF8
FFF8
FFF8
FFF8
FFF8
FFF8
FFF8
ENDCHAR
STARTCHAR 002F
ENCODING 47
SWIDTH 528 0
DWIDTH 47 0
BBX 40 53 0 0
BITMAP
0000001FFF
0000001FFF
0000001FFF
0000001FFF
0000001FFF
0000001FFF
0000001FFF
00000FFF80
00000FFF80
00000FFF80
00000FFF80
00000FFF80
00000FFF80
00000FFF80
00000FFF80
00000FFF80
00000FFF80
00000FFF80
00000FFF80
00000FFF80
0003FFE000
0003FFE000
0003FFE000
0003FFE000
0003FFE000
0003FFE000
0003FFE000
0003FFE000
0003FFE000
0003FFE000
0003FFE000
0003FFE000
0003FFE000
01FFF00000
01FFF00000
01FFF00000
01FFF00000
01FFF00000
01FFF00000
01FFF00000
01FFF00000
01FFF00000
01FFF00000
01FFF00000
01FFF00000
01FFF00000
FFF8000000
FFF8000000
FFF8000000
FFF8000000
FFF8000000
FFF8000000
FFF8000000
ENDCHAR
STARTCHAR 0030
ENCODING 48
SWIDTH 528 0
DWIDTH 47 0
BBX 40 53 0 0
BITMAP
03FFFFFF80
03FFFFFF80
03FFFFFF80
03FFFFFF80
03FFFFFF80
03FFFFFF80
03FFFFFF80
FFF8001FFF
FFF8001FFF
FFF8001FFF
FFF8001FFF
FFF8001FFF
FFF8001FFF
FFF8001FFF
FFF8001FFF
FFF8001FFF
FFF8001FFF
FFF8001FFF
FFF8001FFF
FFF8001FFF
FFF8001FFF
FFF8001FFF
FFF8001FFF
FFF8001FFF
FFF8001FFF
FFF8001FFF
FFF8001FFF
FFF8001FFF
FFF8001FFF
FFF8001FFF
FFF8001FFF
FFF8001FFF
FFF8001FFF
FFF8001FFF
FFF8001FFF
FFF8001FFF
FFF8001FFF
FFF8001FFF
FFF8001FFF
FFF8001FFF
FFF8001FFF
FFF8001FFF
FFF8001FFF
FFF8001FFF
FFF8001FFF
FFF8001FFF
03FFFFFF80
03FFFFFF80
03FFFFFF80
03FFFFFF80
03FFFFFF80
03FFFFFF80
03FFFFFF80
ENDCHAR
STARTCHAR 0031
ENCODING 49
SWIDTH 303 0
DWIDTH 27 0
BBX 19 53 1 0
BITMAP
FFFFE0
FFFFE0
FFFFE0
FFFFE0
FFFFE0
FFFFE0
FFFFE0
03FFE0
03FFE0
03FFE0
03FFE0
03FFE0
03FFE0
03FFE0
03FFE0
03FFE0
03FFE0
03FFE0
03FFE0
03FFE0
03FFE0
03FFE0
03FFE0
03FFE0
03FFE0
03FFE0
03FFE0
03FFE0
03FFE0
03FFE0
03FFE0
03FFE0
03FFE0
03FFE0
03FFE0
03FFE0
03FFE0
03FFE0
03FFE0
03FFE0
03FFE0
03FFE0
03FFE0
03FFE0
03FFE0
03FFE0
03FFE0
03FFE0
03FFE0
03FFE0
03FFE0
03FFE0
03FFE0
ENDCHAR
STARTCHAR 0032
ENCODING 50
SWIDTH 528 0
DWIDTH 47 0
BBX 40 53 0 0
BITMAP
01FFFFFF80
01FFFFFF80
01FFFFFF80
01FFFFFF80
01FFFFFF80
01FFFFFF80
01FFFFFF80
FFF8001FFF
FFF8001FFF
FFF8001FFF
FFF8001FFF
FFF8001FFF
FFF8001FFF
FFF8001FFF
0000001FFF
0000001FFF
0000001FFF
0000001FFF
0000001FFF
0000001FFF
01FFF01FFF
01FFF01FFF
01FFF01FFF
01FFF01FFF
01FFF01FFF
01FFF01FFF
FFFFFFFFFF
FFF80FFF80
FFF80FFF80
FFF80FFF80
FFF80FFF80
FFF80FFF80
FFF80FFF80
FFF8000000
FFF8000000
FFF8000000
FFF8000000
FFF8000000
FFF8000000
FFF8000000
FFF8000000
FFF8000000
FFF8000000
FFF8000000
FFF8000000
FFF8000000
FFFFFFFFFF
FFFFFFFFFF
FFFFFFFFFF
FFFFFFFFFF
FFFFFFFFFF
FFFFFFFFFF
FFFFFFFFFF
ENDCHAR
STARTCHAR 0033
ENCODING 51
SWIDTH 528 0
DWIDTH 47 0
BBX 40 53 0 0
BITMAP
03FFFFFF80
03FFFFFF80
03FFFFFF80
03FFFFFF80
03FFFFFF80
03FFFFFF80
03FFFFFF80
FFF8001FFF
FFF8001FFF
FFF8001FFF
FFF8001FFF
FFF8001FFF
FFF8001FFF
FFF8001FFF
0000001FFF
0000001FFF
0000001FFF
0000001FFF
0000001FFF
0000001FFF
0007FFFF80
0007FFFF80
0007FFFF80
0007FFFF80
0007FFFF80
0007FFFF80
0007FFFFFF
0000001FFF
0000001FFF
0000001FFF
0000001FFF
0000001FFF
0000001FFF
0000001FFF
0000001FFF
0000001FFF
0000001FFF
0000001FFF
0000001FFF
0000001FFF
FFF8001FFF
FFF8001FFF
FFF8001FFF
FFF8001FFF
FFF8001FFF
FFF8001FFF
03FFFFFF80
03FFFFFF80
03FFFFFF80
03FFFFFF80
03FFFFFF80
03FFFFFF80
03FFFFFF80
ENDCHAR
STARTCHAR 0034
ENCODING 52
SWIDTH 528 0
DWIDTH 47 0
BBX 40 53 0 0
BITMAP
FFF8001FFF
FFF8001FFF
FFF8001FFF
FFF8001FFF
FFF8001FFF
FFF8001FFF
FFF8001FFF
FFF8001FFF
FFF8001FFF
FFF8001FFF
FFF8001FFF
FFF8001FFF
FFF8001FFF
FFF8001FFF
FFF8001FFF
FFF8001FFF
FFF8001FFF
FFF8001FFF
FFF8001FFF
FFF8001FFF
FFF80FFFFF
FFF80FFFFF
FFF80FFFFF
FFF80FFFFF
FFF80FFFFF
FFF80FFFFF
01FFF01FFF
01FFF01FFF
01FFF01FFF
01FFF01FFF
01FFF01FFF
01FFF01FFF
01FFF01FFF
0000001FFF
0000001FFF
0000001FFF
0000001FFF
0000001FFF
0000001FFF
0000001FFF
0000001FFF
0000001FFF
0000001FFF
0000001FFF
0000001FFF
0000001FFF
0000001FFF
0000001FFF
0000001FFF
0000001FFF
0000001FFF
0000001FFF
0000001FFF
ENDCHAR
STARTCHAR 0035
ENCODING 53
SWIDTH 528 0
DWIDTH 47 0
BBX 40 53 0 0
BITMAP
FFFFFFFFFF
FFFFFFFFFF
FFFFFFFFFF
FFFFFFFFFF
FFFFFFFFFF
FFFFFFFFFF
FFFFFFFFFF
FFF8000000
FFF8000000
FFF8000000
FFF8000000
FFF8000000
FFF8000000
FFF8000000
FFF8000000
FFF8000000
FFF8000000
FFF8000000
FFF8000000
FFF8000000
FFF80FFF80
FFF80FFF80
FFF80FFF80
FFF80FFF80
FFF80FFF80
FFF80FFF80
FFFFFFFFFF
01FFF01FFF
01FFF01FFF
01FFF01FFF
01FFF01FFF
01FFF01FFF
01FFF01FFF
0000001FFF
0000001FFF
0000001FFF
0000001FFF
0000001FFF
0000001FFF
0000001FFF
FFF8001FFF
FFF8001FFF
FFF8001FFF
FFF8001FFF
FFF8001FFF
FFF8001FFF
01FFFFFF80
01FFFFFF80
01FFFFFF80
01FFFFFF80
01FFFFFF80
01FFFFFF80
01FFFFFF80
ENDCHAR
STARTCHAR 0036
ENCODING 54
SWIDTH 528 0
DWIDTH 47 0
BBX 40 53 0 0
BITMAP
03FFFFFF80
03FFFFFF80
03FFFFFF80
03FFFFFF80
03FFFFFF80
03FFFFFF80
03FFFFFF80
FFF8001FFF
FFF8001FFF
FFF8001FFF
FFF8001FFF
FFF8001FFF
FFF8001FFF
FFF8001FFF
FFF8000000
FFF8000000
FFF8000000
FFF8000000
FFF8000000
FFF8000000
FFF80FFF80
FFF80FFF80
FFF80FFF80
FFF80FFF80
FFF80FFF80
FFF80FFF80
FFF80FFF80
FFFFF01FFF
FFFFF01FFF
FFFFF01FFF
FFFFF01FFF
FFFFF01FFF
FFFFF01FFF
FFFFF01FFF
FFF8001FFF
FFF8001FFF
FFF8001FFF
FFF8001FFF
FFF8001FFF
FFF8001FFF
FFF8001FFF
FFF8001FFF
FFF8001FFF
FFF8001FFF
FFF8001FFF
FFF8001FFF
03FFFFFF80
03FFFFFF80
03FFFFFF80
03FFFFFF80
03FFFFFF80
03FFFFFF80
03FFFFFF80
ENDCHAR
STARTCHAR 0037
ENCODING 55
SWIDTH 528 0
DWIDTH 47 0
BBX 39 53 1 0
BITMAP
FFFFFFFFFE
FFFFFFFFFE
FFFFFFFFFE
FFFFFFFFFE
FFFFFFFFFE
FFFFFFFFFE
FFFFFFFFFE
0000003FFE
0000003FFE
0000003FFE
0000003FFE
0000003FFE
0000003FFE
0000003FFE
0000003FFE
0000003FFE
0000003FFE
0000003FFE
0000003FFE
0000003FFE
0000003FFE
0000003FFE
0000003FFE
0000003FFE
0000003FFE
0000003FFE
0000003FFE
0000003FFE
0000003FFE
0000003FFE
0000003FFE
0000003FFE
0000003FFE
0000003FFE
0000003FFE
0000003FFE
0000003FFE
0000003FFE
0000003FFE
0000003FFE
0000003FFE
0000003FFE
0000003FFE
0000003FFE
0000003FFE
0000003FFE
0000003FFE
0000003FFE
0000003FFE
0000003FFE
0000003FFE
0000003FFE
0000003FFE
ENDCHAR
STARTCHAR 0038
ENCODING 56
SWIDTH 528 0
DWIDTH 47 0
BBX 40 53 0 0
BITMAP
01FFFFFF80
01FFFFFF80
01FFFFFF80
01FFFFFF80
01FFFFFF80
01FFFFFF80
01FFFFFF80
FFF8001FFF
FFF8001FFF
FFF8001FFF
FFF8001FFF
FFF8001FFF
FFF8001FFF
FFF8001FFF
FFF8001FFF
FFF8001FFF
FFF8001FFF
FFF8001FFF
FFF8001FFF
FFF8001FFF
01FFF01FFF
01FFF01FFF
01FFF01FFF
01FFF01FFF
01FFF01FFF
01FFF01FFF
FFFFFFFFFF
FFF80FFF80
FFF80FFF80
FFF80FFF80
FFF80FFF80
FFF80FFF80
FFF80FFF80
FFF8001FFF
FFF8001FFF
FFF8001FFF
FFF8001FFF
FFF8001FFF
FFF8001FFF
FFF8001FFF
FFF8001FFF
FFF8001FFF
FFF8001FFF
FFF8001FFF
FFF8001FFF
FFF8001FFF
01FFFFFF80
01FFFFFF80
01FFFFFF80
01FFFFFF80
01FFFFFF80
01FFFFFF80
01FFFFFF80
ENDCHAR
STARTCHAR 0039
ENCODING 57
SWIDTH 528 0
DWIDTH 47 0
BBX 40 53 0 0
BITMAP
01FFFFFFC0
01FFFFFFC0
01FFFFFFC0
01FFFFFFC0
01FFFFFFC0
01FFFFFFC0
01FFFFFFC0
FFF8001FFF
FFF8001FFF
FFF8001FFF
FFF8001FFF
FFF8001FFF
FFF8001FFF
FFF8001FFF
FFF8001FFF
FFF8001FFF
FFF8001FFF
FFF8001FFF
FFF8001FFF
FFF8001FFF
01FFF01FFF
01FFF01FFF
01FFF01FFF
01FFF01FFF
01FFF01FFF
01FFF01FFF
01FFFFFFFF
00000FFFFF
00000FFFFF
00000FFFFF
00000FFFFF
00000FFFFF
00000FFFFF
0000001FFF
0000001FFF
0000001FFF
0000001FFF
0000001FFF
0000001FFF
0000001FFF
0000001FFF
0000001FFF
0000001FFF
0000001FFF
0000001FFF
0000001FFF
0000001FFF
0000001FFF
0000001FFF
0000001FFF
0000001FFF
0000001FFF
0000001FFF
ENDCHAR
STARTCHAR 003A
ENCODING 58
SWIDTH 225 0
DWIDTH 20 0
BBX 13 53 0 0
BITMAP
FFF8
FFF8
FFF8
FFF8
FFF8
FFF8
FFF8
0000
0000
0000
0000
0000
0000
0000
0000
0000
0000
0000
0000
0000
0000
0000
0000
0000
0000
0000
0000
0000
0000
0000
0000
0000
0000
0000
0000
0000
0000
0000
0000
0000
0000
0000
0000
0000
0000
0000
FFF8
FFF8
FFF8
FFF8
FFF8
FFF8
FFF8
ENDCHAR
STARTCHAR 003B
ENCODING 59
SWIDTH 225 0
DWIDTH 20 0
BBX 13 66 0 -13
BITMAP
FFF8
FFF8
FFF8
FFF8
FFF8
FFF8
FFF8
0000
0000
0000
0000
0000
0000
0000
0000
0000
0000
0000
0000
0000
0000
0000
0000
0000
0000
0000
0000
0000
0000
0000
0000
0000
0000
0000
0000
0000
0000
0000
0000
0000
0000
0000
0000
0000
0000
0000
FFF8
FFF8
FFF8
FFF8
FFF8
FFF8
FFF8
FFF8
FFF8
FFF8
FFF8
FFF8
FFF8
03F8
03F8
03F8
03F8
03F8
03F8
03F8
ENDCHAR
STARTCHAR 003C
ENCODING 60
SWIDTH 382 0
DWIDTH 34 0
BBX 27 33 0 13
BITMAP
0003FFE0
0003FFE0
0003FFE0
0003FFE0
0003FFE0
0003FFE0
01FFF000
01FFF000
01FFF000
01FFF000
01FFF000
01FFF000
01FFF000
FFF80000
FFF80000
FFF80000
FFF80000
FFF80000
FFF80000
FFF80000
01FFF000
01FFF000
01FFF000
01FFF000
01FFF000
01FFF000
0003FFE0
0003FFE0
0003FFE0
0003FFE0
0003FFE0
0003FFE0
0003FFE0
ENDCHAR
STARTCHAR 003D
ENCODING 61
SWIDTH 450 0
DWIDTH 40 0
BBX 33 20 0 20
BITMAP
FFFFFFFF80
FFFFFFFF80
FFFFFFFF80
FFFFFFFF80
FFFFFFFF80
FFFFFFFF80
FFFFFFFF80
0000000000
0000000000
0000000000
0000000000
0000000000
0000000000
FFFFFFFF80
FFFFFFFF80
FFFFFFFF80
FFFFFFFF80
FFFFFFFF80
FFFFFFFF80
FFFFFFFF80
ENDCHAR
STARTCHAR 003E
ENCODING 62
SWIDTH 382 0
DWIDTH 34 0
BBX 27 33 0 13
BITMAP
FFF80000
FFF80000
FFF80000
FFF80000
FFF80000
FFF80000
01FFF000
01FFF000
01FFF000
01FFF000
01FFF000
01FFF000
01FFF000
0003FFE0
0003FFE0
0003FFE0
0003FFE0
0003FFE0
0003FFE0
0003FFE0
01FFF000
01FFF000
01FFF000
01FFF000
01FFF000
01FFF000
FFF80000
FFF80000
FFF80000
FFF80000
FFF80000
FFF80000
FFF80000
ENDCHAR
STARTCHAR 003F
ENCODING 63
SWIDTH 528 0
DWIDTH 47 0
BBX 40 53 0 0
BITMAP
03FFFFFF80
03FFFFFF80
03FFFFFF80
03FFFFFF80
03FFFFFF80
03FFFFFF80
03FFFFFF80
FFF8001FFF
FFF8001FFF
FFF8001FFF
FFF8001FFF
FFF8001FFF
FFF8001FFF
FFF8001FFF
0000001FFF
0000001FFF
0000001FFF
0000001FFF
0000001FFF
0000001FFF
00000FFF80
00000FFF80
00000FFF80
00000FFF80
00000FFF80
00000FFF80
00000FFF80
0003FFE000
0003FFE000
0003FFE000
0003FFE000
0003FFE000
0003FFE000
0003FFE000
0003FFE000
0003FFE000
0003FFE000
0003FFE000
0003FFE000
0003FFE000
0000000000
0000000000
0000000000
0000000000
0000000000
0000000000
0003FFE000
0003FFE000
0003FFE000
0003FFE000
0003FFE000
0003FFE000
0003FFE000
ENDCHAR
STARTCHAR 0040
ENCODING 64
SWIDTH 832 0
DWIDTH 74 0
BBX 67 53 0 0
BITMAP
03FFFFFFFFFFFFF000
03FFFFFFFFFFFFF000
03FFFFFFFFFFFFF000
03FFFFFFFFFFFFF000
03FFFFFFFFFFFFF000
03FFFFFFFFFFFFF000
03FFFFFFFFFFFFF000
FFF80000000003FFE0
FFF80000000003FFE0
FFF80000000003FFE0
FFF80000000003FFE0
FFF80000000003FFE0
FFF80000000003FFE0
FFF80FFFFFFE03FFE0
FFF80FFFFFFE03FFE0
FFF80FFFFFFE03FFE0
FFF80FFFFFFE03FFE0
FFF80FFFFFFE03FFE0
FFF80FFFFFFE03FFE0
FFF80FFFFFFE03FFE0
FFF80FE000FE03FFE0
FFF80FE000FE03FFE0
FFF80FE000FE03FFE0
FFF80FE000FE03FFE0
FFF80FE000FE03FFE0
FFF80FE000FE03FFE0
FFF80FE07FFE03FFE0
FFF80FE07FFE03FFE0
FFF80FE07FFE03FFE0
FFF80FE07FFE03FFE0
FFF80FE07FFE03FFE0
FFF80FE07FFE03FFE0
FFF80FE07FFE03FFE0
FFF80FFF80FFFFF000
FFF80FFF80FFFFF000
FFF80FFF80FFFFF000
FFF80FFF80FFFFF000
FFF80FFF80FFFFF000
FFF80FFF80FFFFF000
FFF80FFF80FFFFF000
FFF800000000000000
FFF800000000000000
FFF800000000000000
FFF800000000000000
FFF800000000000000
FFF800000000000000
03FFFFFF8000000000
03FFFFFF8000000000
03FFFFFF8000000000
03FFFFFF8000000000
03FFFFFF8000000000
03FFFFFF8000000000
03FFFFFF8000000000
ENDCHAR
STARTCHAR 0041
ENCODING 65
SWIDTH 528 0
DWIDTH 47 0
BBX 40 53 0 0
BITMAP
03FFFFFF80
03FFFFFF80
03FFFFFF80
03FFFFFF80
03FFFFFF80
03FFFFFF80
03FFFFFF80
FFF8001FFF
FFF8001FFF
FFF8001FFF
FFF8001FFF
FFF8001FFF
FFF8001FFF
FFF8001FFF
FFF8001FFF
FFF8001FFF
FFF8001FFF
FFF8001FFF
FFF8001FFF
FFF8001FFF
FFF80FFFFF
FFF80FFFFF
FFF80FFFFF
FFF80FFFFF
FFF80FFFFF
FFF80FFFFF
FFFFFFFFFF
FFFFF01FFF
FFFFF01FFF
FFFFF01FFF
FFFFF01FFF
FFFFF01FFF
FFFFF01FFF
FFF8001FFF
FFF8001FFF
FFF8001FFF
FFF8001FFF
FFF8001FFF
FFF8001FFF
FFF8001FFF
FFF8001FFF
FFF8001FFF
FFF8001FFF
FFF8001FFF
FFF8001FFF
FFF8001FFF
FFF8001FFF
FFF8001FFF
FFF8001FFF
FFF8001FFF
FFF8001FFF
FFF8001FFF
FFF8001FFF
ENDCHAR
STARTCHAR 0042
ENCODING 66
SWIDTH 528 0
DWIDTH 47 0
BBX 40 53 0 0
BITMAP
FFFFFFFF80
FFFFFFFF80
FFFFFFFF80
FFFFFFFF80
FFFFFFFF80
FFFFFFFF80
FFFFFFFF80
FFF8001FFF
FFF8001FFF
FFF8001FFF
FFF8001FFF
FFF8001FFF
FFF8001FFF
FFF8001FFF
FFF8001FFF
FFF8001FFF
FFF8001FFF
FFF8001FFF
FFF8001FFF
FFF8001FFF
FFF80FFF80
FFF80FFF80
FFF80FFF80
FFF80FFF80
FFF80FFF80
FFF80FFF80
FFF80FFF80
FFFFF01FFF
FFFFF01FFF
FFFFF01FFF
FFFFF01FFF
FFFFF01FFF
FFFFF01FFF
FFFFF01FFF
FFF8001FFF
FFF8001FFF
FFF8001FFF
FFF8001FFF
FFF8001FFF
FFF8001FFF
FFF8001FFF
FFF8001FFF
FFF8001FFF
FFF8001FFF
FFF8001FFF
FFF8001FFF
FFFFFFFF80
FFFFFFFF80
FFFFFFFF80
FFFFFFFF80
FFFFFFFF80
FFFFFFFF80
FFFFFFFF80
ENDCHAR
STARTCHAR 0043
ENCODING 67
SWIDTH 528 0
DWIDTH 47 0
BBX 40 53 0 0
BITMAP
03FFFFFF80
03FFFFFF80
03FFFFFF80
03FFFFFF80
03FFFFFF80
03FFFFFF80
03FFFFFF80
FFF8001FFF
FFF8001FFF
FFF8001FFF
FFF8001FFF
FFF8001FFF
FFF8001FFF
FFF8001FFF
FFF8000000
FFF8000000
FFF8000000
FFF8000000
FFF8000000
FFF8000000
FFF8000000
FFF8000000
FFF8000000
FFF8000000
FFF8000000
FFF8000000
FFF8000000
FFF8000000
FFF8000000
FFF8000000
FFF8000000
FFF8000000
FFF8000000
FFF8000000
FFF8000000
FFF8000000
FFF8000000
FFF8000000
FFF8000000
FFF8000000
FFF8001FFF
FFF8001FFF
FFF8001FFF
FFF8001FFF
FFF8001FFF
FFF8001FFF
03FFFFFF80
03FFFFFF80
03FFFFFF80
03FFFFFF80
03FFFFFF80
03FFFFFF80
03FFFFFF80
ENDCHAR
STARTCHAR 0044
ENCODING 68
SWIDTH 528 0
DWIDTH 47 0
BBX 40 53 0 0
BITMAP
FFFFFFE000
FFFFFFE000
FFFFFFE000
FFFFFFE000
FFFFFFE000
FFFFFFE000
FFFFFFE000
FFF80FFF80
FFF80FFF80
FFF80FFF80
FFF80FFF80
FFF80FFF80
FFF80FFF80
FFF8001FFF
FFF8001FFF
FFF8001FFF
FFF8001FFF
FFF8001FFF
FFF8001FFF
FFF8001FFF
FFF8001FFF
FFF8001FFF
FFF8001FFF
FFF8001FFF
FFF8001FFF
FFF8001FFF
FFF8001FFF
FFF8001FFF
FFF8001FFF
FFF8001FFF
FFF8001FFF
FFF8001FFF
FFF8001FFF
FFF8001FFF
FFF8001FFF
FFF8001FFF
FFF8001FFF
FFF8001FFF
FFF8001FFF
FFF8001FFF
FFF8001FFF
FFF8001FFF
FFF8001FFF
FFF8001FFF
FFF8001FFF
FFF8001FFF
FFFFFFFF80
FFFFFFFF80
FFFFFFFF80
FFFFFFFF80
FFFFFFFF80
FFFFFFFF80
FFFFFFFF80
ENDCHAR
STARTCHAR 0045
ENCODING 69
SWIDTH 528 0
DWIDTH 47 0
BBX 40 53 0 0
BITMAP
03FFFFFF80
03FFFFFF80
03FFFFFF80
03FFFFFF80
03FFFFFF80
03FFFFFF80
03FFFFFF80
FFF8001FFF
FFF8001FFF
FFF8001FFF
FFF8001FFF
FFF8001FFF
FFF8001FFF
FFF8001FFF
FFF8000000
FFF8000000
FFF8000000
FFF8000000
FFF8000000
FFF8000000
FFFFFFE000
FFFFFFE000
FFFFFFE000
FFFFFFE000
FFFFFFE000
FFFFFFE000
FFFFFFE000
FFF8000000
FFF8000000
FFF8000000
FFF8000000
FFF8000000
FFF8000000
FFF8000000
FFF8000000
FFF8000000
FFF8000000
FFF8000000
FFF8000000
FFF8000000
FFF8001FFF
FFF8001FFF
FFF8001FFF
FFF8001FFF
FFF8001FFF
FFF8001FFF
03FFFFFF80
03FFFFFF80
03FFFFFF80
03FFFFFF80
03FFFFFF80
03FFFFFF80
03FFFFFF80
ENDCHAR
STARTCHAR 0046
ENCODING 70
SWIDTH 528 0
DWIDTH 47 0
BBX 40 53 0 0
BITMAP
03FFFFFF80
03FFFFFF80
03FFFFFF80
03FFFFFF80
03FFFFFF80
03FFFFFF80
03FFFFFF80
FFF8001FFF
FFF8001FFF
FFF8001FFF
FFF8001FFF
FFF8001FFF
FFF8001FFF
FFF8001FFF
FFF8000000
FFF8000000
FFF8000000
FFF8000000
FFF8000000
FFF8000000
FFFFFFE000
FFFFFFE000
FFFFFFE000
FFFFFFE000
FFFFFFE000
FFFFFFE000
FFFFFFE000
FFF8000000
FFF8000000
FFF8000000
FFF8000000
FFF8000000
FFF8000000
FFF8000000
FFF8000000
FFF8000000
FFF8000000
FFF8000000
FFF8000000
FFF8000000
FFF8000000
FFF8000000
FFF8000000
FFF8000000
FFF8000000
FFF8000000
FFF8000000
FFF8000000
FFF8000000
FFF8000000
FFF8000000
FFF8000000
FFF8000000
ENDCHAR
STARTCHAR 0047
ENCODING 71
SWIDTH 528 0
DWIDTH 47 0
BBX 40 53 0 0
BITMAP
03FFFFFF80
03FFFFFF80
03FFFFFF80
03FFFFFF80
03FFFFFF80
03FFFFFF80
03FFFFFF80
FFF8001FFF
FFF8001FFF
FFF8001FFF
FFF8001FFF
FFF8001FFF
FFF8001FFF
FFF8001FFF
FFF8000000
FFF8000000
FFF8000000
FFF8000000
FFF8000000
FFF8000000
FFF80FFFFF
FFF80FFFFF
FFF80FFFFF
FFF80FFFFF
FFF80FFFFF
FFF80FFFFF
FFF80FFFFF
FFF8001FFF
FFF8001FFF
FFF8001FFF
FFF8001FFF
FFF8001FFF
FFF8001FFF
FFF8001FFF
FFF8001FFF
FFF8001FFF
FFF8001FFF
FFF8001FFF
FFF8001FFF
FFF8001FFF
FFF8001FFF
FFF8001FFF
FFF8001FFF
FFF8001FFF
FFF8001FFF
FFF8001FFF
03FFFFFFFF
03FFFFFFFF
03FFFFFFFF
03FFFFFFFF
03FFFFFFFF
03FFFFFFFF
03FFFFFFFF
ENDCHAR
STARTCHAR 0048
ENCODING 72
SWIDTH 528 0
DWIDTH 47 0
BBX 40 53 0 0
BITMAP
FFF8001FFF
FFF8001FFF
FFF8001FFF
FFF8001FFF
FFF8001FFF
FFF8001FFF
FFF8001FFF
FFF8001FFF
FFF8001FFF
FFF8001FFF
FFF8001FFF
FFF8001FFF
FFF8001FFF
FFF8001FFF
FFF8001FFF
FFF8001FFF
FFF8001FFF
FFF8001FFF
FFF8001FFF
FFF8001FFF
FFF80FFFFF
FFF80FFFFF
FFF80FFFFF
FFF80FFFFF
FFF80FFFFF
FFF80FFFFF
FFFFFFFFFF
FFFFF01FFF
FFFFF01FFF
FFFFF01FFF
FFFFF01FFF
FFFFF01FFF
FFFFF01FFF
FFF8001FFF
FFF8001FFF
FFF8001FFF
FFF8001FFF
FFF8001FFF
FFF8001FFF
FFF8001FFF
FFF8001FFF
FFF8001FFF
FFF8001FFF
FFF8001FFF
FFF8001FFF
FFF8001FFF
FFF8001FFF
FFF8001FFF
FFF8001FFF
FFF8001FFF
FFF8001FFF
FFF8001FFF
FFF8001FFF
ENDCHAR
STARTCHAR 0049
ENCODING 73
SWIDTH 528 0
DWIDTH 47 0
BBX 40 53 0 0
BITMAP
FFFFFFFFFF
FFFFFFFFFF
FFFFFFFFFF
FFFFFFFFFF
FFFFFFFFFF
FFFFFFFFFF
FFFFFFFFFF
0003FFE000
0003FFE000
0003FFE000
0003FFE000
0003FFE000
0003FFE000
0003FFE000
0003FFE000
0003FFE000
0003FFE000
0003FFE000
0003FFE000
0003FFE000
0003FFE000
0003FFE000
0003FFE000
0003FFE000
0003FFE000
0003FFE000
0003FFE000
0003FFE000
0003FFE000
0003FFE000
0003FFE000
0003FFE000
0003FFE000
0003FFE000
0003FFE000
0003FFE000
0003FFE000
0003FFE000
0003FFE000
0003FFE000
0003FFE000
0003FFE000
0003FFE000
0003FFE000
0003FFE000
0003FFE000
FFFFFFFFFF
FFFFFFFFFF
FFFFFFFFFF
FFFFFFFFFF
FFFFFFFFFF
FFFFFFFFFF
FFFFFFFFFF
ENDCHAR
STARTCHAR 004A
ENCODING 74
SWIDTH 528 0
DWIDTH 47 0
BBX 40 53 0 0
BITMAP
0000001FFF
0000001FFF
0000001FFF
0000001FFF
0000001FFF
0000001FFF
0000001FFF
0000001FFF
0000001FFF
0000001FFF
0000001FFF
0000001FFF
0000001FFF
0000001FFF
0000001FFF
0000001FFF
0000001FFF
0000001FFF
0000001FFF
0000001FFF
0000001FFF
0000001FFF
0000001FFF
0000001FFF
0000001FFF
0000001FFF
0000001FFF
0000001FFF
0000001FFF
0000001FFF
0000001FFF
0000001FFF
0000001FFF
0000001FFF
0000001FFF
0000001FFF
0000001FFF
0000001FFF
0000001FFF
FFF8001FFF
FFF8001FFF
FFF8001FFF
FFF8001FFF
FFF8001FFF
FFF8001FFF
FFF8001FFF
03FFFFFF80
03FFFFFF80
03FFFFFF80
03FFFFFF80
03FFFFFF80
03FFFFFF80
03FFFFFF80
ENDCHAR
STARTCHAR 004B
ENCODING 75
SWIDTH 528 0
DWIDTH 47 0
BBX 40 53 0 0
BITMAP
FFF8001FFF
FFF8001FFF
FFF8001FFF
FFF8001FFF
FFF8001FFF
FFF8001FFF
FFF8001FFF
FFF8001FFF
FFF8001FFF
FFF8001FFF
FFF8001FFF
FFF8001FFF
FFF8001FFF
FFF8001FFF
FFF8001FFF
FFF8001FFF
FFF8001FFF
FFF8001FFF
FFF8001FFF
FFF8001FFF
FFF80FFF80
FFF80FFF80
FFF80FFF80
FFF80FFF80
FFF80FFF80
FFF80FFF80
FFF80FFF80
FFFFF01FFF
FFFFF01FFF
FFFFF01FFF
FFFFF01FFF
FFFFF01FFF
FFFFF01FFF
FFFFF01FFF
FFF8001FFF
FFF8001FFF
FFF8001FFF
FFF8001FFF
FFF8001FFF
FFF8001FFF
FFF8001FFF
FFF8001FFF
FFF8001FFF
FFF8001FFF
FFF8001FFF
FFF8001FFF
FFF8001FFF
FFF8001FFF
FFF8001FFF
FFF8001FFF
FFF8001FFF
FFF8001FFF
FFF8001FFF
ENDCHAR
STARTCHAR 004C
ENCODING 76
SWIDTH 528 0
DWIDTH 47 0
BBX 40 53 0 0
BITMAP
FFF8000000
FFF8000000
FFF8000000
FFF8000000
FFF8000000
FFF8000000
FFF8000000
FFF8000000
FFF8000000
FFF8000000
FFF8000000
FFF8000000
FFF8000000
FFF8000000
FFF8000000
FFF8000000
FFF8000000
FFF8000000
FFF8000000
FFF8000000
FFF8000000
FFF8000000
FFF8000000
FFF8000000
FFF8000000
FFF8000000
FFF8000000
FFF8000000
FFF8000000
FFF8000000
FFF8000000
FFF8000000
FFF8000000
FFF8000000
FFF8000000
FFF8000000
FFF8000000
FFF8000000
FFF8000000
FFF8001FFF
FFF8001FFF
FFF8001FFF
FFF8001FFF
FFF8001FFF
FFF8001FFF
FFF8001FFF
03FFFFFF80
03FFFFFF80
03FFFFFF80
03FFFFFF80
03FFFFFF80
03FFFFFF80
03FFFFFF80
ENDCHAR
STARTCHAR 004D
ENCODING 77
SWIDTH 832 0
DWIDTH 74 0
BBX 67 53 0 0
BITMAP
FFF80FFFFF01FFF000
FFF80FFFFF01FFF000
FFF80FFFFF01FFF000
FFF80FFFFF01FFF000
FFF80FFFFF01FFF000
FFF80FFFFF01FFF000
FFF80FFFFF01FFF000
FFFFF01FFFFE03FFE0
FFFFF01FFFFE03FFE0
FFFFF01FFFFE03FFE0
FFFFF01FFFFE03FFE0
FFFFF01FFFFE03FFE0
FFFFF01FFFFE03FFE0
FFFFF01FFFFE03FFE0
FFF8001FFF0003FFE0
FFF8001FFF0003FFE0
FFF8001FFF0003FFE0
FFF8001FFF0003FFE0
FFF8001FFF0003FFE0
FFF8001FFF0003FFE0
FFF8001FFF0003FFE0
FFF8001FFF0003FFE0
FFF8001FFF0003FFE0
FFF8001FFF0003FFE0
FFF8001FFF0003FFE0
FFF8001FFF0003FFE0
FFF8001FFF0003FFE0
FFF8001FFF0003FFE0
FFF8001FFF0003FFE0
FFF8001FFF0003FFE0
FFF8001FFF0003FFE0
FFF8001FFF0003FFE0
FFF8001FFF0003FFE0
FFF8001FFF0003FFE0
FFF8001FFF0003FFE0
FFF8001FFF0003FFE0
FFF8001FFF0003FFE0
FFF8001FFF0003FFE0
FFF8001FFF0003FFE0
FFF8001FFF0003FFE0
FFF8001FFF0003FFE0
FFF8001FFF0003FFE0
FFF8001FFF0003FFE0
FFF8001FFF0003FFE0
FFF8001FFF0003FFE0
FFF8001FFF0003FFE0
FFF8001FFF0003FFE0
FFF8001FFF0003FFE0
FFF8001FFF0003FFE0
FFF8001FFF0003FFE0
FFF8001FFF0003FFE0
FFF8001FFF0003FFE0
FFF8001FFF0003FFE0
ENDCHAR
STARTCHAR 004E
ENCODING 78
SWIDTH 528 0
DWIDTH 47 0
BBX 40 53 0 0
BITMAP
FFF80FFF80
FFF80FFF80
FFF80FFF80
FFF80FFF80
FFF80FFF80
FFF80FFF80
FFF80FFF80
FFFFF01FFF
FFFFF01FFF
FFFFF01FFF
FFFFF01FFF
FFFFF01FFF
FFFFF01FFF
FFFFF01FFF
FFF8001FFF
FFF8001FFF
FFF8001FFF
FFF8001FFF
FFF8001FFF
FFF8001FFF
FFF8001FFF
FFF8001FFF
FFF8001FFF
FFF8001FFF
FFF8001FFF
FFF8001FFF
FFF8001FFF
FFF8001FFF
FFF8001FFF
FFF8001FFF
FFF8001FFF
FFF8001FFF
FFF8001FFF
FFF8001FFF
FFF8001FFF
FFF8001FFF
FFF8001FFF
FFF8001FFF
FFF8001FFF
FFF8001FFF
FFF8001FFF
FFF8001FFF
FFF8001FFF
FFF8001FFF
FFF8001FFF
FFF8001FFF
FFF8001FFF
FFF8001FFF
FFF8001FFF
FFF8001FFF
FFF8001FFF
FFF8001FFF
FFF8001FFF
ENDCHAR
STARTCHAR 004F
ENCODING 79
SWIDTH 528 0
DWIDTH 47 0
BBX 40 53 0 0
BITMAP
03FFFFFF80
03FFFFFF80
03FFFFFF80
03FFFFFF80
03FFFFFF80
03FFFFFF80
03FFFFFF80
FFF8001FFF
FFF8001FFF
FFF8001FFF
FFF8001FFF
FFF8001FFF
FFF8001FFF
FFF8001FFF
FFF8001FFF
FFF8001FFF
FFF8001FFF
FFF8001FFF
FFF8001FFF
FFF8001FFF
FFF8001FFF
FFF8001FFF
FFF8001FFF
FFF8001FFF
FFF8001FFF
FFF8001FFF
FFF8001FFF
FFF8001FFF
FFF8001FFF
FFF8001FFF
FFF8001FFF
FFF8001FFF
FFF8001FFF
FFF8001FFF
FFF8001FFF
FFF8001FFF
FFF8001FFF
FFF8001FFF
FFF8001FFF
FFF8001FFF
FFF8001FFF
FFF8001FFF
FFF8001FFF
FFF8001FFF
FFF8001FFF
FFF8001FFF
03FFFFFF80
03FFFFFF80
03FFFFFF80
03FFFFFF80
03FFFFFF80
03FFFFFF80
03FFFFFF80
ENDCHAR
STARTCHAR 0050
ENCODING 80
SWIDTH 528 0
DWIDTH 47 0
BBX 40 53 0 0
BITMAP
FFFFFFFF80
FFFFFFFF80
FFFFFFFF80
FFFFFFFF80
FFFFFFFF80
FFFFFFFF80
FFFFFFFF80
FFF8001FFF
FFF8001FFF
FFF8001FFF
FFF8001FFF
FFF8001FFF
FFF8001FFF
FFF8001FFF
FFF8001FFF
FFF8001FFF
FFF8001FFF
FFF8001FFF
FFF8001FFF
FFF8001FFF
FFF80FFF80
FFF80FFF80
FFF80FFF80
FFF80FFF80
FFF80FFF80
FFF80FFF80
FFFFFFFF80
FFFFF00000
FFFFF00000
FFFFF00000
FFFFF00000
FFFFF00000
FFFFF00000
FFF8000000
FFF8000000
FFF8000000
FFF8000000
FFF8000000
FFF8000000
FFF8000000
FFF8000000
FFF8000000
FFF8000000
FFF8000000
FFF8000000
FFF8000000
FFF8000000
FFF8000000
FFF8000000
FFF8000000
FFF8000000
FFF8000000
FFF8000000
ENDCHAR
STARTCHAR 0051
ENCODING 81
SWIDTH 528 0
DWIDTH 47 0
BBX 40 66 0 -13
BITMAP
03FFFFFF80
03FFFFFF80
03FFFFFF80
03FFFFFF80
03FFFFFF80
03FFFFFF80
FFFFFFFFFF
FFF8001FFF
FFF8001FFF
FFF8001FFF
FFF8001FFF
FFF8001FFF
FFF8001FFF
FFF8001FFF
FFF8001FFF
FFF8001FFF
FFF8001FFF
FFF8001FFF
FFF8001FFF
FFF8001FFF
FFF8001FFF
FFF8001FFF
FFF8001FFF
FFF8001FFF
FFF8001FFF
FFF8001FFF
FFF8001FFF
FFF8001FFF
FFF8001FFF
FFF8001FFF
FFF8001FFF
FFF8001FFF
FFF8001FFF
FFF8001FFF
FFF8001FFF
FFF8001FFF
FFF8001FFF
FFF8001FFF
FFF8001FFF
FFF8001FFF
FFF8001FFF
FFF8001FFF
FFF8001FFF
FFF8001FFF
FFF8001FFF
FFF8001FFF
03FFFFFF80
03FFFFFF80
03FFFFFF80
03FFFFFF80
03FFFFFF80
03FFFFFF80
03FFFFFF80
0007FFE000
0007FFE000
0007FFE000
0007FFE000
0007FFE000
0007FFE000
0007F00000
0007F00000
0007F00000
0007F00000
0007F00000
0007F00000
0007F00000
ENDCHAR
STARTCHAR 0052
ENCODING 82
SWIDTH 528 0
DWIDTH 47 0
BBX 40 53 0 0
BITMAP
FFFFFFFF80
FFFFFFFF80
FFFFFFFF80
FFFFFFFF80
FFFFFFFF80
FFFFFFFF80
FFFFFFFF80
FFF8001FFF
FFF8001FFF
FFF8001FFF
FFF8001FFF
FFF8001FFF
FFF8001FFF
FFF8001FFF
FFF8001FFF
FFF8001FFF
FFF8001FFF
FFF8001FFF
FFF8001FFF
FFF8001FFF
FFF80FFF80
FFF80FFF80
FFF80FFF80
FFF80FFF80
FFF80FFF80
FFF80FFF80
FFF80FFF80
FFFFF01FFF
FFFFF01FFF
FFFFF01FFF
FFFFF01FFF
FFFFF01FFF
FFFFF01FFF
FFFFF01FFF
FFF8001FFF
FFF8001FFF
FFF8001FFF
FFF8001FFF
FFF8001FFF
FFF8001FFF
FFF8001FFF
FFF8001FFF
FFF8001FFF
FFF8001FFF
FFF8001FFF
FFF8001FFF
FFF8001FFF
FFF8001FFF
FFF8001FFF
FFF8001FFF
FFF8001FFF
FFF8001FFF
FFF8001FFF
ENDCHAR
STARTCHAR 0053
ENCODING 83
SWIDTH 528 0
DWIDTH 47 0
BBX 40 53 0 0
BITMAP
01FFFFFF80
01FFFFFF80
01FFFFFF80
01FFFFFF80
01FFFFFF80
01FFFFFF80
01FFFFFF80
FFF8001FFF
FFF8001FFF
FFF8001FFF
FFF8001FFF
FFF8001FFF
FFF8001FFF
FFF8001FFF
FFF8000000
FFF8000000
FFF8000000
FFF8000000
FFF8000000
FFF8000000
FFF80FFF80
FFF80FFF80
FFF80FFF80
FFF80FFF80
FFF80FFF80
FFF80FFF80
FFFFFFFFFF
01FFF01FFF
01FFF01FFF
01FFF01FFF
01FFF01FFF
01FFF01FFF
01FFF01FFF
0000001FFF
0000001FFF
0000001FFF
0000001FFF
0000001FFF
0000001FFF
0000001FFF
FFF8001FFF
FFF8001FFF
FFF8001FFF
FFF8001FFF
FFF8001FFF
FFF8001FFF
01FFFFFF80
01FFFFFF80
01FFFFFF80
01FFFFFF80
01FFFFFF80
01FFFFFF80
01FFFFFF80
ENDCHAR
STARTCHAR 0054
ENCODING 84
SWIDTH 528 0
DWIDTH 47 0
BBX 40 53 0 0
BITMAP
FFFFFFFFFF
FFFFFFFFFF
FFFFFFFFFF
FFFFFFFFFF
FFFFFFFFFF
FFFFFFFFFF
FFFFFFFFFF
0003FFE000
0003FFE000
0003FFE000
0003FFE000
0003FFE000
0003FFE000
0003FFE000
0003FFE000
0003FFE000
0003FFE000
0003FFE000
0003FFE000
0003FFE000
0003FFE000
0003FFE000
0003FFE000
0003FFE000
0003FFE000
0003FFE000
0003FFE000
0003FFE000
0003FFE000
0003FFE000
0003FFE000
0003FFE000
0003FFE000
0003FFE000
0003FFE000
0003FFE000
0003FFE000
0003FFE000
0003FFE000
0003FFE000
0003FFE000
0003FFE000
0003FFE000
0003FFE000
0003FFE000
0003FFE000
0003FFE000
0003FFE000
0003FFE000
0003FFE000
0003FFE000
0003FFE000
0003FFE000
ENDCHAR
STARTCHAR 0055
ENCODING 85
SWIDTH 528 0
DWIDTH 47 0
BBX 40 53 0 0
BITMAP
FFF8001FFF
FFF8001FFF
FFF8001FFF
FFF8001FFF
FFF8001FFF
FFF8001FFF
FFF8001FFF
FFF8001FFF
FFF8001FFF
FFF8001FFF
FFF8001FFF
FFF8001FFF
FFF8001FFF
FFF8001FFF
FFF8001FFF
FFF8001FFF
FFF8001FFF
FFF8001FFF
FFF8001FFF
FFF8001FFF
FFF8001FFF
FFF8001FFF
FFF8001FFF
FFF8001FFF
FFF8001FFF
FFF8001FFF
FFF8001FFF
FFF8001FFF
FFF8001FFF
FFF8001FFF
FFF8001FFF
FFF8001FFF
FFF8001FFF
FFF8001FFF
FFF8001FFF
FFF8001FFF
FFF8001FFF
FFF8001FFF
FFF8001FFF
FFF80FFFFF
FFF80FFFFF
FFF80FFFFF
FFF80FFFFF
FFF80FFFFF
FFF80FFFFF
FFF80FFFFF
01FFF01FFF
01FFF01FFF
01FFF01FFF
01FFF01FFF
01FFF01FFF
01FFF01FFF
01FFF01FFF
ENDCHAR
STARTCHAR 0056
ENCODING 86
SWIDTH 528 0
DWIDTH 47 0
BBX 40 53 0 0
BITMAP
FFF8001FFF
FFF8001FFF
FFF8001FFF
FFF8001FFF
FFF8001FFF
FFF8001FFF
FFF8001FFF
FFF8001FFF
FFF8001FFF
FFF8001FFF
FFF8001FFF
FFF8001FFF
FFF8001FFF
FFF8001FFF
FFF8001FFF
FFF8001FFF
FFF8001FFF
FFF8001FFF
FFF8001FFF
FFF8001FFF
FFF8001FFF
FFF8001FFF
FFF8001FFF
FFF8001FFF
FFF8001FFF
FFF8001FFF
FFF8001FFF
FFF8001FFF
FFF8001FFF
FFF8001FFF
FFF8001FFF
FFF8001FFF
FFF8001FFF
FFF8001FFF
FFF8001FFF
FFF8001FFF
FFF8001FFF
FFF8001FFF
FFF8001FFF
FFF8001FFF
03FFFFFF80
03FFFFFF80
03FFFFFF80
03FFFFFF80
03FFFFFF80
03FFFFFF80
0003FFFF80
0003FFE000
0003FFE000
0003FFE000
0003FFE000
0003FFE000
0003FFE000
ENDCHAR
STARTCHAR 0057
ENCODING 87
SWIDTH 832 0
DWIDTH 74 0
BBX 67 53 0 0
BITMAP
FFF8001FFF0003FFE0
FFF8001FFF0003FFE0
FFF8001FFF0003FFE0
FFF8001FFF0003FFE0
FFF8001FFF0003FFE0
FFF8001FFF0003FFE0
FFF8001FFF0003FFE0
FFF8001FFF0003FFE0
FFF8001FFF0003FFE0
FFF8001FFF0003FFE0
FFF8001FFF0003FFE0
FFF8001FFF0003FFE0
FFF8001FFF0003FFE0
FFF8001FFF0003FFE0
FFF8001FFF0003FFE0
FFF8001FFF0003FFE0
FFF8001FFF0003FFE0
FFF8001FFF0003FFE0
FFF8001FFF0003FFE0
FFF8001FFF0003FFE0
FFF8001FFF0003FFE0
FFF8001FFF0003FFE0
FFF8001FFF0003FFE0
FFF8001FFF0003FFE0
FFF8001FFF0003FFE0
FFF8001FFF0003FFE0
FFF8001FFF0003FFE0
FFF8001FFF0003FFE0
FFF8001FFF0003FFE0
FFF8001FFF0003FFE0
FFF8001FFF0003FFE0
FFF8001FFF0003FFE0
FFF8001FFF0003FFE0
FFF8001FFF0003FFE0
FFF8001FFF0003FFE0
FFF8001FFF0003FFE0
FFF8001FFF0003FFE0
FFF8001FFF0003FFE0
FFF8001FFF0003FFE0
FFF8001FFF0003FFE0
FFF80FFFFF01FFF000
FFF80FFFFF01FFF000
FFF80FFFFF01FFF000
FFF80FFFFF01FFF000
FFF80FFFFF01FFF000
FFF80FFFFF01FFF000
01FFF01FFFFFFC0000
01FFF01FFFFFFC0000
01FFF01FFFFFFC0000
01FFF01FFFFFFC0000
01FFF01FFFFFFC0000
01FFF01FFFFFFC0000
01FFF01FFFFFFC0000
ENDCHAR
STARTCHAR 0058
ENCODING 88
SWIDTH 528 0
DWIDTH 47 0
BBX 40 53 0 0
BITMAP
FFF8001FFF
FFF8001FFF
FFF8001FFF
FFF8001FFF
FFF8001FFF
FFF8001FFF
FFF8001FFF
FFF8001FFF
FFF8001FFF
FFF8001FFF
FFF8001FFF
FFF8001FFF
FFF8001FFF
03FFFFFF80
03FFFFFF80
03FFFFFF80
03FFFFFF80
03FFFFFF80
03FFFFFF80
03FFFFFF80
0003FFE000
0003FFE000
0003FFE000
0003FFE000
0003FFE000
0003FFE000
03FFFFFF80
03FFFFFF80
03FFFFFF80
03FFFFFF80
03FFFFFF80
03FFFFFF80
03FFFFFF80
FFF8001FFF
FFF8001FFF
FFF8001FFF
FFF8001FFF
FFF8001FFF
FFF8001FFF
FFF8001FFF
FFF8001FFF
FFF8001FFF
FFF8001FFF
FFF8001FFF
FFF8001FFF
FFF8001FFF
FFF8001FFF
FFF8001FFF
FFF8001FFF
FFF8001FFF
FFF8001FFF
FFF8001FFF
FFF8001FFF
ENDCHAR
STARTCHAR 0059
ENCODING 89
SWIDTH 528 0
DWIDTH 47 0
BBX 40 53 0 0
BITMAP
FFF8001FFF
FFF8001FFF
FFF8001FFF
FFF8001FFF
FFF8001FFF
FFF8001FFF
FFF8001FFF
FFF8001FFF
FFF8001FFF
FFF8001FFF
FFF8001FFF
FFF8001FFF
FFF8001FFF
FFF8001FFF
FFF8001FFF
FFF8001FFF
FFF8001FFF
FFF8001FFF
FFF8001FFF
FFF8001FFF
FFF80FFFFF
FFF80FFFFF
FFF80FFFFF
FFF80FFFFF
FFF80FFFFF
FFF80FFFFF
FFFFFFFFFF
01FFF01FFF
01FFF01FFF
01FFF01FFF
01FFF01FFF
01FFF01FFF
01FFF01FFF
0000001FFF
0000001FFF
0000001FFF
0000001FFF
0000001FFF
0000001FFF
0000001FFF
0000001FFF
0000001FFF
0000001FFF
0000001FFF
0000001FFF
0000001FFF
0007FFFF80
0007FFFF80
0007FFFF80
0007FFFF80
0007FFFF80
0007FFFF80
0007FFFF80
ENDCHAR
STARTCHAR 005A
ENCODING 90
SWIDTH 528 0
DWIDTH 47 0
BBX 40 53 0 0
BITMAP
FFFFFFFFFF
FFFFFFFFFF
FFFFFFFFFF
FFFFFFFFFF
FFFFFFFFFF
FFFFFFFFFF
FFFFFFFFFF
0000001FFF
0000001FFF
0000001FFF
0000001FFF
0000001FFF
0000001FFF
00000FFF80
00000FFF80
00000FFF80
00000FFF80
00000FFF80
00000FFF80
00000FFF80
0003FFE000
0003FFE000
0003FFE000
0003FFE000
0003FFE000
0003FFE000
01FFF00000
01FFF00000
01FFF00000
01FFF00000
01FFF00000
01FFF00000
01FFF00000
FFF8000000
FFF8000000
FFF8000000
FFF8000000
FFF8000000
FFF8000000
FFF8000000
FFF8000000
FFF8000000
FFF8000000
FFF8000000
FFF8000000
FFF8000000
FFFFFFFFFF
FFFFFFFFFF
FFFFFFFFFF
FFFFFFFFFF
FFFFFFFFFF
FFFFFFFFFF
FFFFFFFFFF
ENDCHAR
STARTCHAR 005B
ENCODING 91
SWIDTH 303 0
DWIDTH 27 0
BBX 20 53 0 0
BITMAP
FFFFF0
FFFFF0
FFFFF0
FFFFF0
FFFFF0
FFFFF0
FFFFF0
FFF800
FFF800
FFF800
FFF800
FFF800
FFF800
FFF800
FFF800
FFF800
FFF800
FFF800
FFF800
FFF800
FFF800
FFF800
FFF800
FFF800
FFF800
FFF800
FFF800
FFF800
FFF800
FFF800
FFF800
FFF800
FFF800
FFF800
FFF800
FFF800
FFF800
FFF800
FFF800
FFF800
FFF800
FFF800
FFF800
FFF800
FFF800
FFF800
FFFFF0
FFFFF0
FFFFF0
FFFFF0
FFFFF0
FFFFF0
FFFFF0
ENDCHAR
STARTCHAR 005C
ENCODING 92
SWIDTH 528 0
DWIDTH 47 0
BBX 40 53 0 0
BITMAP
FFF8000000
FFF8000000
FFF8000000
FFF8000000
FFF8000000
FFF8000000
FFF8000000
01FFF00000
01FFF00000
01FFF00000
01FFF00000
01FFF00000
01FFF00000
01FFF00000
01FFF00000
01FFF00000
01FFF00000
01FFF00000
01FFF00000
01FFF00000
0003FFE000
0003FFE000
0003FFE000
0003FFE000
0003FFE000
0003FFE000
0003FFE000
0003FFE000
0003FFE000
0003FFE000
0003FFE000
0003FFE000
0003FFE000
00000FFF80
00000FFF80
00000FFF80
00000FFF80
00000FFF80
00000FFF80
00000FFF80
00000FFF80
00000FFF80
00000FFF80
00000FFF80
00000FFF80
00000FFF80
0000001FFF
0000001FFF
0000001FFF
0000001FFF
0000001FFF
0000001FFF
0000001FFF
ENDCHAR
STARTCHAR 005D
ENCODING 93
SWIDTH 303 0
DWIDTH 27 0
BBX 19 53 1 0
BITMAP
FFFFE0
FFFFE0
FFFFE0
FFFFE0
FFFFE0
FFFFE0
FFFFE0
03FFE0
03FFE0
03FFE0
03FFE0
03FFE0
03FFE0
03FFE0
03FFE0
03FFE0
03FFE0
03FFE0
03FFE0
03FFE0
03FFE0
03FFE0
03FFE0
03FFE0
03FFE0
03FFE0
03FFE0
03FFE0
03FFE0
03FFE0
03FFE0
03FFE0
03FFE0
03FFE0
03FFE0
03FFE0
03FFE0
03FFE0
03FFE0
03FFE0
03FFE0
03FFE0
03FFE0
03FFE0
03FFE0
03FFE0
FFFFE0
FFFFE0
FFFFE0
FFFFE0
FFFFE0
FFFFE0
FFFFE0
ENDCHAR
STARTCHAR 005E
ENCODING 94
SWIDTH 315 0
DWIDTH 28 0
BBX 21 20 0 33
BITMAP
01F800
01F800
01F800
01F800
01F800
01F800
01F800
FFFFF8
FFFFF8
FFFFF8
FFFFF8
FFFFF8
FFFFF8
FE03F8
FE03F8
FE03F8
FE03F8
FE03F8
FE03F8
FE03F8
ENDCHAR
STARTCHAR 005F
ENCODING 95
SWIDTH 450 0
DWIDTH 40 0
BBX 33 7 0 -13
BITMAP
FFFFFFFF80
FFFFFFFF80
FFFFFFFF80
FFFFFFFF80
FFFFFFFF80
FFFFFFFF80
FFFFFFFF80
ENDCHAR
STARTCHAR 0060
ENCODING 96
SWIDTH 236 0
DWIDTH 21 0
BBX 13 13 1 40
BITMAP
FFF8
FFF8
FFF8
FFF8
FFF8
FFF8
FFF8
03F8
03F8
03F8
03F8
03F8
03F8
ENDCHAR
STARTCHAR 0061
ENCODING 97
SWIDTH 528 0
DWIDTH 47 0
BBX 40 33 0 0
BITMAP
01FFFFFFC0
01FFFFFFC0
01FFFFFFC0
01FFFFFFC0
01FFFFFFC0
01FFFFFFC0
FFFFFFFFFF
FFF8001FFF
FFF8001FFF
FFF8001FFF
FFF8001FFF
FFF8001FFF
FFF8001FFF
FFF8001FFF
FFF8001FFF
FFF8001FFF
FFF8001FFF
FFF8001FFF
FFF8001FFF
FFF8001FFF
FFF80FFFFF
FFF80FFFFF
FFF80FFFFF
FFF80FFFFF
FFF80FFFFF
FFF80FFFFF
01FFF01FFF
01FFF01FFF
01FFF01FFF
01FFF01FFF
01FFF01FFF
01FFF01FFF
01FFF01FFF
ENDCHAR
STARTCHAR 0062
ENCODING 98
SWIDTH 528 0
DWIDTH 47 0
BBX 40 53 0 0
BITMAP
FFF8000000
FFF8000000
FFF8000000
FFF8000000
FFF8000000
FFF8000000
FFF8000000
FFF8000000
FFF8000000
FFF8000000
FFF8000000
FFF8000000
FFF8000000
FFF8000000
FFF8000000
FFF8000000
FFF8000000
FFF8000000
FFF8000000
FFF8000000
FFF80FFF80
FFF80FFF80
FFF80FFF80
FFF80FFF80
FFF80FFF80
FFF80FFF80
FFF80FFF80
FFFFF01FFF
FFFFF01FFF
FFFFF01FFF
FFFFF01FFF
FFFFF01FFF
FFFFF01FFF
FFFFF01FFF
FFF8001FFF
FFF8001FFF
FFF8001FFF
FFF8001FFF
FFF8001FFF
FFF8001FFF
FFF8001FFF
FFF8001FFF
FFF8001FFF
FFF8001FFF
FFF8001FFF
FFF8001FFF
FFFFFFFF80
FFFFFFFF80
FFFFFFFF80
FFFFFFFF80
FFFFFFFF80
FFFFFFFF80
FFFFFFFF80
ENDCHAR
STARTCHAR 0063
ENCODING 99
SWIDTH 528 0
DWIDTH 47 0
BBX 40 33 0 0
BITMAP
03FFFFFF80
03FFFFFF80
03FFFFFF80
03FFFFFF80
03FFFFFF80
03FFFFFF80
FFFFFFFFFF
FFF8001FFF
FFF8001FFF
FFF8001FFF
FFF8001FFF
FFF8001FFF
FFF8001FFF
FFF8000000
FFF8000000
FFF8000000
FFF8000000
FFF8000000
FFF8000000
FFF8000000
FFF8001FFF
FFF8001FFF
FFF8001FFF
FFF8001FFF
FFF8001FFF
FFF8001FFF
03FFFFFF80
03FFFFFF80
03FFFFFF80
03FFFFFF80
03FFFFFF80
03FFFFFF80
03FFFFFF80
ENDCHAR
STARTCHAR 0064
ENCODING 100
SWIDTH 528 0
DWIDTH 47 0
BBX 40 53 0 0
BITMAP
0000001FFF
0000001FFF
0000001FFF
0000001FFF
0000001FFF
0000001FFF
0000001FFF
0000001FFF
0000001FFF
0000001FFF
0000001FFF
0000001FFF
0000001FFF
0000001FFF
0000001FFF
0000001FFF
0000001FFF
0000001FFF
0000001FFF
0000001FFF
01FFF01FFF
01FFF01FFF
01FFF01FFF
01FFF01FFF
01FFF01FFF
01FFF01FFF
01FFF01FFF
FFF80FFFFF
FFF80FFFFF
FFF80FFFFF
FFF80FFFFF
FFF80FFFFF
FFF80FFFFF
FFF80FFFFF
FFF8001FFF
FFF8001FFF
FFF8001FFF
FFF8001FFF
FFF8001FFF
FFF8001FFF
FFF8001FFF
FFF8001FFF
FFF8001FFF
FFF8001FFF
FFF8001FFF
FFF8001FFF
01FFFFFFFF
01FFFFFFFF
01FFFFFFFF
01FFFFFFFF
01FFFFFFFF
01FFFFFFFF
01FFFFFFFF
ENDCHAR
STARTCHAR 0065
ENCODING 101
SWIDTH 528 0
DWIDTH 47 0
BBX 40 33 0 0
BITMAP
01FFFFFFC0
01FFFFFFC0
01FFFFFFC0
01FFFFFFC0
01FFFFFFC0
01FFFFFFC0
01FFFFFFC0
FFF8001FFF
FFF8001FFF
FFF8001FFF
FFF8001FFF
FFF8001FFF
FFF8001FFF
FFF80FFFFF
FFF80FFFFF
FFF80FFFFF
FFF80FFFFF
FFF80FFFFF
FFF80FFFFF
FFF80FFFFF
FFFFF00000
FFFFF00000
FFFFF00000
FFFFF00000
FFFFF00000
FFFFF00000
01FFFFE000
01FFFFE000
01FFFFE000
01FFFFE000
01FFFFE000
01FFFFE000
01FFFFE000
ENDCHAR
STARTCHAR 0066
ENCODING 102
SWIDTH 528 0
DWIDTH 47 0
BBX 40 53 0 0
BITMAP
03FFFFFF80
03FFFFFF80
03FFFFFF80
03FFFFFF80
03FFFFFF80
03FFFFFF80
03FFFFFF80
FFF8001FFF
FFF8001FFF
FFF8001FFF
FFF8001FFF
FFF8001FFF
FFF8001FFF
FFF8001FFF
FFF8000000
FFF8000000
FFF8000000
FFF8000000
FFF8000000
FFF8000000
FFFFF00000
FFFFF00000
FFFFF00000
FFFFF00000
FFFFF00000
FFFFF00000
FFFFF00000
FFF8000000
FFF8000000
FFF8000000
FFF8000000
FFF8000000
FFF8000000
FFF8000000
FFF8000000
FFF8000000
FFF8000000
FFF8000000
FFF8000000
FFF8000000
FFF8000000
FFF8000000
FFF8000000
FFF8000000
FFF8000000
FFF8000000
FFF8000000
FFF8000000
FFF8000000
FFF8000000
FFF8000000
FFF8000000
FFF8000000
ENDCHAR
STARTCHAR 0067
ENCODING 103
SWIDTH 528 0
DWIDTH 47 0
BBX 40 46 0 -13
BITMAP
01FFFFFF80
01FFFFFF80
01FFFFFF80
01FFFFFF80
01FFFFFF80
01FFFFFF80
FFFFFFFFFF
FFF8001FFF
FFF8001FFF
FFF8001FFF
FFF8001FFF
FFF8001FFF
FFF8001FFF
FFF8001FFF
FFF8001FFF
FFF8001FFF
FFF8001FFF
FFF8001FFF
FFF8001FFF
FFF80FFFFF
FFF80FFFFF
FFF80FFFFF
FFF80FFFFF
FFF80FFFFF
FFF80FFFFF
FFF80FFFFF
01FFF01FFF
01FFF01FFF
01FFF01FFF
01FFF01FFF
01FFF01FFF
01FFF01FFF
01FFF01FFF
0000001FFF
0000001FFF
0000001FFF
0000001FFF
0000001FFF
0000001FFF
0007FFFF80
0007FFFF80
0007FFFF80
0007FFFF80
0007FFFF80
0007FFFF80
0007FFFF80
ENDCHAR
STARTCHAR 0068
ENCODING 104
SWIDTH 528 0
DWIDTH 47 0
BBX 40 53 0 0
BITMAP
FFF8000000
FFF8000000
FFF8000000
FFF8000000
FFF8000000
FFF8000000
FFF8000000
FFF8000000
FFF8000000
FFF8000000
FFF8000000
FFF8000000
FFF8000000
FFF8000000
FFF8000000
FFF8000000
FFF8000000
FFF8000000
FFF8000000
FFF8000000
FFF80FFF80
FFF80FFF80
FFF80FFF80
FFF80FFF80
FFF80FFF80
FFF80FFF80
FFF80FFF80
FFFFF01FFF
FFFFF01FFF
FFFFF01FFF
FFFFF01FFF
FFFFF01FFF
FFFFF01FFF
FFFFF01FFF
FFF8001FFF
FFF8001FFF
FFF8001FFF
FFF8001FFF
FFF8001FFF
FFF8001FFF
FFF8001FFF
FFF8001FFF
FFF8001FFF
FFF8001FFF
FFF8001FFF
FFF8001FFF
FFF8001FFF
FFF8001FFF
FFF8001FFF
FFF8001FFF
FFF8001FFF
FFF8001FFF
FFF8001FFF
ENDCHAR
STARTCHAR 0069
ENCODING 105
SWIDTH 225 0
DWIDTH 20 0
BBX 13 46 0 0
BITMAP
FFF8
FFF8
FFF8
FFF8
FFF8
FFF8
FFF8
0000
0000
0000
0000
0000
0000
FFF8
FFF8
FFF8
FFF8
FFF8
FFF8
FFF8
FFF8
FFF8
FFF8
FFF8
FFF8
FFF8
FFF8
FFF8
FFF8
FFF8
FFF8
FFF8
FFF8
FFF8
FFF8
FFF8
FFF8
FFF8
FFF8
FFF8
FFF8
FFF8
FFF8
FFF8
FFF8
FFF8
ENDCHAR
STARTCHAR 006A
ENCODING 106
SWIDTH 382 0
DWIDTH 34 0
BBX 27 60 0 -13
BITMAP
0003FFE0
0003FFE0
0003FFE0
0003FFE0
0003FFE0
0003FFE0
0003FFE0
00000000
00000000
00000000
00000000
00000000
00000000
00000000
0003FFE0
0003FFE0
0003FFE0
0003FFE0
0003FFE0
0003FFE0
0003FFE0
0003FFE0
0003FFE0
0003FFE0
0003FFE0
0003FFE0
0003FFE0
0003FFE0
0003FFE0
0003FFE0
0003FFE0
0003FFE0
0003FFE0
0003FFE0
0003FFE0
0003FFE0
0003FFE0
0003FFE0
0003FFE0
0003FFE0
0003FFE0
0003FFE0
0003FFE0
0003FFE0
0003FFE0
0003FFE0
0003FFE0
0003FFE0
0003FFE0
0003FFE0
0003FFE0
0003FFE0
0003FFE0
FFFFFFE0
FFFFF000
FFFFF000
FFFFF000
FFFFF000
FFFFF000
FFFFF000
ENDCHAR
STARTCHAR 006B
ENCODING 107
SWIDTH 528 0
DWIDTH 47 0
BBX 40 53 0 0
BITMAP
FFF8000000
FFF8000000
FFF8000000
FFF8000000
FFF8000000
FFF8000000
FFF8000000
FFF8001FFF
FFF8001FFF
FFF8001FFF
FFF8001FFF
FFF8001FFF
FFF8001FFF
FFF8001FFF
FFF8001FFF
FFF8001FFF
FFF8001FFF
FFF8001FFF
FFF8001FFF
FFF8001FFF
FFF80FFF80
FFF80FFF80
FFF80FFF80
FFF80FFF80
FFF80FFF80
FFF80FFF80
FFF80FFF80
FFFFF01FFF
FFFFF01FFF
FFFFF01FFF
FFFFF01FFF
FFFFF01FFF
FFFFF01FFF
FFFFF01FFF
FFF8001FFF
FFF8001FFF
FFF8001FFF
FFF8001FFF
FFF8001FFF
FFF8001FFF
FFF8001FFF
FFF8001FFF
FFF8001FFF
FFF8001FFF
FFF8001FFF
FFF8001FFF
FFF8001FFF
FFF8001FFF
FFF8001FFF
FFF8001FFF
FFF8001FFF
FFF8001FFF
FFF8001FFF
ENDCHAR
STARTCHAR 006C
ENCODING 108
SWIDTH 225 0
DWIDTH 20 0
BBX 13 53 0 0
BITMAP
FFF8
FFF8
FFF8
FFF8
FFF8
FFF8
FFF8
FFF8
FFF8
FFF8
FFF8
FFF8
FFF8
FFF8
FFF8
FFF8
FFF8
FFF8
FFF8
FFF8
FFF8
FFF8
FFF8
FFF8
FFF8
FFF8
FFF8
FFF8
FFF8
FFF8
FFF8
FFF8
FFF8
FFF8
FFF8
FFF8
FFF8
FFF8
FFF8
FFF8
FFF8
FFF8
FFF8
FFF8
FFF8
FFF8
FFF8
FFF8
FFF8
FFF8
FFF8
FFF8
FFF8
ENDCHAR
STARTCHAR 006D
ENCODING 109
SWIDTH 832 0
DWIDTH 74 0
BBX 67 33 0 0
BITMAP
FFF80FFFFF01FFF000
FFF80FFFFF01FFF000
FFF80FFFFF01FFF000
FFF80FFFFF01FFF000
FFF80FFFFF01FFF000
FFF80FFFFF01FFF000
FFF80FFFFF01FFF000
FFFFF01FFFFE03FFE0
FFFFF01FFFFE03FFE0
FFFFF01FFFFE03FFE0
FFFFF01FFFFE03FFE0
FFFFF01FFFFE03FFE0
FFFFF01FFFFE03FFE0
FFFFF01FFFFE03FFE0
FFF8001FFF0003FFE0
FFF8001FFF0003FFE0
FFF8001FFF0003FFE0
FFF8001FFF0003FFE0
FFF8001FFF0003FFE0
FFF8001FFF0003FFE0
FFF8001FFF0003FFE0
FFF8001FFF0003FFE0
FFF8001FFF0003FFE0
FFF8001FFF0003FFE0
FFF8001FFF0003FFE0
FFF8001FFF0003FFE0
FFF8001FFF0003FFE0
FFF8001FFF0003FFE0
FFF8001FFF0003FFE0
FFF8001FFF0003FFE0
FFF8001FFF0003FFE0
FFF8001FFF0003FFE0
FFF8001FFF0003FFE0
ENDCHAR
STARTCHAR 006E
ENCODING 110
SWIDTH 528 0
DWIDTH 47 0
BBX 40 33 0 0
BITMAP
FFF80FFF80
FFF80FFF80
FFF80FFF80
FFF80FFF80
FFF80FFF80
FFF80FFF80
FFF80FFF80
FFFFF01FFF
FFFFF01FFF
FFFFF01FFF
FFFFF01FFF
FFFFF01FFF
FFFFF01FFF
FFFFF01FFF
FFF8001FFF
FFF8001FFF
FFF8001FFF
FFF8001FFF
FFF8001FFF
FFF8001FFF
FFF8001FFF
FFF8001FFF
FFF8001FFF
FFF8001FFF
FFF8001FFF
FFF8001FFF
FFF8001FFF
FFF8001FFF
FFF8001FFF
FFF8001FFF
FFF8001FFF
FFF8001FFF
FFF8001FFF
ENDCHAR
STARTCHAR 006F
ENCODING 111
SWIDTH 528 0
DWIDTH 47 0
BBX 40 33 0 0
BITMAP
03FFFFFF80
03FFFFFF80
03FFFFFF80
03FFFFFF80
03FFFFFF80
03FFFFFF80
03FFFFFF80
FFF8001FFF
FFF8001FFF
FFF8001FFF
FFF8001FFF
FFF8001FFF
FFF8001FFF
FFF8001FFF
FFF8001FFF
FFF8001FFF
FFF8001FFF
FFF8001FFF
FFF8001FFF
FFF8001FFF
FFF8001FFF
FFF8001FFF
FFF8001FFF
FFF8001FFF
FFF8001FFF
FFF8001FFF
03FFFFFF80
03FFFFFF80
03FFFFFF80
03FFFFFF80
03FFFFFF80
03FFFFFF80
03FFFFFF80
ENDCHAR
STARTCHAR 0070
ENCODING 112
SWIDTH 528 0
DWIDTH 47 0
BBX 40 46 0 -13
BITMAP
FFFFFFFF80
FFFFFFFF80
FFFFFFFF80
FFFFFFFF80
FFFFFFFF80
FFFFFFFF80
FFFFFFFFFF
FFF8001FFF
FFF8001FFF
FFF8001FFF
FFF8001FFF
FFF8001FFF
FFF8001FFF
FFF8001FFF
FFF8001FFF
FFF8001FFF
FFF8001FFF
FFF8001FFF
FFF8001FFF
FFFFF01FFF
FFFFF01FFF
FFFFF01FFF
FFFFF01FFF
FFFFF01FFF
FFFFF01FFF
FFFFF01FFF
FFF80FFF80
FFF80FFF80
FFF80FFF80
FFF80FFF80
FFF80FFF80
FFF80FFF80
FFF80FFF80
FFF8000000
FFF8000000
FFF8000000
FFF8000000
FFF8000000
FFF8000000
FFF8000000
FFF8000000
FFF8000000
FFF8000000
FFF8000000
FFF8000000
FFF8000000
ENDCHAR
STARTCHAR 0071
ENCODING 113
SWIDTH 528 0
DWIDTH 47 0
BBX 40 46 0 -13
BITMAP
01FFFFFFFF
01FFFFFFFF
01FFFFFFFF
01FFFFFFFF
01FFFFFFFF
01FFFFFFFF
FFFFFFFFFF
FFF8001FFF
FFF8001FFF
FFF8001FFF
FFF8001FFF
FFF8001FFF
FFF8001FFF
FFF8001FFF
FFF8001FFF
FFF8001FFF
FFF8001FFF
FFF8001FFF
FFF8001FFF
FFF80FFFFF
FFF80FFFFF
FFF80FFFFF
FFF80FFFFF
FFF80FFFFF
FFF80FFFFF
FFF80FFFFF
01FFF01FFF
01FFF01FFF
01FFF01FFF
01FFF01FFF
01FFF01FFF
01FFF01FFF
01FFF01FFF
0000001FFF
0000001FFF
0000001FFF
0000001FFF
0000001FFF
0000001FFF
0000001FFF
0000001FFF
0000001FFF
0000001FFF
0000001FFF
0000001FFF
0000001FFF
ENDCHAR
STARTCHAR 0072
ENCODING 114
SWIDTH 528 0
DWIDTH 47 0
BBX 40 33 0 0
BITMAP
FFF80FFF80
FFF80FFF80
FFF80FFF80
FFF80FFF80
FFF80FFF80
FFF80FFF80
FFFFFFFFFF
FFFFF01FFF
FFFFF01FFF
FFFFF01FFF
FFFFF01FFF
FFFFF01FFF
FFFFF01FFF
FFF8000000
FFF8000000
FFF8000000
FFF8000000
FFF8000000
FFF8000000
FFF8000000
FFF8000000
FFF8000000
FFF8000000
FFF8000000
FFF8000000
FFF8000000
FFF8000000
FFF8000000
FFF8000000
FFF8000000
FFF8000000
FFF8000000
FFF8000000
ENDCHAR
STARTCHAR 0073
ENCODING 115
SWIDTH 528 0
DWIDTH 47 0
BBX 40 33 0 0
BITMAP
01FFFFFFFF
01FFFFFFFF
01FFFFFFFF
01FFFFFFFF
01FFFFFFFF
01FFFFFFFF
01FFFFFFFF
FFF8000000
FFF8000000
FFF8000000
FFF8000000
FFF8000000
FFF8000000
FFFFFFFFFF
FFFFFFFFFF
FFFFFFFFFF
FFFFFFFFFF
FFFFFFFFFF
FFFFFFFFFF
FFFFFFFFFF
0000001FFF
0000001FFF
0000001FFF
0000001FFF
0000001FFF
0000001FFF
FFFFFFFF80
FFFFFFFF80
FFFFFFFF80
FFFFFFFF80
FFFFFFFF80
FFFFFFFF80
FFFFFFFF80
ENDCHAR
STARTCHAR 0074
ENCODING 116
SWIDTH 382 0
DWIDTH 34 0
BBX 27 46 0 0
BITMAP
FFF80000
FFF80000
FFF80000
FFF80000
FFF80000
FFF80000
FFF80000
FFF80000
FFF80000
FFF80000
FFF80000
FFF80000
FFF80000
FFFFFFE0
FFFFFFE0
FFFFFFE0
FFFFFFE0
FFFFFFE0
FFFFFFE0
FFFFFFE0
FFF80000
FFF80000
FFF80000
FFF80000
FFF80000
FFF80000
FFF80000
FFF80000
FFF80000
FFF80000
FFF80000
FFF80000
FFF80000
FFF80000
FFF80000
FFF80000
FFF80000
FFF80000
FFF80000
01FFFFE0
01FFFFE0
01FFFFE0
01FFFFE0
01FFFFE0
01FFFFE0
01FFFFE0
ENDCHAR
STARTCHAR 0075
ENCODING 117
SWIDTH 528 0
DWIDTH 47 0
BBX 40 33 0 0
BITMAP
FFF8001FFF
FFF8001FFF
FFF8001FFF
FFF8001FFF
FFF8001FFF
FFF8001FFF
FFF8001FFF
FFF8001FFF
FFF8001FFF
FFF8001FFF
FFF8001FFF
FFF8001FFF
FFF8001FFF
FFF8001FFF
FFF8001FFF
FFF8001FFF
FFF8001FFF
FFF8001FFF
FFF8001FFF
FFF80FFFFF
FFF80FFFFF
FFF80FFFFF
FFF80FFFFF
FFF80FFFFF
FFF80FFFFF
FFF80FFFFF
01FFF01FFF
01FFF01FFF
01FFF01FFF
01FFF01FFF
01FFF01FFF
01FFF01FFF
01FFF01FFF
ENDCHAR
STARTCHAR 0076
ENCODING 118
SWIDTH 528 0
DWIDTH 47 0
BBX 40 33 0 0
BITMAP
FFF8001FFF
FFF8001FFF
FFF8001FFF
FFF8001FFF
FFF8001FFF
FFF8001FFF
FFF8001FFF
FFF8001FFF
FFF8001FFF
FFF8001FFF
FFF8001FFF
FFF8001FFF
FFF8001FFF
FFF8001FFF
FFF8001FFF
FFF8001FFF
FFF8001FFF
FFF8001FFF
FFF8001FFF
FFF8001FFF
03FFFFFF80
03FFFFFF80
03FFFFFF80
03FFFFFF80
03FFFFFF80
03FFFFFF80
0003FFFF80
0003FFE000
0003FFE000
0003FFE000
0003FFE000
0003FFE000
0003FFE000
ENDCHAR
STARTCHAR 0077
ENCODING 119
SWIDTH 832 0
DWIDTH 74 0
BBX 67 33 0 0
BITMAP
FFF8001FFF0003FFE0
FFF8001FFF0003FFE0
FFF8001FFF0003FFE0
FFF8001FFF0003FFE0
FFF8001FFF0003FFE0
FFF8001FFF0003FFE0
FFF8001FFF0003FFE0
FFF8001FFF0003FFE0
FFF8001FFF0003FFE0
FFF8001FFF0003FFE0
FFF8001FFF0003FFE0
FFF8001FFF0003FFE0
FFF8001FFF0003FFE0
FFF8001FFF0003FFE0
FFF8001FFF0003FFE0
FFF8001FFF0003FFE0
FFF8001FFF0003FFE0
FFF8001FFF0003FFE0
FFF8001FFF0003FFE0
FFF8001FFF0003FFE0
FFF80FFFFF01FFF000
FFF80FFFFF01FFF000
FFF80FFFFF01FFF000
FFF80FFFFF01FFF000
FFF80FFFFF01FFF000
FFF80FFFFF01FFF000
01FFF01FFFFFFC0000
01FFF01FFFFFFC0000
01FFF01FFFFFFC0000
01FFF01FFFFFFC0000
01FFF01FFFFFFC0000
01FFF01FFFFFFC0000
01FFF01FFFFFFC0000
ENDCHAR
STARTCHAR 0078
ENCODING 120
SWIDTH 528 0
DWIDTH 47 0
BBX 40 33 0 0
BITMAP
FFF8001FFF
FFF8001FFF
FFF8001FFF
FFF8001FFF
FFF8001FFF
FFF8001FFF
FFF8001FFF
03FFFFFF80
03FFFFFF80
03FFFFFF80
03FFFFFF80
03FFFFFF80
03FFFFFF80
0003FFE000
0003FFE000
0003FFE000
0003FFE000
0003FFE000
0003FFE000
0003FFE000
03FFFFFF80
03FFFFFF80
03FFFFFF80
03FFFFFF80
03FFFFFF80
03FFFFFF80
FFF8001FFF
FFF8001FFF
FFF8001FFF
FFF8001FFF
FFF8001FFF
FFF8001FFF
FFF8001FFF
ENDCHAR
STARTCHAR 0079
ENCODING 121
SWIDTH 528 0
DWIDTH 47 0
BBX 40 46 0 -13
BITMAP
FFF8001FFF
FFF8001FFF
FFF8001FFF
FFF8001FFF
FFF8001FFF
FFF8001FFF
FFF8001FFF
FFF8001FFF
FFF8001FFF
FFF8001FFF
FFF8001FFF
FFF8001FFF
FFF8001FFF
FFF8001FFF
FFF8001FFF
FFF8001FFF
FFF8001FFF
FFF8001FFF
FFF8001FFF
FFF80FFFFF
FFF80FFFFF
FFF80FFFFF
FFF80FFFFF
FFF80FFFFF
FFF80FFFFF
FFF80FFFFF
01FFF01FFF
01FFF01FFF
01FFF01FFF
01FFF01FFF
01FFF01FFF
01FFF01FFF
01FFF01FFF
0000001FFF
0000001FFF
0000001FFF
0000001FFF
0000001FFF
0000001FFF
0007FFFFFF
0007FFFF80
0007FFFF80
0007FFFF80
0007FFFF80
0007FFFF80
0007FFFF80
ENDCHAR
STARTCHAR 007A
ENCODING 122
SWIDTH 528 0
DWIDTH 47 0
BBX 40 33 0 0
BITMAP
FFFFFFFFFF
FFFFFFFFFF
FFFFFFFFFF
FFFFFFFFFF
FFFFFFFFFF
FFFFFFFFFF
FFFFFFFFFF
00000FFF80
00000FFF80
00000FFF80
00000FFF80
00000FFF80
00000FFF80
0003FFE000
0003FFE000
0003FFE000
0003FFE000
0003FFE000
0003FFE000
0003FFE000
01FFF00000
01FFF00000
01FFF00000
01FFF00000
01FFF00000
01FFF00000
FFFFFFFFFF
FFFFFFFFFF
FFFFFFFFFF
FFFFFFFFFF
FFFFFFFFFF
FFFFFFFFFF
FFFFFFFFFF
ENDCHAR
STARTCHAR 007B
ENCODING 123
SWIDTH 382 0
DWIDTH 34 0
BBX 27 53 0 0
BITMAP
0003FFE0
0003FFE0
0003FFE0
0003FFE0
0003FFE0
0003FFE0
0003FFE0
01FFF000
01FFF000
01FFF000
01FFF000
01FFF000
01FFF000
01FFF000
01FFF000
01FFF000
01FFF000
01FFF000
01FFF000
01FFF000
FFF80000
FFF80000
FFF80000
FFF80000
FFF80000
FFF80000
FFF80000
01FFF000
01FFF000
01FFF000
01FFF000
01FFF000
01FFF000
01FFF000
01FFF000
01FFF000
01FFF000
01FFF000
01FFF000
01FFF000
01FFF000
01FFF000
01FFF000
01FFF000
01FFF000
01FFF000
0003FFE0
0003FFE0
0003FFE0
0003FFE0
0003FFE0
0003FFE0
0003FFE0
ENDCHAR
STARTCHAR 007C
ENCODING 124
SWIDTH 225 0
DWIDTH 20 0
BBX 13 79 0 -13
BITMAP
FFF8
FFF8
FFF8
FFF8
FFF8
FFF8
FFF8
FFF8
FFF8
FFF8
FFF8
FFF8
FFF8
FFF8
FFF8
FFF8
FFF8
FFF8
FFF8
FFF8
FFF8
FFF8
FFF8
FFF8
FFF8
FFF8
FFF8
FFF8
FFF8
FFF8
FFF8
FFF8
FFF8
FFF8
FFF8
FFF8
FFF8
FFF8
FFF8
FFF8
FFF8
FFF8
FFF8
FFF8
FFF8
FFF8
FFF8
FFF8
FFF8
FFF8
FFF8
FFF8
FFF8
FFF8
FFF8
FFF8
FFF8
FFF8
FFF8
FFF8
FFF8
FFF8
FFF8
FFF8
FFF8
FFF8
FFF8
FFF8
FFF8
FFF8
FFF8
FFF8
FFF8
FFF8
FFF8
FFF8
FFF8
FFF8
FFF8
ENDCHAR
STARTCHAR 007D
ENCODING 125
SWIDTH 382 0
DWIDTH 34 0
BBX 27 53 0 0
BITMAP
FFF80000
FFF80000
FFF80000
FFF80000
FFF80000
FFF80000
FFF80000
01FFF000
01FFF000
01FFF000
01FFF000
01FFF000
01FFF000
01FFF000
01FFF000
01FFF000
01FFF000
01FFF000
01FFF000
01FFF000
0003FFE0
0003FFE0
0003FFE0
0003FFE0
0003FFE0
0003FFE0
0003FFE0
01FFF000
01FFF000
01FFF000
01FFF000
01FFF000
01FFF000
01FFF000
01FFF000
01FFF000
01FFF000
01FFF000
01FFF000
01FFF000
01FFF000
01FFF000
01FFF000
01FFF000
01FFF000
01FFF000
FFF80000
FFF80000
FFF80000
FFF80000
FFF80000
FFF80000
FFF80000
ENDCHAR
STARTCHAR 007E
ENCODING 126
SWIDTH 607 0
DWIDTH 54 0
BBX 47 20 0 20
BITMAP
01FFF0003FFE
01FFF0003FFE
01FFF0003FFE
01FFF0003FFE
01FFF0003FFE
01FFF0003FFE
01FFF0003FFE
FFF80FE03FFE
FFF80FE03FFE
FFF80FE03FFE
FFF80FE03FFE
FFF80FE03FFE
FFF80FE03FFE
FFF8001FFF00
FFF8001FFF00
FFF8001FFF00
FFF8001FFF00
FFF8001FFF00
FFF8001FFF00
FFF8001FFF00
ENDCHAR
STARTCHAR 007F
ENCODING 127
SWIDTH 528 0
DWIDTH 47 0
BBX 40 53 0 0
BITMAP
FFFFFFFFFF
FFFFFFFFFF
FFFFFFFFFF
FFFFFFFFFF
FFFFFFFFFF
FFFFFFFFFF
FFFFFFFFFF
FFFFFFFFFF
FFFFFFFFFF
FFFFFFFFFF
FFFFFFFFFF
FFFFFFFFFF
FFFFFFFFFF
FFFFFFFFFF
FFFFFFFFFF
FFFFFFFFFF
FFFFFFFFFF
FFFFFFFFFF
FFFFFFFFFF
FFFFFFFFFF
FFFFFFFFFF
FFFFFFFFFF
FFFFFFFFFF
FFFFFFFFFF
FFFFFFFFFF
FFFFFFFFFF
FFFFFFFFFF
FFFFFFFFFF
FFFFFFFFFF
FFFFFFFFFF
FFFFFFFFFF
FFFFFFFFFF
FFFFFFFFFF
FFFFFFFFFF
FFFFFFFFFF
FFFFFFFFFF
FFFFFFFFFF
FFFFFFFFFF
FFFFFFFFFF
FFFFFFFFFF
FFFFFFFFFF
FFFFFFFFFF
FFFFFFFFFF
FFFFFFFFFF
FFFFFFFFFF
FFFFFFFFFF
FFFFFFFFFF
FFFFFFFFFF
FFFFFFFFFF
FFFFFFFFFF
FFFFFFFFFF
FFFFFFFFFF
FFFFFFFFFF
ENDCHAR
STARTCHAR 0080
ENCODING 128
SWIDTH 528 0
DWIDTH 47 0
BBX 40 53 0 0
BITMAP
FFFFFFFFFF
FFFFFFFFFF
FFFFFFFFFF
FFFFFFFFFF
FFFFFFFFFF
FFFFFFFFFF
FFFFFFFFFF
FFFFFFFFFF
FFFFFFFFFF
FFFFFFFFFF
FFFFFFFFFF
FFFFFFFFFF
FFFFFFFFFF
FFFFFFFFFF
FFFFFFFFFF
FFFFFFFFFF
FFFFFFFFFF
FFFFFFFFFF
FFFFFFFFFF
FFFFFFFFFF
FFFFFFFFFF
FFFFFFFFFF
FFFFFFFFFF
FFFFFFFFFF
FFFFFFFFFF
FFFFFFFFFF
FFFFFFFFFF
FFFFFFFFFF
FFFFFFFFFF
FFFFFFFFFF
FFFFFFFFFF
FFFFFFFFFF
FFFFFFFFFF
FFFFFFFFFF
FFFFFFFFFF
FFFFFFFFFF
FFFFFFFFFF
FFFFFFFFFF
FFFFFFFFFF
FFFFFFFFFF
FFFFFFFFFF
FFFFFFFFFF
FFFFFFFFFF
FFFFFFFFFF
FFFFFFFFFF
FFFFFFFFFF
FFFFFFFFFF
FFFFFFFFFF
FFFFFFFFFF
FFFFFFFFFF
FFFFFFFFFF
FFFFFFFFFF
FFFFFFFFFF
ENDCHAR
STARTCHAR 0081
ENCODING 129
SWIDTH 528 0
DWIDTH 47 0
BBX 40 53 0 0
BITMAP
FFFFFFFFFF
FFFFFFFFFF
FFFFFFFFFF
FFFFFFFFFF
FFFFFFFFFF
FFFFFFFFFF
FFFFFFFFFF
FFFFFFFFFF
FFFFFFFFFF
FFFFFFFFFF
FFFFFFFFFF
FFFFFFFFFF
FFFFFFFFFF
FFFFFFFFFF
FFFFFFFFFF
FFFFFFFFFF
FFFFFFFFFF
FFFFFFFFFF
FFFFFFFFFF
FFFFFFFFFF
FFFFFFFFFF
FFFFFFFFFF
FFFFFFFFFF
FFFFFFFFFF
FFFFFFFFFF
FFFFFFFFFF
FFFFFFFFFF
FFFFFFFFFF
FFFFFFFFFF
FFFFFFFFFF
FFFFFFFFFF
FFFFFFFFFF
FFFFFFFFFF
FFFFFFFFFF
FFFFFFFFFF
FFFFFFFFFF
FFFFFFFFFF
FFFFFFFFFF
FFFFFFFFFF
FFFFFFFFFF
FFFFFFFFFF
FFFFFFFFFF
FFFFFFFFFF
FFFFFFFFFF
FFFFFFFFFF
FFFFFFFFFF
FFFFFFFFFF
FFFFFFFFFF
FFFFFFFFFF
FFFFFFFFFF
FFFFFFFFFF
FFFFFFFFFF
FFFFFFFFFF
ENDCHAR
STARTCHAR 008D
ENCODING 141
SWIDTH 528 0
DWIDTH 47 0
BBX 40 53 0 0
BITMAP
FFFFFFFFFF
FFFFFFFFFF
FFFFFFFFFF
FFFFFFFFFF
FFFFFFFFFF
FFFFFFFFFF
FFFFFFFFFF
FFFFFFFFFF
FFFFFFFFFF
FFFFFFFFFF
FFFFFFFFFF
FFFFFFFFFF
FFFFFFFFFF
FFFFFFFFFF
FFFFFFFFFF
FFFFFFFFFF
FFFFFFFFFF
FFFFFFFFFF
FFFFFFFFFF
FFFFFFFFFF
FFFFFFFFFF
FFFFFFFFFF
FFFFFFFFFF
FFFFFFFFFF
FFFFFFFFFF
FFFFFFFFFF
FFFFFFFFFF
FFFFFFFFFF
FFFFFFFFFF
FFFFFFFFFF
FFFFFFFFFF
FFFFFFFFFF
FFFFFFFFFF
FFFFFFFFFF
FFFFFFFFFF
FFFFFFFFFF
FFFFFFFFFF
FFFFFFFFFF
FFFFFFFFFF
FFFFFFFFFF
FFFFFFFFFF
FFFFFFFFFF
FFFFFFFFFF
FFFFFFFFFF
FFFFFFFFFF
FFFFFFFFFF
FFFFFFFFFF
FFFFFFFFFF
FFFFFFFFFF
FFFFFFFFFF
FFFFFFFFFF
FFFFFFFFFF
FFFFFFFFFF
ENDCHAR
STARTCHAR 008E
ENCODING 142
SWIDTH 528 0
DWIDTH 47 0
BBX 40 53 0 0
BITMAP
FFFFFFFFFF
FFFFFFFFFF
FFFFFFFFFF
FFFFFFFFFF
FFFFFFFFFF
FFFFFFFFFF
FFFFFFFFFF
FFFFFFFFFF
FFFFFFFFFF
FFFFFFFFFF
FFFFFFFFFF
FFFFFFFFFF
FFFFFFFFFF
FFFFFFFFFF
FFFFFFFFFF
FFFFFFFFFF
FFFFFFFFFF
FFFFFFFFFF
FFFFFFFFFF
FFFFFFFFFF
FFFFFFFFFF
FFFFFFFFFF
FFFFFFFFFF
FFFFFFFFFF
FFFFFFFFFF
FFFFFFFFFF
FFFFFFFFFF
FFFFFFFFFF
FFFFFFFFFF
FFFFFFFFFF
FFFFFFFFFF
FFFFFFFFFF
FFFFFFFFFF
FFFFFFFFFF
FFFFFFFFFF
FFFFFFFFFF
FFFFFFFFFF
FFFFFFFFFF
FFFFFFFFFF
FFFFFFFFFF
FFFFFFFFFF
FFFFFFFFFF
FFFFFFFFFF
FFFFFFFFFF
FFFFFFFFFF
FFFFFFFFFF
FFFFFFFFFF
FFFFFFFFFF
FFFFFFFFFF
FFFFFFFFFF
FFFFFFFFFF
FFFFFFFFFF
FFFFFFFFFF
ENDCHAR
STARTCHAR 008F
ENCODING 143
SWIDTH 528 0
DWIDTH 47 0
BBX 40 53 0 0
BITMAP
FFFFFFFFFF
FFFFFFFFFF
FFFFFFFFFF
FFFFFFFFFF
FFFFFFFFFF
FFFFFFFFFF
FFFFFFFFFF
FFFFFFFFFF
FFFFFFFFFF
FFFFFFFFFF
FFFFFFFFFF
FFFFFFFFFF
FFFFFFFFFF
FFFFFFFFFF
FFFFFFFFFF
FFFFFFFFFF
FFFFFFFFFF
FFFFFFFFFF
FFFFFFFFFF
FFFFFFFFFF
FFFFFFFFFF
FFFFFFFFFF
FFFFFFFFFF
FFFFFFFFFF
FFFFFFFFFF
FFFFFFFFFF
FFFFFFFFFF
FFFFFFFFFF
FFFFFFFFFF
FFFFFFFFFF
FFFFFFFFFF
FFFFFFFFFF
FFFFFFFFFF
FFFFFFFFFF
FFFFFFFFFF
FFFFFFFFFF
FFFFFFFFFF
FFFFFFFFFF
FFFFFFFFFF
FFFFFFFFFF
FFFFFFFFFF
FFFFFFFFFF
FFFFFFFFFF
FFFFFFFFFF
FFFFFFFFFF
FFFFFFFFFF
FFFFFFFFFF
FFFFFFFFFF
FFFFFFFFFF
FFFFFFFFFF
FFFFFFFFFF
FFFFFFFFFF
FFFFFFFFFF
ENDCHAR
STARTCHAR 0090
ENCODING 144
SWIDTH 528 0
DWIDTH 47 0
BBX 40 53 0 0
BITMAP
FFFFFFFFFF
FFFFFFFFFF
FFFFFFFFFF
FFFFFFFFFF
FFFFFFFFFF
FFFFFFFFFF
FFFFFFFFFF
FFFFFFFFFF
FFFFFFFFFF
FFFFFFFFFF
FFFFFFFFFF
FFFFFFFFFF
FFFFFFFFFF
FFFFFFFFFF
FFFFFFFFFF
FFFFFFFFFF
FFFFFFFFFF
FFFFFFFFFF
FFFFFFFFFF
FFFFFFFFFF
FFFFFFFFFF
FFFFFFFFFF
FFFFFFFFFF
FFFFFFFFFF
FFFFFFFFFF
FFFFFFFFFF
FFFFFFFFFF
FFFFFFFFFF
FFFFFFFFFF
FFFFFFFFFF
FFFFFFFFFF
FFFFFFFFFF
FFFFFFFFFF
FFFFFFFFFF
FFFFFFFFFF
FFFFFFFFFF
FFFFFFFFFF
FFFFFFFFFF
FFFFFFFFFF
FFFFFFFFFF
FFFFFFFFFF
FFFFFFFFFF
FFFFFFFFFF
FFFFFFFFFF
FFFFFFFFFF
FFFFFFFFFF
FFFFFFFFFF
FFFFFFFFFF
FFFFFFFFFF
FFFFFFFFFF
FFFFFFFFFF
FFFFFFFFFF
FFFFFFFFFF
ENDCHAR
STARTCHAR 009D
ENCODING 157
SWIDTH 528 0
DWIDTH 47 0
BBX 40 53 0 0
BITMAP
FFFFFFFFFF
FFFFFFFFFF
FFFFFFFFFF
FFFFFFFFFF
FFFFFFFFFF
FFFFFFFFFF
FFFFFFFFFF
FFFFFFFFFF
FFFFFFFFFF
FFFFFFFFFF
FFFFFFFFFF
FFFFFFFFFF
FFFFFFFFFF
FFFFFFFFFF
FFFFFFFFFF
FFFFFFFFFF
FFFFFFFFFF
FFFFFFFFFF
FFFFFFFFFF
FFFFFFFFFF
FFFFFFFFFF
FFFFFFFFFF
FFFFFFFFFF
FFFFFFFFFF
FFFFFFFFFF
FFFFFFFFFF
FFFFFFFFFF
FFFFFFFFFF
FFFFFFFFFF
FFFFFFFFFF
FFFFFFFFFF
FFFFFFFFFF
FFFFFFFFFF
FFFFFFFFFF
FFFFFFFFFF
FFFFFFFFFF
FFFFFFFFFF
FFFFFFFFFF
FFFFFFFFFF
FFFFFFFFFF
FFFFFFFFFF
FFFFFFFFFF
FFFFFFFFFF
FFFFFFFFFF
FFFFFFFFFF
FFFFFFFFFF
FFFFFFFFFF
FFFFFFFFFF
FFFFFFFFFF
FFFFFFFFFF
FFFFFFFFFF
FFFFFFFFFF
FFFFFFFFFF
ENDCHAR
STARTCHAR 009E
ENCODING 158
SWIDTH 528 0
DWIDTH 47 0
BBX 40 53 0 0
BITMAP
FFFFFFFFFF
FFFFFFFFFF
FFFFFFFFFF
FFFFFFFFFF
FFFFFFFFFF
FFFFFFFFFF
FFFFFFFFFF
FFFFFFFFFF
FFFFFFFFFF
FFFFFFFFFF
FFFFFFFFFF
FFFFFFFFFF
FFFFFFFFFF
FFFFFFFFFF
FFFFFFFFFF
FFFFFFFFFF
FFFFFFFFFF
FFFFFFFFFF
FFFFFFFFFF
FFFFFFFFFF
FFFFFFFFFF
FFFFFFFFFF
FFFFFFFFFF
FFFFFFFFFF
FFFFFFFFFF
FFFFFFFFFF
FFFFFFFFFF
FFFFFFFFFF
FFFFFFFFFF
FFFFFFFFFF
FFFFFFFFFF
FFFFFFFFFF
FFFFFFFFFF
FFFFFFFFFF
FFFFFFFFFF
FFFFFFFFFF
FFFFFFFFFF
FFFFFFFFFF
FFFFFFFFFF
FFFFFFFFFF
FFFFFFFFFF
FFFFFFFFFF
FFFFFFFFFF
FFFFFFFFFF
FFFFFFFFFF
FFFFFFFFFF
FFFFFFFFFF
FFFFFFFFFF
FFFFFFFFFF
FFFFFFFFFF
FFFFFFFFFF
FFFFFFFFFF
FFFFFFFFFF
ENDCHAR
STARTCHAR 00A0
ENCODING 160
SWIDTH 528 0
DWIDTH 47 0
BBX 0 0 0 0
BITMAP
ENDCHAR
STARTCHAR 00A1
ENCODING 161
SWIDTH 225 0
DWIDTH 20 0
BBX 13 53 0 0
BITMAP
FFF8
FFF8
FFF8
FFF8
FFF8
FFF8
FFF8
0000
0000
0000
0000
0000
0000
FFF8
FFF8
FFF8
FFF8
FFF8
FFF8
FFF8
FFF8
FFF8
FFF8
FFF8
FFF8
FFF8
FFF8
FFF8
FFF8
FFF8
FFF8
FFF8
FFF8
FFF8
FFF8
FFF8
FFF8
FFF8
FFF8
FFF8
FFF8
FFF8
FFF8
FFF8
FFF8
FFF8
FFF8
FFF8
FFF8
FFF8
FFF8
FFF8
FFF8
ENDCHAR
STARTCHAR 00A2
ENCODING 162
SWIDTH 528 0
DWIDTH 47 0
BBX 40 60 0 -13
BITMAP
00000FE000
00000FE000
00000FE000
00000FE000
00000FE000
00000FE000
00000FE000
0007FFE000
0007FFE000
0007FFE000
0007FFE000
0007FFE000
0007FFE000
0007FFE000
03FFFFFF80
03FFFFFF80
03FFFFFF80
03FFFFFF80
03FFFFFF80
03FFFFFF80
FFF8001FFF
FFF8001FFF
FFF8001FFF
FFF8001FFF
FFF8001FFF
FFF8001FFF
FFF8001FFF
FFF8000000
FFF8000000
FFF8000000
FFF8000000
FFF8000000
FFF8000000
FFF8001FFF
FFF8001FFF
FFF8001FFF
FFF8001FFF
FFF8001FFF
FFF8001FFF
FFF8001FFF
03FFFFFF80
03FFFFFF80
03FFFFFF80
03FFFFFF80
03FFFFFF80
03FFFFFF80
03FFFFFF80
0007FFE000
0007FFE000
0007FFE000
0007FFE000
0007FFE000
0007FFE000
0007F00000
0007F00000
0007F00000
0007F00000
0007F00000
0007F00000
0007F00000
ENDCHAR
STARTCHAR 00A3
ENCODING 163
SWIDTH 607 0
DWIDTH 54 0
BBX 47 53 0 0
BITMAP
0007FFFFFF00
0007FFFFFF00
0007FFFFFF00
0007FFFFFF00
0007FFFFFF00
0007FFFFFF00
0007FFFFFF00
01FFF0003FFE
01FFF0003FFE
01FFF0003FFE
01FFF0003FFE
01FFF0003FFE
01FFF0003FFE
01FFF0003FFE
01FFF0000000
01FFF0000000
01FFF0000000
01FFF0000000
01FFF0000000
01FFF0000000
FFFFFFE00000
FFFFFFE00000
FFFFFFE00000
FFFFFFE00000
FFFFFFE00000
FFFFFFE00000
FFFFFFE00000
01FFF0000000
01FFF0000000
01FFF0000000
01FFF0000000
01FFF0000000
01FFF0000000
01FFF0000000
01FFF0000000
01FFF0000000
01FFF0000000
01FFF0000000
01FFF0000000
01FFF0000000
01FFF0003FFE
01FFF0003FFE
01FFF0003FFE
01FFF0003FFE
01FFF0003FFE
01FFF0003FFE
FFF80FFFFF00
FFF80FFFFF00
FFF80FFFFF00
FFF80FFFFF00
FFF80FFFFF00
FFF80FFFFF00
FFF80FFFFF00
ENDCHAR
STARTCHAR 00A4
ENCODING 164
SWIDTH 450 0
DWIDTH 40 0
BBX 33 33 0 13
BITMAP
FE00001F80
FE00001F80
FE00001F80
FE00001F80
FE00001F80
FE00001F80
01FFFFE000
01FFFFE000
01FFFFE000
01FFFFE000
01FFFFE000
01FFFFE000
01FFFFE000
01F80FE000
01F80FE000
01F80FE000
01F80FE000
01F80FE000
01F80FE000
01F80FE000
01FFFFE000
01FFFFE000
01FFFFE000
01FFFFE000
01FFFFE000
01FFFFE000
FE00001F80
FE00001F80
FE00001F80
FE00001F80
FE00001F80
FE00001F80
FE00001F80
ENDCHAR
STARTCHAR 00A5
ENCODING 165
SWIDTH 528 0
DWIDTH 47 0
BBX 40 60 0 -7
BITMAP
FFF8001FFF
FFF8001FFF
FFF8001FFF
FFF8001FFF
FFF8001FFF
FFF8001FFF
FFF8001FFF
FFF8001FFF
FFF8001FFF
FFF8001FFF
FFF8001FFF
FFF8001FFF
FFF8001FFF
FFF8001FFF
FFF8001FFF
FFF8001FFF
FFF8001FFF
FFF8001FFF
FFF8001FFF
FFF8001FFF
03FFFFFF80
03FFFFFF80
03FFFFFF80
03FFFFFF80
03FFFFFF80
03FFFFFF80
03FFFFFF80
0003FFE000
0003FFE000
0003FFE000
0003FFE000
0003FFE000
0003FFE000
FFFFFFFFFF
FFFFFFFFFF
FFFFFFFFFF
FFFFFFFFFF
FFFFFFFFFF
FFFFFFFFFF
FFFFFFFFFF
0003FFE000
0003FFE000
0003FFE000
0003FFE000
0003FFE000
0003FFE000
FFFFFFFFFF
FFFFFFFFFF
FFFFFFFFFF
FFFFFFFFFF
FFFFFFFFFF
FFFFFFFFFF
FFFFFFFFFF
0003FFE000
0003FFE000
0003FFE000
0003FFE000
0003FFE000
0003FFE000
0003FFE000
ENDCHAR
STARTCHAR 00A6
ENCODING 166
SWIDTH 225 0
DWIDTH 20 0
BBX 13 79 0 -13
BITMAP
FFF8
FFF8
FFF8
FFF8
FFF8
FFF8
FFF8
FFF8
FFF8
FFF8
FFF8
FFF8
FFF8
FFF8
FFF8
FFF8
FFF8
FFF8
FFF8
FFF8
FFF8
FFF8
FFF8
FFF8
FFF8
FFF8
FFF8
FFF8
FFF8
FFF8
FFF8
FFF8
FFF8
0000
0000
0000
0000
0000
0000
0000
0000
0000
0000
0000
0000
0000
FFF8
FFF8
FFF8
FFF8
FFF8
FFF8
FFF8
FFF8
FFF8
FFF8
FFF8
FFF8
FFF8
FFF8
FFF8
FFF8
FFF8
FFF8
FFF8
FFF8
FFF8
FFF8
FFF8
FFF8
FFF8
FFF8
FFF8
FFF8
FFF8
FFF8
FFF8
FFF8
FFF8
ENDCHAR
STARTCHAR 00A7
ENCODING 167
SWIDTH 528 0
DWIDTH 47 0
BBX 40 79 0 -13
BITMAP
01FFFFFF80
01FFFFFF80
01FFFFFF80
01FFFFFF80
01FFFFFF80
01FFFFFF80
FFF8001FFF
FFF8001FFF
FFF8001FFF
FFF8001FFF
FFF8001FFF
FFF8001FFF
FFF8001FFF
FFF8000000
FFF8000000
FFF8000000
FFF8000000
FFF8000000
FFF8000000
FFF80FFF80
FFF80FFF80
FFF80FFF80
FFF80FFF80
FFF80FFF80
FFF80FFF80
FFF80FFF80
01FFF01FFF
01FFF01FFF
01FFF01FFF
01FFF01FFF
01FFF01FFF
01FFF01FFF
01FFF01FFF
FFF8001FFF
FFF8001FFF
FFF8001FFF
FFF8001FFF
FFF8001FFF
FFF8001FFF
FFF8001FFF
FFF8001FFF
FFF8001FFF
FFF8001FFF
FFF8001FFF
FFF8001FFF
FFF8001FFF
FFF80FFF80
FFF80FFF80
FFF80FFF80
FFF80FFF80
FFF80FFF80
FFF80FFF80
FFFFFFFFFF
01FFF01FFF
01FFF01FFF
01FFF01FFF
01FFF01FFF
01FFF01FFF
01FFF01FFF
0000001FFF
0000001FFF
0000001FFF
0000001FFF
0000001FFF
0000001FFF
0000001FFF
FFF8001FFF
FFF8001FFF
FFF8001FFF
FFF8001FFF
FFF8001FFF
FFF8001FFF
01FFFFFF80
01FFFFFF80
01FFFFFF80
01FFFFFF80
01FFFFFF80
01FFFFFF80
01FFFFFF80
ENDCHAR
STARTCHAR 00A8
ENCODING 168
SWIDTH 528 0
DWIDTH 47 0
BBX 40 7 0 59
BITMAP
FFF8001FFF
FFF8001FFF
FFF8001FFF
FFF8001FFF
FFF8001FFF
FFF8001FFF
FFF8001FFF
ENDCHAR
STARTCHAR 00A9
ENCODING 169
SWIDTH 753 0
DWIDTH 67 0
BBX 60 53 0 0
BITMAP
03FFFFFFFFFFF800
03FFFFFFFFFFF800
03FFFFFFFFFFF800
03FFFFFFFFFFF800
03FFFFFFFFFFF800
03FFFFFFFFFFF800
03FFFFFFFFFFF800
FFF800000001FFF0
FFF800000001FFF0
FFF800000001FFF0
FFF800000001FFF0
FFF800000001FFF0
FFF800000001FFF0
FFF80FFFFF01FFF0
FFF80FFFFF01FFF0
FFF80FFFFF01FFF0
FFF80FFFFF01FFF0
FFF80FFFFF01FFF0
FFF80FFFFF01FFF0
FFF80FFFFF01FFF0
FFF80FE00001FFF0
FFF80FE00001FFF0
FFF80FE00001FFF0
FFF80FE00001FFF0
FFF80FE00001FFF0
FFF80FE00001FFF0
FFF80FE00001FFF0
FFF80FE00001FFF0
FFF80FE00001FFF0
FFF80FE00001FFF0
FFF80FE00001FFF0
FFF80FE00001FFF0
FFF80FE00001FFF0
FFF80FFFFF01FFF0
FFF80FFFFF01FFF0
FFF80FFFFF01FFF0
FFF80FFFFF01FFF0
FFF80FFFFF01FFF0
FFF80FFFFF01FFF0
FFF80FFFFF01FFF0
FFF800000001FFF0
FFF800000001FFF0
FFF800000001FFF0
FFF800000001FFF0
FFF800000001FFF0
FFF800000001FFF0
03FFFFFFFFFFF800
03FFFFFFFFFFF800
03FFFFFFFFFFF800
03FFFFFFFFFFF800
03FFFFFFFFFFF800
03FFFFFFFFFFF800
03FFFFFFFFFFF800
ENDCHAR
STARTCHAR 00AA
ENCODING 170
SWIDTH 303 0
DWIDTH 27 0
BBX 20 34 0 33
BITMAP
FFFFF0
FFFFF0
FFFFF0
FFFFF0
FFFFF0
FFFFF0
FFFFF0
0007F0
0007F0
0007F0
0007F0
0007F0
0007F0
0007F0
FFFFF0
FFFFF0
FFFFF0
FFFFF0
FFFFF0
FFFFF0
FFFFF0
FE07F0
FE07F0
FE07F0
FE07F0
FE07F0
FE07F0
FFFFF0
FFFFF0
FFFFF0
FFFFF0
FFFFF0
FFFFF0
FFFFF0
ENDCHAR
STARTCHAR 00AB
ENCODING 171
SWIDTH 528 0
DWIDTH 47 0
BBX 40 20 0 20
BITMAP
01FFF01FFF
01FFF01FFF
01FFF01FFF
01FFF01FFF
01FFF01FFF
01FFF01FFF
01FFF01FFF
FFF80FFF80
FFF80FFF80
FFF80FFF80
FFF80FFF80
FFF80FFF80
FFF80FFF80
FFFFFFFFFF
01FFF01FFF
01FFF01FFF
01FFF01FFF
01FFF01FFF
01FFF01FFF
01FFF01FFF
ENDCHAR
STARTCHAR 00AC
ENCODING 172
SWIDTH 450 0
DWIDTH 40 0
BBX 33 13 0 20
BITMAP
FFFFFFFF80
FFFFFFFF80
FFFFFFFF80
FFFFFFFF80
FFFFFFFF80
FFFFFFFF80
FFFFFFFF80
00000FFF80
00000FFF80
00000FFF80
00000FFF80
00000FFF80
00000FFF80
ENDCHAR
STARTCHAR 00AD
ENCODING 173
SWIDTH 225 0
DWIDTH 20 0
BBX 13 7 0 26
BITMAP
FFF8
FFF8
FFF8
FFF8
FFF8
FFF8
FFF8
ENDCHAR
STARTCHAR 00AE
ENCODING 174
SWIDTH 753 0
DWIDTH 67 0
BBX 60 53 0 0
BITMAP
03FFFFFFFFFFF800
03FFFFFFFFFFF800
03FFFFFFFFFFF800
03FFFFFFFFFFF800
03FFFFFFFFFFF800
03FFFFFFFFFFF800
03FFFFFFFFFFF800
FFF800000001FFF0
FFF800000001FFF0
FFF800000001FFF0
FFF800000001FFF0
FFF800000001FFF0
FFF800000001FFF0
FFF80FFFFF01FFF0
FFF80FFFFF01FFF0
FFF80FFFFF01FFF0
FFF80FFFFF01FFF0
FFF80FFFFF01FFF0
FFF80FFFFF01FFF0
FFF80FFFFF01FFF0
FFF80FE07F01FFF0
FFF80FE07F01FFF0
FFF80FE07F01FFF0
FFF80FE07F01FFF0
FFF80FE07F01FFF0
FFF80FE07F01FFF0
FFF80FFF8001FFF0
FFF80FFF8001FFF0
FFF80FFF8001FFF0
FFF80FFF8001FFF0
FFF80FFF8001FFF0
FFF80FFF8001FFF0
FFF80FFF8001FFF0
FFF80FE07F01FFF0
FFF80FE07F01FFF0
FFF80FE07F01FFF0
FFF80FE07F01FFF0
FFF80FE07F01FFF0
FFF80FE07F01FFF0
FFF80FE07F01FFF0
FFF800000001FFF0
FFF800000001FFF0
FFF800000001FFF0
FFF800000001FFF0
FFF800000001FFF0
FFF800000001FFF0
03FFFFFFFFFFF800
03FFFFFFFFFFF800
03FFFFFFFFFFF800
03FFFFFFFFFFF800
03FFFFFFFFFFF800
03FFFFFFFFFFF800
03FFFFFFFFFFF800
ENDCHAR
STARTCHAR 00AF
ENCODING 175
SWIDTH 450 0
DWIDTH 40 0
BBX 33 7 0 59
BITMAP
FFFFFFFF80
FFFFFFFF80
FFFFFFFF80
FFFFFFFF80
FFFFFFFF80
FFFFFFFF80
FFFFFFFF80
ENDCHAR
STARTCHAR 00B0
ENCODING 176
SWIDTH 303 0
DWIDTH 27 0
BBX 20 20 0 46
BITMAP
FFFFF0
FFFFF0
FFFFF0
FFFFF0
FFFFF0
FFFFF0
FFFFF0
FE07F0
FE07F0
FE07F0
FE07F0
FE07F0
FE07F0
FFFFF0
FFFFF0
FFFFF0
FFFFF0
FFFFF0
FFFFF0
FFFFF0
ENDCHAR
STARTCHAR 00B1
ENCODING 177
SWIDTH 450 0
DWIDTH 40 0
BBX 33 46 0 7
BITMAP
0007F00000
0007F00000
0007F00000
0007F00000
0007F00000
0007F00000
0007F00000
0007F00000
0007F00000
0007F00000
0007F00000
0007F00000
0007F00000
FFFFFFFF80
FFFFFFFF80
FFFFFFFF80
FFFFFFFF80
FFFFFFFF80
FFFFFFFF80
FFFFFFFF80
0007F00000
0007F00000
0007F00000
0007F00000
0007F00000
0007F00000
0007F00000
0007F00000
0007F00000
0007F00000
0007F00000
0007F00000
0007F00000
0000000000
0000000000
0000000000
0000000000
0000000000
0000000000
FFFFFFFF80
FFFFFFFF80
FFFFFFFF80
FFFFFFFF80
FFFFFFFF80
FFFFFFFF80
FFFFFFFF80
ENDCHAR
STARTCHAR 00B2
ENCODING 178
SWIDTH 303 0
DWIDTH 27 0
BBX 20 34 0 33
BITMAP
FFFFF0
FFFFF0
FFFFF0
FFFFF0
FFFFF0
FFFFF0
FFFFF0
0007F0
0007F0
0007F0
0007F0
0007F0
0007F0
0007F0
FFFFF0
FFFFF0
FFFFF0
FFFFF0
FFFFF0
FFFFF0
FFFFF0
FE0000
FE0000
FE0000
FE0000
FE0000
FE0000
FFFFF0
FFFFF0
FFFFF0
FFFFF0
FFFFF0
FFFFF0
FFFFF0
ENDCHAR
STARTCHAR 00B3
ENCODING 179
SWIDTH 303 0
DWIDTH 27 0
BBX 20 34 1 33
BITMAP
FFFFF0
FFFFF0
FFFFF0
FFFFF0
FFFFF0
FFFFF0
FFFFF0
0007F0
0007F0
0007F0
0007F0
0007F0
0007F0
0007F0
03FFF0
03FFF0
03FFF0
03FFF0
03FFF0
03FFF0
03FFF0
0007F0
0007F0
0007F0
0007F0
0007F0
0007F0
FFFFF0
FFFFF0
FFFFF0
FFFFF0
FFFFF0
FFFFF0
FFFFF0
ENDCHAR
STARTCHAR 00B4
ENCODING 180
SWIDTH 225 0
DWIDTH 20 0
BBX 13 13 0 53
BITMAP
01F8
01F8
01F8
01F8
01F8
01F8
FE00
FE00
FE00
FE00
FE00
FE00
FE00
ENDCHAR
STARTCHAR 00B5
ENCODING 181
SWIDTH 528 0
DWIDTH 47 0
BBX 40 46 0 -13
BITMAP
FFF8001FFF
FFF8001FFF
FFF8001FFF
FFF8001FFF
FFF8001FFF
FFF8001FFF
FFF8001FFF
FFF8001FFF
FFF8001FFF
FFF8001FFF
FFF8001FFF
FFF8001FFF
FFF8001FFF
FFF8001FFF
FFF8001FFF
FFF8001FFF
FFF8001FFF
FFF8001FFF
FFF8001FFF
FFFFF01FFF
FFFFF01FFF
FFFFF01FFF
FFFFF01FFF
FFFFF01FFF
FFFFF01FFF
FFFFF01FFF
FFF80FFF80
FFF80FFF80
FFF80FFF80
FFF80FFF80
FFF80FFF80
FFF80FFF80
FFF80FFF80
FFF8000000
FFF8000000
FFF8000000
FFF8000000
FFF8000000
FFF8000000
FFF8000000
FFF8000000
FFF8000000
FFF8000000
FFF8000000
FFF8000000
FFF8000000
ENDCHAR
STARTCHAR 00B6
ENCODING 182
SWIDTH 528 0
DWIDTH 47 0
BBX 40 53 0 0
BITMAP
01FFFFFFFF
01FFFFFFFF
01FFFFFFFF
01FFFFFFFF
01FFFFFFFF
01FFFFFFFF
01FFFFFFFF
FFFFFFE07F
FFFFFFE07F
FFFFFFE07F
FFFFFFE07F
FFFFFFE07F
FFFFFFE07F
FFFFFFE07F
FFFFFFE07F
FFFFFFE07F
FFFFFFE07F
FFFFFFE07F
FFFFFFE07F
FFFFFFE07F
01FFFFE07F
01FFFFE07F
01FFFFE07F
01FFFFE07F
01FFFFE07F
01FFFFE07F
01FFFFE07F
00000FE07F
00000FE07F
00000FE07F
00000FE07F
00000FE07F
00000FE07F
00000FE07F
00000FE07F
00000FE07F
00000FE07F
00000FE07F
00000FE07F
00000FE07F
00000FE07F
00000FE07F
00000FE07F
00000FE07F
00000FE07F
00000FE07F
00000FE07F
00000FE07F
00000FE07F
00000FE07F
00000FE07F
00000FE07F
00000FE07F
ENDCHAR
STARTCHAR 00B7
ENCODING 183
SWIDTH 303 0
DWIDTH 27 0
BBX 20 20 0 20
BITMAP
FFFFF0
FFFFF0
FFFFF0
FFFFF0
FFFFF0
FFFFF0
FFFFF0
FFFFF0
FFFFF0
FFFFF0
FFFFF0
FFFFF0
FFFFF0
FFFFF0
FFFFF0
FFFFF0
FFFFF0
FFFFF0
FFFFF0
FFFFF0
ENDCHAR
STARTCHAR 00B8
ENCODING 184
SWIDTH 236 0
DWIDTH 21 0
BBX 13 13 1 -13
BITMAP
03F8
03F8
03F8
03F8
03F8
03F8
FFF8
FFF8
FFF8
FFF8
FFF8
FFF8
FFF8
ENDCHAR
STARTCHAR 00B9
ENCODING 185
SWIDTH 225 0
DWIDTH 20 0
BBX 13 34 1 33
BITMAP
FFF8
FFF8
FFF8
FFF8
FFF8
FFF8
FFF8
03F8
03F8
03F8
03F8
03F8
03F8
03F8
03F8
03F8
03F8
03F8
03F8
03F8
03F8
03F8
03F8
03F8
03F8
03F8
03F8
03F8
03F8
03F8
03F8
03F8
03F8
03F8
ENDCHAR
STARTCHAR 00BA
ENCODING 186
SWIDTH 303 0
DWIDTH 27 0
BBX 20 34 0 33
BITMAP
FFFFF0
FFFFF0
FFFFF0
FFFFF0
FFFFF0
FFFFF0
FFFFF0
FE07F0
FE07F0
FE07F0
FE07F0
FE07F0
FE07F0
FE07F0
FE07F0
FE07F0
FE07F0
FE07F0
FE07F0
FE07F0
FE07F0
FE07F0
FE07F0
FE07F0
FE07F0
FE07F0
FE07F0
FFFFF0
FFFFF0
FFFFF0
FFFFF0
FFFFF0
FFFFF0
FFFFF0
ENDCHAR
STARTCHAR 00BB
ENCODING 187
SWIDTH 528 0
DWIDTH 47 0
BBX 40 20 0 20
BITMAP
FFF80FFF80
FFF80FFF80
FFF80FFF80
FFF80FFF80
FFF80FFF80
FFF80FFF80
FFF80FFF80
01FFF01FFF
01FFF01FFF
01FFF01FFF
01FFF01FFF
01FFF01FFF
01FFF01FFF
FFFFFFFFFF
FFF80FFF80
FFF80FFF80
FFF80FFF80
FFF80FFF80
FFF80FFF80
FFF80FFF80
ENDCHAR
STARTCHAR 00BC
ENCODING 188
SWIDTH 686 0
DWIDTH 61 0
BBX 53 66 1 -7
BITMAP
FFF80000000000
FFF80000000000
FFF80000000000
FFF80000000000
FFF80000000000
FFF80000000000
03F80000FFFC00
03F80000FFFC00
03F80000FFFC00
03F80000FFFC00
03F80000FFFC00
03F80000FFFC00
03F80000FFFC00
03F8003FFE0000
03F8003FFE0000
03F8003FFE0000
03F8003FFE0000
03F8003FFE0000
03F8003FFE0000
03F8003FFE0000
03F8003FFE0000
03F8003FFE0000
03F8003FFE0000
03F8003FFE0000
03F8003FFE0000
03F8003FFE0000
03F8003FFE0000
00001FFF000000
00001FFF000000
00001FFF000000
00001FFF000000
00001FFF000000
00001FFF000000
00001FFF000000
00001FFF000000
00001FFF000000
00001FFF000000
00001FFF000000
00001FFF000000
00001FC1000000
0007FFC0FE03F8
0007FFC0FE03F8
0007FFC0FE03F8
0007FFC0FE03F8
0007FFC0FE03F8
0007FFC0FE03F8
0007FFC0FE03F8
0007FFC0FE03F8
0007FFC0FE03F8
0007FFC0FE03F8
0007FFC0FE03F8
0007FFC0FE03F8
0007FFC0FE03F8
03FFE000FFFFF8
03FFE000FFFFF8
03FFE000FFFFF8
03FFE000FFFFF8
03FFE000FFFFF8
03FFE000FFFFF8
03FFE000FFFFF8
000000000003F8
000000000003F8
000000000003F8
000000000003F8
000000000003F8
000000000003F8
ENDCHAR
STARTCHAR 00BD
ENCODING 189
SWIDTH 686 0
DWIDTH 61 0
BBX 53 66 1 -7
BITMAP
FFF80000000000
FFF80000000000
FFF80000000000
FFF80000000000
FFF80000000000
FFF80000000000
03F800007FFC00
03F800007FFC00
03F800007FFC00
03F800007FFC00
03F800007FFC00
03F800007FFC00
03F800007FFC00
03F8003FFE0000
03F8003FFE0000
03F8003FFE0000
03F8003FFE0000
03F8003FFE0000
03F8003FFE0000
03F8003FFE0000
03F8003FFE0000
03F8003FFE0000
03F8003FFE0000
03F8003FFE0000
03F8003FFE0000
03F8003FFE0000
03F8003FFE0000
00001FFF000000
00001FFF000000
00001FFF000000
00001FFF000000
00001FFF000000
00001FFF000000
00001FFF000000
00001FFF000000
00001FFF000000
00001FFF000000
00001FFF000000
00001FFF000000
0007FFC0FFFFF8
0007FFC07FFFF8
0007FFC07FFFF8
0007FFC07FFFF8
0007FFC07FFFF8
0007FFC07FFFF8
0007FFC07FFFF8
0007FFC00003F8
0007FFC00003F8
0007FFC00003F8
0007FFC00003F8
0007FFC00003F8
0007FFC00003F8
0007FFC00003F8
03FFE0007FFC00
03FFE0007FFC00
03FFE0007FFC00
03FFE0007FFC00
03FFE0007FFC00
03FFE0007FFC00
000000007FFFF8
000000007FFFF8
000000007FFFF8
000000007FFFF8
000000007FFFF8
000000007FFFF8
000000007FFFF8
ENDCHAR
STARTCHAR 00BE
ENCODING 190
SWIDTH 686 0
DWIDTH 61 0
BBX 53 66 1 -7
BITMAP
FFFFE000000000
FFFFE000000000
FFFFE000000000
FFFFE000000000
FFFFE000000000
FFFFE000000000
03FFE000FFFC00
03FFE000FFFC00
03FFE000FFFC00
03FFE000FFFC00
03FFE000FFFC00
03FFE000FFFC00
03FFE000FFFC00
000FE03FFE0000
000FE03FFE0000
000FE03FFE0000
000FE03FFE0000
000FE03FFE0000
000FE03FFE0000
000FE03FFE0000
FFFFE03FFE0000
FFFFE03FFE0000
FFFFE03FFE0000
FFFFE03FFE0000
FFFFE03FFE0000
FFFFE03FFE0000
FFFFE03FFE0000
00001FFF000000
00001FFF000000
00001FFF000000
00001FFF000000
00001FFF000000
00001FFF000000
00001FFF000000
00001FFF000000
00001FFF000000
00001FFF000000
00001FFF000000
00001FFF000000
00001F81000000
000FFF80FE03F8
000FFF80FE03F8
000FFF80FE03F8
000FFF80FE03F8
000FFF80FE03F8
000FFF80FE03F8
000FFF80FE03F8
000FFF80FE03F8
000FFF80FE03F8
000FFF80FE03F8
000FFF80FE03F8
000FFF80FE03F8
000FFF80FE03F8
03FFE000FFFFF8
03FFE000FFFFF8
03FFE000FFFFF8
03FFE000FFFFF8
03FFE000FFFFF8
03FFE000FFFFF8
03FFE000FFFFF8
000000000003F8
000000000003F8
000000000003F8
000000000003F8
000000000003F8
000000000003F8
ENDCHAR
STARTCHAR 00BF
ENCODING 191
SWIDTH 528 0
DWIDTH 47 0
BBX 40 53 0 0
BITMAP
0003FFE000
0003FFE000
0003FFE000
0003FFE000
0003FFE000
0003FFE000
0003FFE000
0000000000
0000000000
0000000000
0000000000
0000000000
0000000000
0003FFE000
0003FFE000
0003FFE000
0003FFE000
0003FFE000
0003FFE000
0003FFE000
0003FFE000
0003FFE000
0003FFE000
0003FFE000
0003FFE000
0003FFE000
01FFF00000
01FFF00000
01FFF00000
01FFF00000
01FFF00000
01FFF00000
01FFF00000
FFF8000000
FFF8000000
FFF8000000
FFF8000000
FFF8000000
FFF8000000
FFF8000000
FFF8001FFF
FFF8001FFF
FFF8001FFF
FFF8001FFF
FFF8001FFF
FFF8001FFF
01FFFFFFC0
01FFFFFFC0
01FFFFFFC0
01FFFFFFC0
01FFFFFFC0
01FFFFFFC0
01FFFFFFC0
ENDCHAR
STARTCHAR 00C0
ENCODING 192
SWIDTH 528 0
DWIDTH 47 0
BBX 40 66 0 0
BITMAP
0007F00000
0007F00000
0007F00000
0007F00000
0007F00000
0007F00000
0007F00000
00000FE000
00000FE000
00000FE000
00000FE000
00000FE000
00000FE000
03FFFFFF80
03FFFFFF80
03FFFFFF80
03FFFFFF80
03FFFFFF80
03FFFFFF80
03FFFFFF80
FFF8001FFF
FFF8001FFF
FFF8001FFF
FFF8001FFF
FFF8001FFF
FFF8001FFF
FFF8001FFF
FFF8001FFF
FFF8001FFF
FFF8001FFF
FFF8001FFF
FFF8001FFF
FFF8001FFF
FFF80FFFFF
FFF80FFFFF
FFF80FFFFF
FFF80FFFFF
FFF80FFFFF
FFF80FFFFF
FFFFFFFFFF
FFFFF01FFF
FFFFF01FFF
FFFFF01FFF
FFFFF01FFF
FFFFF01FFF
FFFFF01FFF
FFF8001FFF
FFF8001FFF
FFF8001FFF
FFF8001FFF
FFF8001FFF
FFF8001FFF
FFF8001FFF
FFF8001FFF
FFF8001FFF
FFF8001FFF
FFF8001FFF
FFF8001FFF
FFF8001FFF
FFF8001FFF
FFF8001FFF
FFF8001FFF
FFF8001FFF
FFF8001FFF
FFF8001FFF
FFF8001FFF
ENDCHAR
STARTCHAR 00C1
ENCODING 193
SWIDTH 528 0
DWIDTH 47 0
BBX 40 66 0 0
BITMAP
00000FE000
00000FE000
00000FE000
00000FE000
00000FE000
00000FE000
00000FE000
0007F00000
0007F00000
0007F00000
0007F00000
0007F00000
0007F00000
03FFFFFF80
03FFFFFF80
03FFFFFF80
03FFFFFF80
03FFFFFF80
03FFFFFF80
03FFFFFF80
FFF8001FFF
FFF8001FFF
FFF8001FFF
FFF8001FFF
FFF8001FFF
FFF8001FFF
FFF8001FFF
FFF8001FFF
FFF8001FFF
FFF8001FFF
FFF8001FFF
FFF8001FFF
FFF8001FFF
FFF80FFFFF
FFF80FFFFF
FFF80FFFFF
FFF80FFFFF
FFF80FFFFF
FFF80FFFFF
FFFFFFFFFF
FFFFF01FFF
FFFFF01FFF
FFFFF01FFF
FFFFF01FFF
FFFFF01FFF
FFFFF01FFF
FFF8001FFF
FFF8001FFF
FFF8001FFF
FFF8001FFF
FFF8001FFF
FFF8001FFF
FFF8001FFF
FFF8001FFF
FFF8001FFF
FFF8001FFF
FFF8001FFF
FFF8001FFF
FFF8001FFF
FFF8001FFF
FFF8001FFF
FFF8001FFF
FFF8001FFF
FFF8001FFF
FFF8001FFF
FFF8001FFF
ENDCHAR
STARTCHAR 00C2
ENCODING 194
SWIDTH 528 0
DWIDTH 47 0
BBX 40 66 0 0
BITMAP
0003FFE000
0003FFE000
0003FFE000
0003FFE000
0003FFE000
0003FFE000
0003FFE000
03F8001F80
03F8001F80
03F8001F80
03F8001F80
03F8001F80
03F8001F80
03FFFFFF80
03FFFFFF80
03FFFFFF80
03FFFFFF80
03FFFFFF80
03FFFFFF80
03FFFFFF80
FFF8001FFF
FFF8001FFF
FFF8001FFF
FFF8001FFF
FFF8001FFF
FFF8001FFF
FFF8001FFF
FFF8001FFF
FFF8001FFF
FFF8001FFF
FFF8001FFF
FFF8001FFF
FFF8001FFF
FFF80FFFFF
FFF80FFFFF
FFF80FFFFF
FFF80FFFFF
FFF80FFFFF
FFF80FFFFF
FFFFFFFFFF
FFFFF01FFF
FFFFF01FFF
FFFFF01FFF
FFFFF01FFF
FFFFF01FFF
FFFFF01FFF
FFF8001FFF
FFF8001FFF
FFF8001FFF
FFF8001FFF
FFF8001FFF
FFF8001FFF
FFF8001FFF
FFF8001FFF
FFF8001FFF
FFF8001FFF
FFF8001FFF
FFF8001FFF
FFF8001FFF
FFF8001FFF
FFF8001FFF
FFF8001FFF
FFF8001FFF
FFF8001FFF
FFF8001FFF
FFF8001FFF
ENDCHAR
STARTCHAR 00C3
ENCODING 195
SWIDTH 517 0
DWIDTH 46 0
BBX 39 66 0 0
BITMAP
03FFF03F80
03FFF03F80
03FFF03F80
03FFF03F80
03FFF03F80
03FFF03F80
03FFF03F80
03F81FFF80
03F81FFF80
03F81FFF80
03F81FFF80
03F81FFF80
03F81FFF80
03FFFFFF80
03FFFFFF80
03FFFFFF80
03FFFFFF80
03FFFFFF80
03FFFFFF80
03FFFFFF80
FFF8003FFE
FFF8003FFE
FFF8003FFE
FFF8003FFE
FFF8003FFE
FFF8003FFE
FFF8003FFE
FFF8003FFE
FFF8003FFE
FFF8003FFE
FFF8003FFE
FFF8003FFE
FFF8003FFE
FFF81FFFFE
FFF81FFFFE
FFF81FFFFE
FFF81FFFFE
FFF81FFFFE
FFF81FFFFE
FFFFFFFFFE
FFFFF03FFE
FFFFF03FFE
FFFFF03FFE
FFFFF03FFE
FFFFF03FFE
FFFFF03FFE
FFF8003FFE
FFF8003FFE
FFF8003FFE
FFF8003FFE
FFF8003FFE
FFF8003FFE
FFF8003FFE
FFF8003FFE
FFF8003FFE
FFF8003FFE
FFF8003FFE
FFF8003FFE
FFF8003FFE
FFF8003FFE
FFF8003FFE
FFF8003FFE
FFF8003FFE
FFF8003FFE
FFF8003FFE
FFF8003FFE
ENDCHAR
STARTCHAR 00C4
ENCODING 196
SWIDTH 528 0
DWIDTH 47 0
BBX 40 66 0 0
BITMAP
FFF8001FFF
FFF8001FFF
FFF8001FFF
FFF8001FFF
FFF8001FFF
FFF8001FFF
FFF8001FFF
0000000000
0000000000
0000000000
0000000000
0000000000
0000000000
03FFFFFF80
03FFFFFF80
03FFFFFF80
03FFFFFF80
03FFFFFF80
03FFFFFF80
03FFFFFF80
FFF8001FFF
FFF8001FFF
FFF8001FFF
FFF8001FFF
FFF8001FFF
FFF8001FFF
FFF8001FFF
FFF8001FFF
FFF8001FFF
FFF8001FFF
FFF8001FFF
FFF8001FFF
FFF8001FFF
FFF80FFFFF
FFF80FFFFF
FFF80FFFFF
FFF80FFFFF
FFF80FFFFF
FFF80FFFFF
FFFFFFFFFF
FFFFF01FFF
FFFFF01FFF
FFFFF01FFF
FFFFF01FFF
FFFFF01FFF
FFFFF01FFF
FFF8001FFF
FFF8001FFF
FFF8001FFF
FFF8001FFF
FFF8001FFF
FFF8001FFF
FFF8001FFF
FFF8001FFF
FFF8001FFF
FFF8001FFF
FFF8001FFF
FFF8001FFF
FFF8001FFF
FFF8001FFF
FFF8001FFF
FFF8001FFF
FFF8001FFF
FFF8001FFF
FFF8001FFF
FFF8001FFF
ENDCHAR
STARTCHAR 00C5
ENCODING 197
SWIDTH 517 0
DWIDTH 46 0
BBX 39 66 0 0
BITMAP
03FFFFFF80
03FFFFFF80
03FFFFFF80
03FFFFFF80
03FFFFFF80
03FFFFFF80
03FFFFFF80
03F8003F80
03F8003F80
03F8003F80
03F8003F80
03F8003F80
03F8003F80
03FFFFFF80
03FFFFFF80
03FFFFFF80
03FFFFFF80
03FFFFFF80
03FFFFFF80
03FFFFFF80
FFF8003FFE
FFF8003FFE
FFF8003FFE
FFF8003FFE
FFF8003FFE
FFF8003FFE
FFF8003FFE
FFF8003FFE
FFF8003FFE
FFF8003FFE
FFF8003FFE
FFF8003FFE
FFF8003FFE
FFF81FFFFE
FFF81FFFFE
FFF81FFFFE
FFF81FFFFE
FFF81FFFFE
FFF81FFFFE
FFFFFFFFFE
FFFFF03FFE
FFFFF03FFE
FFFFF03FFE
FFFFF03FFE
FFFFF03FFE
FFFFF03FFE
FFF8003FFE
FFF8003FFE
FFF8003FFE
FFF8003FFE
FFF8003FFE
FFF8003FFE
FFF8003FFE
FFF8003FFE
FFF8003FFE
FFF8003FFE
FFF8003FFE
FFF8003FFE
FFF8003FFE
FFF8003FFE
FFF8003FFE
FFF8003FFE
FFF8003FFE
FFF8003FFE
FFF8003FFE
FFF8003FFE
ENDCHAR
STARTCHAR 00C6
ENCODING 198
SWIDTH 832 0
DWIDTH 74 0
BBX 67 53 0 0
BITMAP
01FFFFFFFFFFFFF000
01FFFFFFFFFFFFF000
01FFFFFFFFFFFFF000
01FFFFFFFFFFFFF000
01FFFFFFFFFFFFF000
01FFFFFFFFFFFFF000
01FFFFFFFFFFFFF000
FFF8001FFF0003FFE0
FFF8001FFF0003FFE0
FFF8001FFF0003FFE0
FFF8001FFF0003FFE0
FFF8001FFF0003FFE0
FFF8001FFF0003FFE0
FFF8001FFF0003FFE0
FFF8001FFF00000000
FFF8001FFF00000000
FFF8001FFF00000000
FFF8001FFF00000000
FFF8001FFF00000000
FFF8001FFF00000000
FFF80FFFFFFFF80000
FFF80FFFFFFFF80000
FFF80FFFFFFFF80000
FFF80FFFFFFFF80000
FFF80FFFFFFFF80000
FFF80FFFFFFFF80000
FFFFFFFFFFFFF80000
FFFFF01FFF00000000
FFFFF01FFF00000000
FFFFF01FFF00000000
FFFFF01FFF00000000
FFFFF01FFF00000000
FFFFF01FFF00000000
FFF8001FFF00000000
FFF8001FFF00000000
FFF8001FFF00000000
FFF8001FFF00000000
FFF8001FFF00000000
FFF8001FFF00000000
FFF8001FFF00000000
FFF8001FFF0003FFE0
FFF8001FFF0003FFE0
FFF8001FFF0003FFE0
FFF8001FFF0003FFE0
FFF8001FFF0003FFE0
FFF8001FFF0003FFE0
FFF800007FFFFFF000
FFF800007FFFFFF000
FFF800007FFFFFF000
FFF800007FFFFFF000
FFF800007FFFFFF000
FFF800007FFFFFF000
FFF800007FFFFFF000
ENDCHAR
STARTCHAR 00C7
ENCODING 199
SWIDTH 528 0
DWIDTH 47 0
BBX 40 66 0 -13
BITMAP
03FFFFFF80
03FFFFFF80
03FFFFFF80
03FFFFFF80
03FFFFFF80
03FFFFFF80
FFFFFFFFFF
FFF8001FFF
FFF8001FFF
FFF8001FFF
FFF8001FFF
FFF8001FFF
FFF8001FFF
FFF8000000
FFF8000000
FFF8000000
FFF8000000
FFF8000000
FFF8000000
FFF8000000
FFF8000000
FFF8000000
FFF8000000
FFF8000000
FFF8000000
FFF8000000
FFF8000000
FFF8000000
FFF8000000
FFF8000000
FFF8000000
FFF8000000
FFF8000000
FFF8000000
FFF8000000
FFF8000000
FFF8000000
FFF8000000
FFF8000000
FFF8001FFF
FFF8001FFF
FFF8001FFF
FFF8001FFF
FFF8001FFF
FFF8001FFF
FFF8001FFF
03FFFFFF80
03FFFFFF80
03FFFFFF80
03FFFFFF80
03FFFFFF80
03FFFFFF80
03FFFFFF80
00000FE000
00000FE000
00000FE000
00000FE000
00000FE000
00000FE000
0007FFE000
0007FFE000
0007FFE000
0007FFE000
0007FFE000
0007FFE000
0007FFE000
ENDCHAR
STARTCHAR 00C8
ENCODING 200
SWIDTH 528 0
DWIDTH 47 0
BBX 40 66 0 0
BITMAP
0007F00000
0007F00000
0007F00000
0007F00000
0007F00000
0007F00000
0007F00000
00000FE000
00000FE000
00000FE000
00000FE000
00000FE000
00000FE000
03FFFFFF80
03FFFFFF80
03FFFFFF80
03FFFFFF80
03FFFFFF80
03FFFFFF80
03FFFFFF80
FFF8001FFF
FFF8001FFF
FFF8001FFF
FFF8001FFF
FFF8001FFF
FFF8001FFF
FFF8001FFF
FFF8000000
FFF8000000
FFF8000000
FFF8000000
FFF8000000
FFF8000000
FFFFFFE000
FFFFFFE000
FFFFFFE000
FFFFFFE000
FFFFFFE000
FFFFFFE000
FFFFFFE000
FFF8000000
FFF8000000
FFF8000000
FFF8000000
FFF8000000
FFF8000000
FFF8000000
FFF8000000
FFF8000000
FFF8000000
FFF8000000
FFF8000000
FFF8000000
FFF8001FFF
FFF8001FFF
FFF8001FFF
FFF8001FFF
FFF8001FFF
FFF8001FFF
03FFFFFF80
03FFFFFF80
03FFFFFF80
03FFFFFF80
03FFFFFF80
03FFFFFF80
03FFFFFF80
ENDCHAR
STARTCHAR 00C9
ENCODING 201
SWIDTH 528 0
DWIDTH 47 0
BBX 40 66 0 0
BITMAP
00000FE000
00000FE000
00000FE000
00000FE000
00000FE000
00000FE000
00000FE000
0007F00000
0007F00000
0007F00000
0007F00000
0007F00000
0007F00000
03FFFFFF80
03FFFFFF80
03FFFFFF80
03FFFFFF80
03FFFFFF80
03FFFFFF80
03FFFFFF80
FFF8001FFF
FFF8001FFF
FFF8001FFF
FFF8001FFF
FFF8001FFF
FFF8001FFF
FFF8001FFF
FFF8000000
FFF8000000
FFF8000000
FFF8000000
FFF8000000
FFF8000000
FFFFFFE000
FFFFFFE000
FFFFFFE000
FFFFFFE000
FFFFFFE000
FFFFFFE000
FFFFFFE000
FFF8000000
FFF8000000
FFF8000000
FFF8000000
FFF8000000
FFF8000000
FFF8000000
FFF8000000
FFF8000000
FFF8000000
FFF8000000
FFF8000000
FFF8000000
FFF8001FFF
FFF8001FFF
FFF8001FFF
FFF8001FFF
FFF8001FFF
FFF8001FFF
03FFFFFF80
03FFFFFF80
03FFFFFF80
03FFFFFF80
03FFFFFF80
03FFFFFF80
03FFFFFF80
ENDCHAR
STARTCHAR 00CA
ENCODING 202
SWIDTH 528 0
DWIDTH 47 0
BBX 40 66 0 0
BITMAP
0003FFE000
0003FFE000
0003FFE000
0003FFE000
0003FFE000
0003FFE000
0003FFE000
03F8001F80
03F8001F80
03F8001F80
03F8001F80
03F8001F80
03F8001F80
03FFFFFF80
03FFFFFF80
03FFFFFF80
03FFFFFF80
03FFFFFF80
03FFFFFF80
03FFFFFF80
FFF8001FFF
FFF8001FFF
FFF8001FFF
FFF8001FFF
FFF8001FFF
FFF8001FFF
FFF8001FFF
FFF8000000
FFF8000000
FFF8000000
FFF8000000
FFF8000000
FFF8000000
FFFFFFE000
FFFFFFE000
FFFFFFE000
FFFFFFE000
FFFFFFE000
FFFFFFE000
FFFFFFE000
FFF8000000
FFF8000000
FFF8000000
FFF8000000
FFF8000000
FFF8000000
FFF8000000
FFF8000000
FFF8000000
FFF8000000
FFF8000000
FFF8000000
FFF8000000
FFF8001FFF
FFF8001FFF
FFF8001FFF
FFF8001FFF
FFF8001FFF
FFF8001FFF
03FFFFFF80
03FFFFFF80
03FFFFFF80
03FFFFFF80
03FFFFFF80
03FFFFFF80
03FFFFFF80
ENDCHAR
STARTCHAR 00CB
ENCODING 203
SWIDTH 528 0
DWIDTH 47 0
BBX 40 66 0 0
BITMAP
FFF8001FFF
FFF8001FFF
FFF8001FFF
FFF8001FFF
FFF8001FFF
FFF8001FFF
FFF8001FFF
0000000000
0000000000
0000000000
0000000000
0000000000
0000000000
03FFFFFF80
03FFFFFF80
03FFFFFF80
03FFFFFF80
03FFFFFF80
03FFFFFF80
03FFFFFF80
FFF8001FFF
FFF8001FFF
FFF8001FFF
FFF8001FFF
FFF8001FFF
FFF8001FFF
FFF8001FFF
FFF8000000
FFF8000000
FFF8000000
FFF8000000
FFF8000000
FFF8000000
FFFFFFE000
FFFFFFE000
FFFFFFE000
FFFFFFE000
FFFFFFE000
FFFFFFE000
FFFFFFE000
FFF8000000
FFF8000000
FFF8000000
FFF8000000
FFF8000000
FFF8000000
FFF8000000
FFF8000000
FFF8000000
FFF8000000
FFF8000000
FFF8000000
FFF8000000
FFF8001FFF
FFF8001FFF
FFF8001FFF
FFF8001FFF
FFF8001FFF
FFF8001FFF
03FFFFFF80
03FFFFFF80
03FFFFFF80
03FFFFFF80
03FFFFFF80
03FFFFFF80
03FFFFFF80
ENDCHAR
STARTCHAR 00CC
ENCODING 204
SWIDTH 528 0
DWIDTH 47 0
BBX 40 66 0 0
BITMAP
0007F00000
0007F00000
0007F00000
0007F00000
0007F00000
0007F00000
0007F00000
00000FE000
00000FE000
00000FE000
00000FE000
00000FE000
00000FE000
FFFFFFFFFF
FFFFFFFFFF
FFFFFFFFFF
FFFFFFFFFF
FFFFFFFFFF
FFFFFFFFFF
FFFFFFFFFF
0007FFE000
0007FFE000
0007FFE000
0007FFE000
0007FFE000
0007FFE000
0007FFE000
0007FFE000
0007FFE000
0007FFE000
0007FFE000
0007FFE000
0007FFE000
0007FFE000
0007FFE000
0007FFE000
0007FFE000
0007FFE000
0007FFE000
0007FFE000
0007FFE000
0007FFE000
0007FFE000
0007FFE000
0007FFE000
0007FFE000
0007FFE000
0007FFE000
0007FFE000
0007FFE000
0007FFE000
0007FFE000
0007FFE000
0007FFE000
0007FFE000
0007FFE000
0007FFE000
0007FFE000
0007FFE000
FFFFFFFFFF
FFFFFFFFFF
FFFFFFFFFF
FFFFFFFFFF
FFFFFFFFFF
FFFFFFFFFF
FFFFFFFFFF
ENDCHAR
STARTCHAR 00CD
ENCODING 205
SWIDTH 528 0
DWIDTH 47 0
BBX 40 66 0 0
BITMAP
00000FE000
00000FE000
00000FE000
00000FE000
00000FE000
00000FE000
00000FE000
0007F00000
0007F00000
0007F00000
0007F00000
0007F00000
0007F00000
FFFFFFFFFF
FFFFFFFFFF
FFFFFFFFFF
FFFFFFFFFF
FFFFFFFFFF
FFFFFFFFFF
FFFFFFFFFF
0007FFE000
0007FFE000
0007FFE000
0007FFE000
0007FFE000
0007FFE000
0007FFE000
0007FFE000
0007FFE000
0007FFE000
0007FFE000
0007FFE000
0007FFE000
0007FFE000
0007FFE000
0007FFE000
0007FFE000
0007FFE000
0007FFE000
0007FFE000
0007FFE000
0007FFE000
0007FFE000
0007FFE000
0007FFE000
0007FFE000
0007FFE000
0007FFE000
0007FFE000
0007FFE000
0007FFE000
0007FFE000
0007FFE000
0007FFE000
0007FFE000
0007FFE000
0007FFE000
0007FFE000
0007FFE000
FFFFFFFFFF
FFFFFFFFFF
FFFFFFFFFF
FFFFFFFFFF
FFFFFFFFFF
FFFFFFFFFF
FFFFFFFFFF
ENDCHAR
STARTCHAR 00CE
ENCODING 206
SWIDTH 528 0
DWIDTH 47 0
BBX 40 66 0 0
BITMAP
0003FFE000
0003FFE000
0003FFE000
0003FFE000
0003FFE000
0003FFE000
0003FFE000
03F8001F80
03F8001F80
03F8001F80
03F8001F80
03F8001F80
03F8001F80
FFFFFFFFFF
FFFFFFFFFF
FFFFFFFFFF
FFFFFFFFFF
FFFFFFFFFF
FFFFFFFFFF
FFFFFFFFFF
0003FFE000
0003FFE000
0003FFE000
0003FFE000
0003FFE000
0003FFE000
0003FFE000
0003FFE000
0003FFE000
0003FFE000
0003FFE000
0003FFE000
0003FFE000
0003FFE000
0003FFE000
0003FFE000
0003FFE000
0003FFE000
0003FFE000
0003FFE000
0003FFE000
0003FFE000
0003FFE000
0003FFE000
0003FFE000
0003FFE000
0003FFE000
0003FFE000
0003FFE000
0003FFE000
0003FFE000
0003FFE000
0003FFE000
0003FFE000
0003FFE000
0003FFE000
0003FFE000
0003FFE000
0003FFE000
FFFFFFFFFF
FFFFFFFFFF
FFFFFFFFFF
FFFFFFFFFF
FFFFFFFFFF
FFFFFFFFFF
FFFFFFFFFF
ENDCHAR
STARTCHAR 00CF
ENCODING 207
SWIDTH 528 0
DWIDTH 47 0
BBX 40 66 0 0
BITMAP
FFF8001FFF
FFF8001FFF
FFF8001FFF
FFF8001FFF
FFF8001FFF
FFF8001FFF
FFF8001FFF
0000000000
0000000000
0000000000
0000000000
0000000000
0000000000
FFFFFFFFFF
FFFFFFFFFF
FFFFFFFFFF
FFFFFFFFFF
FFFFFFFFFF
FFFFFFFFFF
FFFFFFFFFF
0003FFE000
0003FFE000
0003FFE000
0003FFE000
0003FFE000
0003FFE000
0003FFE000
0003FFE000
0003FFE000
0003FFE000
0003FFE000
0003FFE000
0003FFE000
0003FFE000
0003FFE000
0003FFE000
0003FFE000
0003FFE000
0003FFE000
0003FFE000
0003FFE000
0003FFE000
0003FFE000
0003FFE000
0003FFE000
0003FFE000
0003FFE000
0003FFE000
0003FFE000
0003FFE000
0003FFE000
0003FFE000
0003FFE000
0003FFE000
0003FFE000
0003FFE000
0003FFE000
0003FFE000
0003FFE000
FFFFFFFFFF
FFFFFFFFFF
FFFFFFFFFF
FFFFFFFFFF
FFFFFFFFFF
FFFFFFFFFF
FFFFFFFFFF
ENDCHAR
STARTCHAR 00D0
ENCODING 208
SWIDTH 607 0
DWIDTH 54 0
BBX 47 53 0 0
BITMAP
01FFFFFFC000
01FFFFFFC000
01FFFFFFC000
01FFFFFFC000
01FFFFFFC000
01FFFFFFC000
01FFFFFFC000
01FFF01FFF00
01FFF01FFF00
01FFF01FFF00
01FFF01FFF00
01FFF01FFF00
01FFF01FFF00
01FFF0003FFE
01FFF0003FFE
01FFF0003FFE
01FFF0003FFE
01FFF0003FFE
01FFF0003FFE
01FFF0003FFE
FFFFFFE03FFE
FFFFFFE03FFE
FFFFFFE03FFE
FFFFFFE03FFE
FFFFFFE03FFE
FFFFFFE03FFE
FFFFFFE03FFE
01FFF0003FFE
01FFF0003FFE
01FFF0003FFE
01FFF0003FFE
01FFF0003FFE
01FFF0003FFE
01FFF0003FFE
01FFF0003FFE
01FFF0003FFE
01FFF0003FFE
01FFF0003FFE
01FFF0003FFE
01FFF0003FFE
01FFF0003FFE
01FFF0003FFE
01FFF0003FFE
01FFF0003FFE
01FFF0003FFE
01FFF0003FFE
01FFFFFFFF00
01FFFFFFFF00
01FFFFFFFF00
01FFFFFFFF00
01FFFFFFFF00
01FFFFFFFF00
01FFFFFFFF00
ENDCHAR
STARTCHAR 00D1
ENCODING 209
SWIDTH 517 0
DWIDTH 46 0
BBX 39 66 0 0
BITMAP
03FFF03F80
03FFF03F80
03FFF03F80
03FFF03F80
03FFF03F80
03FFF03F80
03FFF03F80
03F81FFF80
03F81FFF80
03F81FFF80
03F81FFF80
03F81FFF80
03F81FFF80
FFF81FFF80
FFF81FFF80
FFF81FFF80
FFF81FFF80
FFF81FFF80
FFF81FFF80
FFF81FFF80
FFFFF03FFE
FFFFF03FFE
FFFFF03FFE
FFFFF03FFE
FFFFF03FFE
FFFFF03FFE
FFFFF03FFE
FFF8003FFE
FFF8003FFE
FFF8003FFE
FFF8003FFE
FFF8003FFE
FFF8003FFE
FFF8003FFE
FFF8003FFE
FFF8003FFE
FFF8003FFE
FFF8003FFE
FFF8003FFE
FFF8003FFE
FFF8003FFE
FFF8003FFE
FFF8003FFE
FFF8003FFE
FFF8003FFE
FFF8003FFE
FFF8003FFE
FFF8003FFE
FFF8003FFE
FFF8003FFE
FFF8003FFE
FFF8003FFE
FFF8003FFE
FFF8003FFE
FFF8003FFE
FFF8003FFE
FFF8003FFE
FFF8003FFE
FFF8003FFE
FFF8003FFE
FFF8003FFE
FFF8003FFE
FFF8003FFE
FFF8003FFE
FFF8003FFE
FFF8003FFE
ENDCHAR
STARTCHAR 00D2
ENCODING 210
SWIDTH 528 0
DWIDTH 47 0
BBX 40 66 0 0
BITMAP
0007F00000
0007F00000
0007F00000
0007F00000
0007F00000
0007F00000
0007F00000
00000FE000
00000FE000
00000FE000
00000FE000
00000FE000
00000FE000
03FFFFFF80
03FFFFFF80
03FFFFFF80
03FFFFFF80
03FFFFFF80
03FFFFFF80
03FFFFFF80
FFF8001FFF
FFF8001FFF
FFF8001FFF
FFF8001FFF
FFF8001FFF
FFF8001FFF
FFF8001FFF
FFF8001FFF
FFF8001FFF
FFF8001FFF
FFF8001FFF
FFF8001FFF
FFF8001FFF
FFF8001FFF
FFF8001FFF
FFF8001FFF
FFF8001FFF
FFF8001FFF
FFF8001FFF
FFF8001FFF
FFF8001FFF
FFF8001FFF
FFF8001FFF
FFF8001FFF
FFF8001FFF
FFF8001FFF
FFF8001FFF
FFF8001FFF
FFF8001FFF
FFF8001FFF
FFF8001FFF
FFF8001FFF
FFF8001FFF
FFF8001FFF
FFF8001FFF
FFF8001FFF
FFF8001FFF
FFF8001FFF
FFF8001FFF
03FFFFFF80
03FFFFFF80
03FFFFFF80
03FFFFFF80
03FFFFFF80
03FFFFFF80
03FFFFFF80
ENDCHAR
STARTCHAR 00D3
ENCODING 211
SWIDTH 528 0
DWIDTH 47 0
BBX 40 66 0 0
BITMAP
00000FE000
00000FE000
00000FE000
00000FE000
00000FE000
00000FE000
00000FE000
0007F00000
0007F00000
0007F00000
0007F00000
0007F00000
0007F00000
03FFFFFF80
03FFFFFF80
03FFFFFF80
03FFFFFF80
03FFFFFF80
03FFFFFF80
03FFFFFF80
FFF8001FFF
FFF8001FFF
FFF8001FFF
FFF8001FFF
FFF8001FFF
FFF8001FFF
FFF8001FFF
FFF8001FFF
FFF8001FFF
FFF8001FFF
FFF8001FFF
FFF8001FFF
FFF8001FFF
FFF8001FFF
FFF8001FFF
FFF8001FFF
FFF8001FFF
FFF8001FFF
FFF8001FFF
FFF8001FFF
FFF8001FFF
FFF8001FFF
FFF8001FFF
FFF8001FFF
FFF8001FFF
FFF8001FFF
FFF8001FFF
FFF8001FFF
FFF8001FFF
FFF8001FFF
FFF8001FFF
FFF8001FFF
FFF8001FFF
FFF8001FFF
FFF8001FFF
FFF8001FFF
FFF8001FFF
FFF8001FFF
FFF8001FFF
03FFFFFF80
03FFFFFF80
03FFFFFF80
03FFFFFF80
03FFFFFF80
03FFFFFF80
03FFFFFF80
ENDCHAR
STARTCHAR 00D4
ENCODING 212
SWIDTH 528 0
DWIDTH 47 0
BBX 40 66 0 0
BITMAP
0003FFE000
0003FFE000
0003FFE000
0003FFE000
0003FFE000
0003FFE000
0003FFE000
03F8001F80
03F8001F80
03F8001F80
03F8001F80
03F8001F80
03F8001F80
03FFFFFF80
03FFFFFF80
03FFFFFF80
03FFFFFF80
03FFFFFF80
03FFFFFF80
03FFFFFF80
FFF8001FFF
FFF8001FFF
FFF8001FFF
FFF8001FFF
FFF8001FFF
FFF8001FFF
FFF8001FFF
FFF8001FFF
FFF8001FFF
FFF8001FFF
FFF8001FFF
FFF8001FFF
FFF8001FFF
FFF8001FFF
FFF8001FFF
FFF8001FFF
FFF8001FFF
FFF8001FFF
FFF8001FFF
FFF8001FFF
FFF8001FFF
FFF8001FFF
FFF8001FFF
FFF8001FFF
FFF8001FFF
FFF8001FFF
FFF8001FFF
FFF8001FFF
FFF8001FFF
FFF8001FFF
FFF8001FFF
FFF8001FFF
FFF8001FFF
FFF8001FFF
FFF8001FFF
FFF8001FFF
FFF8001FFF
FFF8001FFF
FFF8001FFF
03FFFFFF80
03FFFFFF80
03FFFFFF80
03FFFFFF80
03FFFFFF80
03FFFFFF80
03FFFFFF80
ENDCHAR
STARTCHAR 00D5
ENCODING 213
SWIDTH 517 0
DWIDTH 46 0
BBX 39 66 0 0
BITMAP
03FFF03F80
03FFF03F80
03FFF03F80
03FFF03F80
03FFF03F80
03FFF03F80
03FFF03F80
03F81FFF80
03F81FFF80
03F81FFF80
03F81FFF80
03F81FFF80
03F81FFF80
03FFFFFF80
03FFFFFF80
03FFFFFF80
03FFFFFF80
03FFFFFF80
03FFFFFF80
03FFFFFF80
FFF8003FFE
FFF8003FFE
FFF8003FFE
FFF8003FFE
FFF8003FFE
FFF8003FFE
FFF8003FFE
FFF8003FFE
FFF8003FFE
FFF8003FFE
FFF8003FFE
FFF8003FFE
FFF8003FFE
FFF8003FFE
FFF8003FFE
FFF8003FFE
FFF8003FFE
FFF8003FFE
FFF8003FFE
FFF8003FFE
FFF8003FFE
FFF8003FFE
FFF8003FFE
FFF8003FFE
FFF8003FFE
FFF8003FFE
FFF8003FFE
FFF8003FFE
FFF8003FFE
FFF8003FFE
FFF8003FFE
FFF8003FFE
FFF8003FFE
FFF8003FFE
FFF8003FFE
FFF8003FFE
FFF8003FFE
FFF8003FFE
FFF8003FFE
03FFFFFF80
03FFFFFF80
03FFFFFF80
03FFFFFF80
03FFFFFF80
03FFFFFF80
03FFFFFF80
ENDCHAR
STARTCHAR 00D6
ENCODING 214
SWIDTH 528 0
DWIDTH 47 0
BBX 40 66 0 0
BITMAP
FFF8001FFF
FFF8001FFF
FFF8001FFF
FFF8001FFF
FFF8001FFF
FFF8001FFF
FFF8001FFF
0000000000
0000000000
0000000000
0000000000
0000000000
0000000000
03FFFFFF80
03FFFFFF80
03FFFFFF80
03FFFFFF80
03FFFFFF80
03FFFFFF80
03FFFFFF80
FFF8001FFF
FFF8001FFF
FFF8001FFF
FFF8001FFF
FFF8001FFF
FFF8001FFF
FFF8001FFF
FFF8001FFF
FFF8001FFF
FFF8001FFF
FFF8001FFF
FFF8001FFF
FFF8001FFF
FFF8001FFF
FFF8001FFF
FFF8001FFF
FFF8001FFF
FFF8001FFF
FFF8001FFF
FFF8001FFF
FFF8001FFF
FFF8001FFF
FFF8001FFF
FFF8001FFF
FFF8001FFF
FFF8001FFF
FFF8001FFF
FFF8001FFF
FFF8001FFF
FFF8001FFF
FFF8001FFF
FFF8001FFF
FFF8001FFF
FFF8001FFF
FFF8001FFF
FFF8001FFF
FFF8001FFF
FFF8001FFF
FFF8001FFF
03FFFFFF80
03FFFFFF80
03FFFFFF80
03FFFFFF80
03FFFFFF80
03FFFFFF80
03FFFFFF80
ENDCHAR
STARTCHAR 00D7
ENCODING 215
SWIDTH 450 0
DWIDTH 40 0
BBX 33 33 0 13
BITMAP
FE00001F80
FE00001F80
FE00001F80
FE00001F80
FE00001F80
FE00001F80
01F80FE000
01F80FE000
01F80FE000
01F80FE000
01F80FE000
01F80FE000
01F80FE000
0007F00000
0007F00000
0007F00000
0007F00000
0007F00000
0007F00000
01FFFFE000
01F80FE000
01F80FE000
01F80FE000
01F80FE000
01F80FE000
01F80FE000
FE00001F80
FE00001F80
FE00001F80
FE00001F80
FE00001F80
FE00001F80
FE00001F80
ENDCHAR
STARTCHAR 00D8
ENCODING 216
SWIDTH 528 0
DWIDTH 47 0
BBX 40 79 0 -13
BITMAP
000000007F
000000007F
000000007F
000000007F
000000007F
000000007F
0000001FFF
0000001FFF
0000001FFF
0000001FFF
0000001FFF
0000001FFF
0000001FFF
01FFFFFFFF
01FFFFFFFF
01FFFFFFFF
01FFFFFFFF
01FFFFFFFF
01FFFFFFFF
01FFFFFFFF
FFFC001FFF
FFFC001FFF
FFFC001FFF
FFFC001FFF
FFFC001FFF
FFFC001FFF
FFFC001FFF
FFFC001FFF
FFFC001FFF
FFFC001FFF
FFFC001FFF
FFFC001FFF
FFFC001FFF
FFFC0FFFFF
FFFC0FFFFF
FFFC0FFFFF
FFFC0FFFFF
FFFC0FFFFF
FFFC0FFFFF
FFFFFFFFFF
FFFFF01FFF
FFFFF01FFF
FFFFF01FFF
FFFFF01FFF
FFFFF01FFF
FFFFF01FFF
FFFC001FFF
FFFC001FFF
FFFC001FFF
FFFC001FFF
FFFC001FFF
FFFC001FFF
FFFC001FFF
FFFC001FFF
FFFC001FFF
FFFC001FFF
FFFC001FFF
FFFC001FFF
FFFC001FFF
FFFFFFFF80
FFFFFFFF80
FFFFFFFF80
FFFFFFFF80
FFFFFFFF80
FFFFFFFF80
FFFFFFFF80
FFFC000000
FFFC000000
FFFC000000
FFFC000000
FFFC000000
FFFC000000
FFFC000000
FE00000000
FE00000000
FE00000000
FE00000000
FE00000000
FE00000000
ENDCHAR
STARTCHAR 00D9
ENCODING 217
SWIDTH 528 0
DWIDTH 47 0
BBX 40 66 0 0
BITMAP
0007F00000
0007F00000
0007F00000
0007F00000
0007F00000
0007F00000
00000FE000
00000FE000
00000FE000
00000FE000
00000FE000
00000FE000
00000FE000
FFF8001FFF
FFF8001FFF
FFF8001FFF
FFF8001FFF
FFF8001FFF
FFF8001FFF
FFF8001FFF
FFF8001FFF
FFF8001FFF
FFF8001FFF
FFF8001FFF
FFF8001FFF
FFF8001FFF
FFF8001FFF
FFF8001FFF
FFF8001FFF
FFF8001FFF
FFF8001FFF
FFF8001FFF
FFF8001FFF
FFF8001FFF
FFF8001FFF
FFF8001FFF
FFF8001FFF
FFF8001FFF
FFF8001FFF
FFF8001FFF
FFF8001FFF
FFF8001FFF
FFF8001FFF
FFF8001FFF
FFF8001FFF
FFF8001FFF
FFF8001FFF
FFF8001FFF
FFF8001FFF
FFF8001FFF
FFF8001FFF
FFF8001FFF
FFF80FFFFF
FFF80FFFFF
FFF80FFFFF
FFF80FFFFF
FFF80FFFFF
FFF80FFFFF
FFF80FFFFF
01FFF01FFF
01FFF01FFF
01FFF01FFF
01FFF01FFF
01FFF01FFF
01FFF01FFF
01FFF01FFF
ENDCHAR
STARTCHAR 00DA
ENCODING 218
SWIDTH 528 0
DWIDTH 47 0
BBX 40 66 0 0
BITMAP
00000FE000
00000FE000
00000FE000
00000FE000
00000FE000
00000FE000
0007F00000
0007F00000
0007F00000
0007F00000
0007F00000
0007F00000
0007F00000
FFF8001FFF
FFF8001FFF
FFF8001FFF
FFF8001FFF
FFF8001FFF
FFF8001FFF
FFF8001FFF
FFF8001FFF
FFF8001FFF
FFF8001FFF
FFF8001FFF
FFF8001FFF
FFF8001FFF
FFF8001FFF
FFF8001FFF
FFF8001FFF
FFF8001FFF
FFF8001FFF
FFF8001FFF
FFF8001FFF
FFF8001FFF
FFF8001FFF
FFF8001FFF
FFF8001FFF
FFF8001FFF
FFF8001FFF
FFF8001FFF
FFF8001FFF
FFF8001FFF
FFF8001FFF
FFF8001FFF
FFF8001FFF
FFF8001FFF
FFF8001FFF
FFF8001FFF
FFF8001FFF
FFF8001FFF
FFF8001FFF
FFF8001FFF
FFF80FFFFF
FFF80FFFFF
FFF80FFFFF
FFF80FFFFF
FFF80FFFFF
FFF80FFFFF
FFF80FFFFF
01FFF01FFF
01FFF01FFF
01FFF01FFF
01FFF01FFF
01FFF01FFF
01FFF01FFF
01FFF01FFF
ENDCHAR
STARTCHAR 00DB
ENCODING 219
SWIDTH 528 0
DWIDTH 47 0
BBX 40 66 1 0
BITMAP
0007FFC000
0007FFC000
0007FFC000
0007FFC000
0007FFC000
0007FFC000
0007FFC000
03F8003F80
03F8003F80
03F8003F80
03F8003F80
03F8003F80
03F8003F80
FFF8003FFF
FFF8003FFF
FFF8003FFF
FFF8003FFF
FFF8003FFF
FFF8003FFF
FFF8003FFF
FFF8003FFF
FFF8003FFF
FFF8003FFF
FFF8003FFF
FFF8003FFF
FFF8003FFF
FFF8003FFF
FFF8003FFF
FFF8003FFF
FFF8003FFF
FFF8003FFF
FFF8003FFF
FFF8003FFF
FFF8003FFF
FFF8003FFF
FFF8003FFF
FFF8003FFF
FFF8003FFF
FFF8003FFF
FFF8003FFF
FFF8003FFF
FFF8003FFF
FFF8003FFF
FFF8003FFF
FFF8003FFF
FFF8003FFF
FFF8003FFF
FFF8003FFF
FFF8003FFF
FFF8003FFF
FFF8003FFF
FFF8003FFF
FFF81FFFFF
FFF81FFFFF
FFF81FFFFF
FFF81FFFFF
FFF81FFFFF
FFF81FFFFF
FFF81FFFFF
03FFE03FFF
03FFE03FFF
03FFE03FFF
03FFE03FFF
03FFE03FFF
03FFE03FFF
03FFE03FFF
ENDCHAR
STARTCHAR 00DC
ENCODING 220
SWIDTH 528 0
DWIDTH 47 0
BBX 40 66 0 0
BITMAP
FFF8001FFF
FFF8001FFF
FFF8001FFF
FFF8001FFF
FFF8001FFF
FFF8001FFF
FFF8001FFF
0000000000
0000000000
0000000000
0000000000
0000000000
0000000000
FFF8001FFF
FFF8001FFF
FFF8001FFF
FFF8001FFF
FFF8001FFF
FFF8001FFF
FFF8001FFF
FFF8001FFF
FFF8001FFF
FFF8001FFF
FFF8001FFF
FFF8001FFF
FFF8001FFF
FFF8001FFF
FFF8001FFF
FFF8001FFF
FFF8001FFF
FFF8001FFF
FFF8001FFF
FFF8001FFF
FFF8001FFF
FFF8001FFF
FFF8001FFF
FFF8001FFF
FFF8001FFF
FFF8001FFF
FFF8001FFF
FFF8001FFF
FFF8001FFF
FFF8001FFF
FFF8001FFF
FFF8001FFF
FFF8001FFF
FFF8001FFF
FFF8001FFF
FFF8001FFF
FFF8001FFF
FFF8001FFF
FFF8001FFF
FFF80FFFFF
FFF80FFFFF
FFF80FFFFF
FFF80FFFFF
FFF80FFFFF
FFF80FFFFF
FFF80FFFFF
01FFF01FFF
01FFF01FFF
01FFF01FFF
01FFF01FFF
01FFF01FFF
01FFF01FFF
01FFF01FFF
ENDCHAR
STARTCHAR 00DD
ENCODING 221
SWIDTH 528 0
DWIDTH 47 0
BBX 40 66 0 0
BITMAP
00000FE000
00000FE000
00000FE000
00000FE000
00000FE000
00000FE000
0007F00000
0007F00000
0007F00000
0007F00000
0007F00000
0007F00000
0007F00000
FFF8001FFF
FFF8001FFF
FFF8001FFF
FFF8001FFF
FFF8001FFF
FFF8001FFF
FFF8001FFF
FFF8001FFF
FFF8001FFF
FFF8001FFF
FFF8001FFF
FFF8001FFF
FFF8001FFF
FFF8001FFF
FFF8001FFF
FFF8001FFF
FFF8001FFF
FFF8001FFF
FFF8001FFF
FFF8001FFF
FFF80FFFFF
FFF80FFFFF
FFF80FFFFF
FFF80FFFFF
FFF80FFFFF
FFF80FFFFF
FFFFFFFFFF
01FFF01FFF
01FFF01FFF
01FFF01FFF
01FFF01FFF
01FFF01FFF
01FFF01FFF
0000001FFF
0000001FFF
0000001FFF
0000001FFF
0000001FFF
0000001FFF
0000001FFF
0000001FFF
0000001FFF
0000001FFF
0000001FFF
0000001FFF
0000001FFF
0007FFFF80
0007FFFF80
0007FFFF80
0007FFFF80
0007FFFF80
0007FFFF80
0007FFFF80
ENDCHAR
STARTCHAR 00DE
ENCODING 222
SWIDTH 528 0
DWIDTH 47 0
BBX 40 53 0 0
BITMAP
FFF8000000
FFF8000000
FFF8000000
FFF8000000
FFF8000000
FFF8000000
FFF8000000
FFF80FFF80
FFF80FFF80
FFF80FFF80
FFF80FFF80
FFF80FFF80
FFF80FFF80
FFFFF01FFF
FFFFF01FFF
FFFFF01FFF
FFFFF01FFF
FFFFF01FFF
FFFFF01FFF
FFFFF01FFF
FFF8001FFF
FFF8001FFF
FFF8001FFF
FFF8001FFF
FFF8001FFF
FFF8001FFF
FFF8001FFF
FFF8001FFF
FFF8001FFF
FFF8001FFF
FFF8001FFF
FFF8001FFF
FFF8001FFF
FFFFF01FFF
FFFFF01FFF
FFFFF01FFF
FFFFF01FFF
FFFFF01FFF
FFFFF01FFF
FFFFF01FFF
FFF80FFF80
FFF80FFF80
FFF80FFF80
FFF80FFF80
FFF80FFF80
FFF80FFF80
FFF80FFF80
FFF8000000
FFF8000000
FFF8000000
FFF8000000
FFF8000000
FFF8000000
ENDCHAR
STARTCHAR 00DF
ENCODING 223
SWIDTH 528 0
DWIDTH 47 0
BBX 40 53 0 0
BITMAP
03FFFFFF80
03FFFFFF80
03FFFFFF80
03FFFFFF80
03FFFFFF80
03FFFFFF80
03FFFFFF80
FFF8001FFF
FFF8001FFF
FFF8001FFF
FFF8001FFF
FFF8001FFF
FFF8001FFF
FFF8001FFF
FFF8001FFF
FFF8001FFF
FFF8001FFF
FFF8001FFF
FFF8001FFF
FFF8001FFF
FFF80FFF80
FFF80FFF80
FFF80FFF80
FFF80FFF80
FFF80FFF80
FFF80FFF80
FFF80FFF80
FFFFF01FFF
FFFFF01FFF
FFFFF01FFF
FFFFF01FFF
FFFFF01FFF
FFFFF01FFF
FFFFF01FFF
FFF8001FFF
FFF8001FFF
FFF8001FFF
FFF8001FFF
FFF8001FFF
FFF8001FFF
FFF8001FFF
FFF8001FFF
FFF8001FFF
FFF8001FFF
FFF8001FFF
FFF8001FFF
FFF80FFF80
FFF80FFF80
FFF80FFF80
FFF80FFF80
FFF80FFF80
FFF80FFF80
FFF80FFF80
ENDCHAR
STARTCHAR 00E0
ENCODING 224
SWIDTH 528 0
DWIDTH 47 0
BBX 40 53 0 0
BITMAP
0007F00000
0007F00000
0007F00000
0007F00000
0007F00000
0007F00000
0007F00000
00000FE000
00000FE000
00000FE000
00000FE000
00000FE000
00000FE000
00000FE000
0000000000
0000000000
0000000000
0000000000
0000000000
0000000000
01FFFFFFC0
01FFFFFFC0
01FFFFFFC0
01FFFFFFC0
01FFFFFFC0
01FFFFFFC0
FFFFFFFFFF
FFF8001FFF
FFF8001FFF
FFF8001FFF
FFF8001FFF
FFF8001FFF
FFF8001FFF
FFF8001FFF
FFF8001FFF
FFF8001FFF
FFF8001FFF
FFF8001FFF
FFF8001FFF
FFF8001FFF
FFF80FFFFF
FFF80FFFFF
FFF80FFFFF
FFF80FFFFF
FFF80FFFFF
FFF80FFFFF
01FFF01FFF
01FFF01FFF
01FFF01FFF
01FFF01FFF
01FFF01FFF
01FFF01FFF
01FFF01FFF
ENDCHAR
STARTCHAR 00E1
ENCODING 225
SWIDTH 528 0
DWIDTH 47 0
BBX 40 53 0 0
BITMAP
00000FE000
00000FE000
00000FE000
00000FE000
00000FE000
00000FE000
00000FE000
0007F00000
0007F00000
0007F00000
0007F00000
0007F00000
0007F00000
0007F00000
0000000000
0000000000
0000000000
0000000000
0000000000
0000000000
01FFFFFFC0
01FFFFFFC0
01FFFFFFC0
01FFFFFFC0
01FFFFFFC0
01FFFFFFC0
FFFFFFFFFF
FFF8001FFF
FFF8001FFF
FFF8001FFF
FFF8001FFF
FFF8001FFF
FFF8001FFF
FFF8001FFF
FFF8001FFF
FFF8001FFF
FFF8001FFF
FFF8001FFF
FFF8001FFF
FFF8001FFF
FFF80FFFFF
FFF80FFFFF
FFF80FFFFF
FFF80FFFFF
FFF80FFFFF
FFF80FFFFF
01FFF01FFF
01FFF01FFF
01FFF01FFF
01FFF01FFF
01FFF01FFF
01FFF01FFF
01FFF01FFF
ENDCHAR
STARTCHAR 00E2
ENCODING 226
SWIDTH 528 0
DWIDTH 47 0
BBX 40 53 0 0
BITMAP
0003FFE000
0003FFE000
0003FFE000
0003FFE000
0003FFE000
0003FFE000
0003FFE000
03F8001F80
03F8001F80
03F8001F80
03F8001F80
03F8001F80
03F8001F80
03F8001F80
0000000000
0000000000
0000000000
0000000000
0000000000
0000000000
03FFFFFF80
03FFFFFF80
03FFFFFF80
03FFFFFF80
03FFFFFF80
03FFFFFF80
FFFFFFFFFF
FFF8001FFF
FFF8001FFF
FFF8001FFF
FFF8001FFF
FFF8001FFF
FFF8001FFF
FFF8001FFF
FFF8001FFF
FFF8001FFF
FFF8001FFF
FFF8001FFF
FFF8001FFF
FFF8001FFF
FFF81FFFFF
FFF81FFFFF
FFF81FFFFF
FFF81FFFFF
FFF81FFFFF
FFF81FFFFF
03FFE01FFF
03FFE01FFF
03FFE01FFF
03FFE01FFF
03FFE01FFF
03FFE01FFF
03FFE01FFF
ENDCHAR
STARTCHAR 00E3
ENCODING 227
SWIDTH 517 0
DWIDTH 46 0
BBX 39 53 0 0
BITMAP
03FFE03F80
03FFE03F80
03FFE03F80
03FFE03F80
03FFE03F80
03FFE03F80
03FFE03F80
03F81FFF80
03F81FFF80
03F81FFF80
03F81FFF80
03F81FFF80
03F81FFF80
03F81FFF80
0000000000
0000000000
0000000000
0000000000
0000000000
0000000000
03FFFFFF80
03FFFFFF80
03FFFFFF80
03FFFFFF80
03FFFFFF80
03FFFFFF80
FFFFFFFFFE
FFF8003FFE
FFF8003FFE
FFF8003FFE
FFF8003FFE
FFF8003FFE
FFF8003FFE
FFF8003FFE
FFF8003FFE
FFF8003FFE
FFF8003FFE
FFF8003FFE
FFF8003FFE
FFF8003FFE
FFF81FFFFE
FFF81FFFFE
FFF81FFFFE
FFF81FFFFE
FFF81FFFFE
FFF81FFFFE
03FFE03FFE
03FFE03FFE
03FFE03FFE
03FFE03FFE
03FFE03FFE
03FFE03FFE
03FFE03FFE
ENDCHAR
STARTCHAR 00E4
ENCODING 228
SWIDTH 528 0
DWIDTH 47 0
BBX 40 53 0 0
BITMAP
FFF8001FFF
FFF8001FFF
FFF8001FFF
FFF8001FFF
FFF8001FFF
FFF8001FFF
FFF8001FFF
0000000000
0000000000
0000000000
0000000000
0000000000
0000000000
0000000000
0000000000
0000000000
0000000000
0000000000
0000000000
0000000000
01FFFFFFC0
01FFFFFFC0
01FFFFFFC0
01FFFFFFC0
01FFFFFFC0
01FFFFFFC0
FFFFFFFFFF
FFF8001FFF
FFF8001FFF
FFF8001FFF
FFF8001FFF
FFF8001FFF
FFF8001FFF
FFF8001FFF
FFF8001FFF
FFF8001FFF
FFF8001FFF
FFF8001FFF
FFF8001FFF
FFF8001FFF
FFF80FFFFF
FFF80FFFFF
FFF80FFFFF
FFF80FFFFF
FFF80FFFFF
FFF80FFFFF
01FFF01FFF
01FFF01FFF
01FFF01FFF
01FFF01FFF
01FFF01FFF
01FFF01FFF
01FFF01FFF
ENDCHAR
STARTCHAR 00E5
ENCODING 229
SWIDTH 517 0
DWIDTH 46 0
BBX 39 60 0 0
BITMAP
03FFFFFF80
03FFFFFF80
03FFFFFF80
03FFFFFF80
03FFFFFF80
03FFFFFF80
03FFFFFF80
03F8003F80
03F8003F80
03F8003F80
03F8003F80
03F8003F80
03F8003F80
03F8003F80
03FFFFFF80
03FFFFFF80
03FFFFFF80
03FFFFFF80
03FFFFFF80
03FFFFFF80
03FFFFFF80
0000000000
0000000000
0000000000
0000000000
0000000000
0000000000
03FFFFFF80
03FFFFFF80
03FFFFFF80
03FFFFFF80
03FFFFFF80
03FFFFFF80
FFFFFFFFFE
FFF8003FFE
FFF8003FFE
FFF8003FFE
FFF8003FFE
FFF8003FFE
FFF8003FFE
FFF8003FFE
FFF8003FFE
FFF8003FFE
FFF8003FFE
FFF8003FFE
FFF8003FFE
FFF8003FFE
FFF81FFFFE
FFF81FFFFE
FFF81FFFFE
FFF81FFFFE
FFF81FFFFE
FFF81FFFFE
03FFE03FFE
03FFE03FFE
03FFE03FFE
03FFE03FFE
03FFE03FFE
03FFE03FFE
03FFE03FFE
ENDCHAR
STARTCHAR 00E6
ENCODING 230
SWIDTH 832 0
DWIDTH 74 0
BBX 67 33 0 0
BITMAP
01FFFFFFFFFFFFF000
01FFFFFFFFFFFFF000
01FFFFFFFFFFFFF000
01FFFFFFFFFFFFF000
01FFFFFFFFFFFFF000
01FFFFFFFFFFFFF000
FFFFFFFFFFFFFFFFE0
FFF8001FFF0003FFE0
FFF8001FFF0003FFE0
FFF8001FFF0003FFE0
FFF8001FFF0003FFE0
FFF8001FFF0003FFE0
FFF8001FFF0003FFE0
FFF8001FFF01FFFFE0
FFF8001FFF01FFFFE0
FFF8001FFF01FFFFE0
FFF8001FFF01FFFFE0
FFF8001FFF01FFFFE0
FFF8001FFF01FFFFE0
FFF8001FFF01FFFFE0
FFF80FFFFFFE000000
FFF80FFFFFFE000000
FFF80FFFFFFE000000
FFF80FFFFFFE000000
FFF80FFFFFFE000000
FFF80FFFFFFE000000
01FFF01FFFFFFC0000
01FFF01FFFFFFC0000
01FFF01FFFFFFC0000
01FFF01FFFFFFC0000
01FFF01FFFFFFC0000
01FFF01FFFFFFC0000
01FFF01FFFFFFC0000
ENDCHAR
STARTCHAR 00E7
ENCODING 231
SWIDTH 528 0
DWIDTH 47 0
BBX 40 46 0 -13
BITMAP
03FFFFFF80
03FFFFFF80
03FFFFFF80
03FFFFFF80
03FFFFFF80
03FFFFFF80
FFFFFFFFFF
FFF8001FFF
FFF8001FFF
FFF8001FFF
FFF8001FFF
FFF8001FFF
FFF8001FFF
FFF8000000
FFF8000000
FFF8000000
FFF8000000
FFF8000000
FFF8000000
FFF8001FFF
FFF8001FFF
FFF8001FFF
FFF8001FFF
FFF8001FFF
FFF8001FFF
FFF8001FFF
03FFFFFF80
03FFFFFF80
03FFFFFF80
03FFFFFF80
03FFFFFF80
03FFFFFF80
03FFFFFF80
00000FE000
00000FE000
00000FE000
00000FE000
00000FE000
00000FE000
0007FFE000
0007FFE000
0007FFE000
0007FFE000
0007FFE000
0007FFE000
0007FFE000
ENDCHAR
STARTCHAR 00E8
ENCODING 232
SWIDTH 528 0
DWIDTH 47 0
BBX 40 53 0 0
BITMAP
0007F00000
0007F00000
0007F00000
0007F00000
0007F00000
0007F00000
0007F00000
00000FE000
00000FE000
00000FE000
00000FE000
00000FE000
00000FE000
00000FE000
0000000000
0000000000
0000000000
0000000000
0000000000
0000000000
01FFFFFFC0
01FFFFFFC0
01FFFFFFC0
01FFFFFFC0
01FFFFFFC0
01FFFFFFC0
01FFFFFFC0
FFF8001FFF
FFF8001FFF
FFF8001FFF
FFF8001FFF
FFF8001FFF
FFF8001FFF
FFF80FFFFF
FFF80FFFFF
FFF80FFFFF
FFF80FFFFF
FFF80FFFFF
FFF80FFFFF
FFF80FFFFF
FFFFF00000
FFFFF00000
FFFFF00000
FFFFF00000
FFFFF00000
FFFFF00000
01FFFFE000
01FFFFE000
01FFFFE000
01FFFFE000
01FFFFE000
01FFFFE000
01FFFFE000
ENDCHAR
STARTCHAR 00E9
ENCODING 233
SWIDTH 528 0
DWIDTH 47 0
BBX 40 53 0 0
BITMAP
00000FE000
00000FE000
00000FE000
00000FE000
00000FE000
00000FE000
00000FE000
0007F00000
0007F00000
0007F00000
0007F00000
0007F00000
0007F00000
0007F00000
0000000000
0000000000
0000000000
0000000000
0000000000
0000000000
01FFFFFFC0
01FFFFFFC0
01FFFFFFC0
01FFFFFFC0
01FFFFFFC0
01FFFFFFC0
01FFFFFFC0
FFF8001FFF
FFF8001FFF
FFF8001FFF
FFF8001FFF
FFF8001FFF
FFF8001FFF
FFF80FFFFF
FFF80FFFFF
FFF80FFFFF
FFF80FFFFF
FFF80FFFFF
FFF80FFFFF
FFF80FFFFF
FFFFF00000
FFFFF00000
FFFFF00000
FFFFF00000
FFFFF00000
FFFFF00000
01FFFFE000
01FFFFE000
01FFFFE000
01FFFFE000
01FFFFE000
01FFFFE000
01FFFFE000
ENDCHAR
STARTCHAR 00EA
ENCODING 234
SWIDTH 528 0
DWIDTH 47 0
BBX 40 53 0 0
BITMAP
0003FFE000
0003FFE000
0003FFE000
0003FFE000
0003FFE000
0003FFE000
0003FFE000
03F8001F80
03F8001F80
03F8001F80
03F8001F80
03F8001F80
03F8001F80
03F8001F80
0000000000
0000000000
0000000000
0000000000
0000000000
0000000000
03FFFFFF80
03FFFFFF80
03FFFFFF80
03FFFFFF80
03FFFFFF80
03FFFFFF80
03FFFFFF80
FFF8001FFF
FFF8001FFF
FFF8001FFF
FFF8001FFF
FFF8001FFF
FFF8001FFF
FFF80FFFFF
FFF80FFFFF
FFF80FFFFF
FFF80FFFFF
FFF80FFFFF
FFF80FFFFF
FFF80FFFFF
FFFFF00000
FFFFF00000
FFFFF00000
FFFFF00000
FFFFF00000
FFFFF00000
03FFFFE000
03FFFFE000
03FFFFE000
03FFFFE000
03FFFFE000
03FFFFE000
03FFFFE000
ENDCHAR
STARTCHAR 00EB
ENCODING 235
SWIDTH 528 0
DWIDTH 47 0
BBX 40 53 0 0
BITMAP
FFF8001FFF
FFF8001FFF
FFF8001FFF
FFF8001FFF
FFF8001FFF
FFF8001FFF
FFF8001FFF
0000000000
0000000000
0000000000
0000000000
0000000000
0000000000
0000000000
0000000000
0000000000
0000000000
0000000000
0000000000
0000000000
01FFFFFFC0
01FFFFFFC0
01FFFFFFC0
01FFFFFFC0
01FFFFFFC0
01FFFFFFC0
01FFFFFFC0
FFF8001FFF
FFF8001FFF
FFF8001FFF
FFF8001FFF
FFF8001FFF
FFF8001FFF
FFF80FFFFF
FFF80FFFFF
FFF80FFFFF
FFF80FFFFF
FFF80FFFFF
FFF80FFFFF
FFF80FFFFF
FFFFF00000
FFFFF00000
FFFFF00000
FFFFF00000
FFFFF00000
FFFFF00000
01FFFFE000
01FFFFE000
01FFFFE000
01FFFFE000
01FFFFE000
01FFFFE000
01FFFFE000
ENDCHAR
STARTCHAR 00EC
ENCODING 236
SWIDTH 225 0
DWIDTH 20 0
BBX 13 53 0 0
BITMAP
FE00
FE00
FE00
FE00
FE00
FE00
FE00
01F8
01F8
01F8
01F8
01F8
01F8
01F8
0000
0000
0000
0000
0000
0000
FFF8
FFF8
FFF8
FFF8
FFF8
FFF8
FFF8
FFF8
FFF8
FFF8
FFF8
FFF8
FFF8
FFF8
FFF8
FFF8
FFF8
FFF8
FFF8
FFF8
FFF8
FFF8
FFF8
FFF8
FFF8
FFF8
FFF8
FFF8
FFF8
FFF8
FFF8
FFF8
FFF8
ENDCHAR
STARTCHAR 00ED
ENCODING 237
SWIDTH 225 0
DWIDTH 20 0
BBX 13 53 0 0
BITMAP
01F8
01F8
01F8
01F8
01F8
01F8
01F8
FE00
FE00
FE00
FE00
FE00
FE00
FE00
0000
0000
0000
0000
0000
0000
FFF8
FFF8
FFF8
FFF8
FFF8
FFF8
FFF8
FFF8
FFF8
FFF8
FFF8
FFF8
FFF8
FFF8
FFF8
FFF8
FFF8
FFF8
FFF8
FFF8
FFF8
FFF8
FFF8
FFF8
FFF8
FFF8
FFF8
FFF8
FFF8
FFF8
FFF8
FFF8
FFF8
ENDCHAR
STARTCHAR 00EE
ENCODING 238
SWIDTH 303 0
DWIDTH 27 0
BBX 27 53 0 0
BITMAP
01FFF000
01FFF000
01FFF000
01FFF000
01FFF000
01FFF000
01FFF000
FE000FE0
FE000FE0
FE000FE0
FE000FE0
FE000FE0
FE000FE0
FE000FE0
00000000
00000000
00000000
00000000
00000000
00000000
01FFF000
01FFF000
01FFF000
01FFF000
01FFF000
01FFF000
01FFF000
01FFF000
01FFF000
01FFF000
01FFF000
01FFF000
01FFF000
01FFF000
01FFF000
01FFF000
01FFF000
01FFF000
01FFF000
01FFF000
01FFF000
01FFF000
01FFF000
01FFF000
01FFF000
01FFF000
01FFF000
01FFF000
01FFF000
01FFF000
01FFF000
01FFF000
01FFF000
ENDCHAR
STARTCHAR 00EF
ENCODING 239
SWIDTH 303 0
DWIDTH 27 0
BBX 27 53 0 0
BITMAP
FE000FE0
FE000FE0
FE000FE0
FE000FE0
FE000FE0
FE000FE0
FE000FE0
00000000
00000000
00000000
00000000
00000000
00000000
00000000
00000000
00000000
00000000
00000000
00000000
00000000
01FFF000
01FFF000
01FFF000
01FFF000
01FFF000
01FFF000
01FFF000
01FFF000
01FFF000
01FFF000
01FFF000
01FFF000
01FFF000
01FFF000
01FFF000
01FFF000
01FFF000
01FFF000
01FFF000
01FFF000
01FFF000
01FFF000
01FFF000
01FFF000
01FFF000
01FFF000
01FFF000
01FFF000
01FFF000
01FFF000
01FFF000
01FFF000
01FFF000
ENDCHAR
STARTCHAR 00F0
ENCODING 240
SWIDTH 528 0
DWIDTH 47 0
BBX 40 53 0 0
BITMAP
0007FFE07F
0007FFE07F
0007FFE07F
0007FFE07F
0007FFE07F
0007FFE07F
0007FFE07F
00000FFF80
00000FFF80
00000FFF80
00000FFF80
00000FFF80
00000FFF80
0007F01FFF
0007F01FFF
0007F01FFF
0007F01FFF
0007F01FFF
0007F01FFF
0007F01FFF
00000FFFFF
00000FFFFF
00000FFFFF
00000FFFFF
00000FFFFF
00000FFFFF
01FFFFFFFF
01FFF01FFF
01FFF01FFF
01FFF01FFF
01FFF01FFF
01FFF01FFF
01FFF01FFF
FFF8001FFF
FFF8001FFF
FFF8001FFF
FFF8001FFF
FFF8001FFF
FFF8001FFF
FFF8001FFF
FFF8001FFF
FFF8001FFF
FFF8001FFF
FFF8001FFF
FFF8001FFF
FFF8001FFF
01FFFFFF80
01FFFFFF80
01FFFFFF80
01FFFFFF80
01FFFFFF80
01FFFFFF80
01FFFFFF80
ENDCHAR
STARTCHAR 00F1
ENCODING 241
SWIDTH 517 0
DWIDTH 46 0
BBX 40 53 0 0
BITMAP
03FFF03F80
03FFF03F80
03FFF03F80
03FFF03F80
03FFF03F80
03FFF03F80
03FFF03F80
03F80FFF80
03F80FFF80
03F80FFF80
03F80FFF80
03F80FFF80
03F80FFF80
03F80FFF80
0000000000
0000000000
0000000000
0000000000
0000000000
0000000000
FFF80FFF80
FFF80FFF80
FFF80FFF80
FFF80FFF80
FFF80FFF80
FFF80FFF80
FFF80FFF80
FFFFF03FFF
FFFFF03FFF
FFFFF03FFF
FFFFF03FFF
FFFFF03FFF
FFFFF03FFF
FFFFF03FFF
FFF8003FFF
FFF8003FFF
FFF8003FFF
FFF8003FFF
FFF8003FFF
FFF8003FFF
FFF8003FFF
FFF8003FFF
FFF8003FFF
FFF8003FFF
FFF8003FFF
FFF8003FFF
FFF8003FFF
FFF8003FFF
FFF8003FFF
FFF8003FFF
FFF8003FFF
FFF8003FFF
FFF8003FFF
ENDCHAR
STARTCHAR 00F2
ENCODING 242
SWIDTH 528 0
DWIDTH 47 0
BBX 40 53 0 0
BITMAP
0007F00000
0007F00000
0007F00000
0007F00000
0007F00000
0007F00000
0007F00000
00000FE000
00000FE000
00000FE000
00000FE000
00000FE000
00000FE000
00000FE000
0000000000
0000000000
0000000000
0000000000
0000000000
0000000000
03FFFFFF80
03FFFFFF80
03FFFFFF80
03FFFFFF80
03FFFFFF80
03FFFFFF80
03FFFFFF80
FFF8001FFF
FFF8001FFF
FFF8001FFF
FFF8001FFF
FFF8001FFF
FFF8001FFF
FFF8001FFF
FFF8001FFF
FFF8001FFF
FFF8001FFF
FFF8001FFF
FFF8001FFF
FFF8001FFF
FFF8001FFF
FFF8001FFF
FFF8001FFF
FFF8001FFF
FFF8001FFF
FFF8001FFF
03FFFFFF80
03FFFFFF80
03FFFFFF80
03FFFFFF80
03FFFFFF80
03FFFFFF80
03FFFFFF80
ENDCHAR
STARTCHAR 00F3
ENCODING 243
SWIDTH 528 0
DWIDTH 47 0
BBX 40 53 0 0
BITMAP
00000FE000
00000FE000
00000FE000
00000FE000
00000FE000
00000FE000
00000FE000
0007F00000
0007F00000
0007F00000
0007F00000
0007F00000
0007F00000
0007F00000
0000000000
0000000000
0000000000
0000000000
0000000000
0000000000
03FFFFFF80
03FFFFFF80
03FFFFFF80
03FFFFFF80
03FFFFFF80
03FFFFFF80
03FFFFFF80
FFF8001FFF
FFF8001FFF
FFF8001FFF
FFF8001FFF
FFF8001FFF
FFF8001FFF
FFF8001FFF
FFF8001FFF
FFF8001FFF
FFF8001FFF
FFF8001FFF
FFF8001FFF
FFF8001FFF
FFF8001FFF
FFF8001FFF
FFF8001FFF
FFF8001FFF
FFF8001FFF
FFF8001FFF
03FFFFFF80
03FFFFFF80
03FFFFFF80
03FFFFFF80
03FFFFFF80
03FFFFFF80
03FFFFFF80
ENDCHAR
STARTCHAR 00F4
ENCODING 244
SWIDTH 528 0
DWIDTH 47 0
BBX 40 53 0 0
BITMAP
0003FFE000
0003FFE000
0003FFE000
0003FFE000
0003FFE000
0003FFE000
0003FFE000
03F8001F80
03F8001F80
03F8001F80
03F8001F80
03F8001F80
03F8001F80
03F8001F80
0000000000
0000000000
0000000000
0000000000
0000000000
0000000000
03FFFFFF80
03FFFFFF80
03FFFFFF80
03FFFFFF80
03FFFFFF80
03FFFFFF80
03FFFFFF80
FFF8001FFF
FFF8001FFF
FFF8001FFF
FFF8001FFF
FFF8001FFF
FFF8001FFF
FFF8001FFF
FFF8001FFF
FFF8001FFF
FFF8001FFF
FFF8001FFF
FFF8001FFF
FFF8001FFF
FFF8001FFF
FFF8001FFF
FFF8001FFF
FFF8001FFF
FFF8001FFF
FFF8001FFF
03FFFFFF80
03FFFFFF80
03FFFFFF80
03FFFFFF80
03FFFFFF80
03FFFFFF80
03FFFFFF80
ENDCHAR
STARTCHAR 00F5
ENCODING 245
SWIDTH 517 0
DWIDTH 46 0
BBX 39 53 0 0
BITMAP
03FFF03F80
03FFF03F80
03FFF03F80
03FFF03F80
03FFF03F80
03FFF03F80
03FFF03F80
03F81FFF80
03F81FFF80
03F81FFF80
03F81FFF80
03F81FFF80
03F81FFF80
03F81FFF80
0000000000
0000000000
0000000000
0000000000
0000000000
0000000000
03FFFFFF80
03FFFFFF80
03FFFFFF80
03FFFFFF80
03FFFFFF80
03FFFFFF80
03FFFFFF80
FFF8003FFE
FFF8003FFE
FFF8003FFE
FFF8003FFE
FFF8003FFE
FFF8003FFE
FFF8003FFE
FFF8003FFE
FFF8003FFE
FFF8003FFE
FFF8003FFE
FFF8003FFE
FFF8003FFE
FFF8003FFE
FFF8003FFE
FFF8003FFE
FFF8003FFE
FFF8003FFE
FFF8003FFE
03FFFFFF80
03FFFFFF80
03FFFFFF80
03FFFFFF80
03FFFFFF80
03FFFFFF80
03FFFFFF80
ENDCHAR
STARTCHAR 00F6
ENCODING 246
SWIDTH 528 0
DWIDTH 47 0
BBX 40 53 0 0
BITMAP
FFF8001FFF
FFF8001FFF
FFF8001FFF
FFF8001FFF
FFF8001FFF
FFF8001FFF
FFF8001FFF
0000000000
0000000000
0000000000
0000000000
0000000000
0000000000
0000000000
0000000000
0000000000
0000000000
0000000000
0000000000
0000000000
03FFFFFF80
03FFFFFF80
03FFFFFF80
03FFFFFF80
03FFFFFF80
03FFFFFF80
03FFFFFF80
FFF8001FFF
FFF8001FFF
FFF8001FFF
FFF8001FFF
FFF8001FFF
FFF8001FFF
FFF8001FFF
FFF8001FFF
FFF8001FFF
FFF8001FFF
FFF8001FFF
FFF8001FFF
FFF8001FFF
FFF8001FFF
FFF8001FFF
FFF8001FFF
FFF8001FFF
FFF8001FFF
FFF8001FFF
03FFFFFF80
03FFFFFF80
03FFFFFF80
03FFFFFF80
03FFFFFF80
03FFFFFF80
03FFFFFF80
ENDCHAR
STARTCHAR 00F7
ENCODING 247
SWIDTH 450 0
DWIDTH 40 0
BBX 33 33 0 13
BITMAP
0007F00000
0007F00000
0007F00000
0007F00000
0007F00000
0007F00000
0007F00000
0000000000
0000000000
0000000000
0000000000
0000000000
0000000000
FFFFFFFF80
FFFFFFFF80
FFFFFFFF80
FFFFFFFF80
FFFFFFFF80
FFFFFFFF80
FFFFFFFF80
0000000000
0000000000
0000000000
0000000000
0000000000
0000000000
0007F00000
0007F00000
0007F00000
0007F00000
0007F00000
0007F00000
0007F00000
ENDCHAR
STARTCHAR 00F8
ENCODING 248
SWIDTH 528 0
DWIDTH 47 0
BBX 40 60 0 -13
BITMAP
000000007F
000000007F
000000007F
000000007F
000000007F
000000007F
000000007F
0000001FFF
0000001FFF
0000001FFF
0000001FFF
0000001FFF
0000001FFF
0000001FFF
01FFFFFFFF
01FFFFFFFF
01FFFFFFFF
01FFFFFFFF
01FFFFFFFF
01FFFFFFFF
FFFFFFFFFF
FFFC001FFF
FFFC001FFF
FFFC001FFF
FFFC001FFF
FFFC001FFF
FFFC001FFF
FFFFFFFFFF
FFFFFFFFFF
FFFFFFFFFF
FFFFFFFFFF
FFFFFFFFFF
FFFFFFFFFF
FFFFFFFFFF
FFFC001FFF
FFFC001FFF
FFFC001FFF
FFFC001FFF
FFFC001FFF
FFFC001FFF
FFFFFFFF80
FFFFFFFF80
FFFFFFFF80
FFFFFFFF80
FFFFFFFF80
FFFFFFFF80
FFFFFFFF80
FFFC000000
FFFC000000
FFFC000000
FFFC000000
FFFC000000
FFFC000000
FFFC000000
FE00000000
FE00000000
FE00000000
FE00000000
FE00000000
FE00000000
ENDCHAR
STARTCHAR 00F9
ENCODING 249
SWIDTH 528 0
DWIDTH 47 0
BBX 40 53 0 0
BITMAP
0007F00000
0007F00000
0007F00000
0007F00000
0007F00000
0007F00000
0007F00000
00000FE000
00000FE000
00000FE000
00000FE000
00000FE000
00000FE000
00000FE000
0000000000
0000000000
0000000000
0000000000
0000000000
0000000000
FFF8001FFF
FFF8001FFF
FFF8001FFF
FFF8001FFF
FFF8001FFF
FFF8001FFF
FFF8001FFF
FFF8001FFF
FFF8001FFF
FFF8001FFF
FFF8001FFF
FFF8001FFF
FFF8001FFF
FFF8001FFF
FFF8001FFF
FFF8001FFF
FFF8001FFF
FFF8001FFF
FFF8001FFF
FFF80FFFFF
FFF80FFFFF
FFF80FFFFF
FFF80FFFFF
FFF80FFFFF
FFF80FFFFF
FFF80FFFFF
01FFF01FFF
01FFF01FFF
01FFF01FFF
01FFF01FFF
01FFF01FFF
01FFF01FFF
01FFF01FFF
ENDCHAR
STARTCHAR 00FA
ENCODING 250
SWIDTH 528 0
DWIDTH 47 0
BBX 40 53 0 0
BITMAP
00000FE000
00000FE000
00000FE000
00000FE000
00000FE000
00000FE000
00000FE000
0007F00000
0007F00000
0007F00000
0007F00000
0007F00000
0007F00000
0007F00000
0000000000
0000000000
0000000000
0000000000
0000000000
0000000000
FFF8001FFF
FFF8001FFF
FFF8001FFF
FFF8001FFF
FFF8001FFF
FFF8001FFF
FFF8001FFF
FFF8001FFF
FFF8001FFF
FFF8001FFF
FFF8001FFF
FFF8001FFF
FFF8001FFF
FFF8001FFF
FFF8001FFF
FFF8001FFF
FFF8001FFF
FFF8001FFF
FFF8001FFF
FFF80FFFFF
FFF80FFFFF
FFF80FFFFF
FFF80FFFFF
FFF80FFFFF
FFF80FFFFF
FFF80FFFFF
01FFF01FFF
01FFF01FFF
01FFF01FFF
01FFF01FFF
01FFF01FFF
01FFF01FFF
01FFF01FFF
ENDCHAR
STARTCHAR 00FB
ENCODING 251
SWIDTH 528 0
DWIDTH 47 0
BBX 40 53 0 0
BITMAP
0003FFE000
0003FFE000
0003FFE000
0003FFE000
0003FFE000
0003FFE000
0003FFE000
03F8001F80
03F8001F80
03F8001F80
03F8001F80
03F8001F80
03F8001F80
03F8001F80
0000000000
0000000000
0000000000
0000000000
0000000000
0000000000
FFF8001FFF
FFF8001FFF
FFF8001FFF
FFF8001FFF
FFF8001FFF
FFF8001FFF
FFF8001FFF
FFF8001FFF
FFF8001FFF
FFF8001FFF
FFF8001FFF
FFF8001FFF
FFF8001FFF
FFF8001FFF
FFF8001FFF
FFF8001FFF
FFF8001FFF
FFF8001FFF
FFF8001FFF
FFF81FFFFF
FFF81FFFFF
FFF81FFFFF
FFF81FFFFF
FFF81FFFFF
FFF81FFFFF
FFF81FFFFF
03FFE01FFF
03FFE01FFF
03FFE01FFF
03FFE01FFF
03FFE01FFF
03FFE01FFF
03FFE01FFF
ENDCHAR
STARTCHAR 00FC
ENCODING 252
SWIDTH 528 0
DWIDTH 47 0
BBX 40 53 0 0
BITMAP
FFF8001FFF
FFF8001FFF
FFF8001FFF
FFF8001FFF
FFF8001FFF
FFF8001FFF
FFF8001FFF
0000000000
0000000000
0000000000
0000000000
0000000000
0000000000
0000000000
0000000000
0000000000
0000000000
0000000000
0000000000
0000000000
FFF8001FFF
FFF8001FFF
FFF8001FFF
FFF8001FFF
FFF8001FFF
FFF8001FFF
FFF8001FFF
FFF8001FFF
FFF8001FFF
FFF8001FFF
FFF8001FFF
FFF8001FFF
FFF8001FFF
FFF8001FFF
FFF8001FFF
FFF8001FFF
FFF8001FFF
FFF8001FFF
FFF8001FFF
FFF80FFFFF
FFF80FFFFF
FFF80FFFFF
FFF80FFFFF
FFF80FFFFF
FFF80FFFFF
FFF80FFFFF
01FFF01FFF
01FFF01FFF
01FFF01FFF
01FFF01FFF
01FFF01FFF
01FFF01FFF
01FFF01FFF
ENDCHAR
STARTCHAR 00FD
ENCODING 253
SWIDTH 528 0
DWIDTH 47 0
BBX 40 66 0 -13
BITMAP
00000FE000
00000FE000
00000FE000
00000FE000
00000FE000
00000FE000
0007FFE000
0007F00000
0007F00000
0007F00000
0007F00000
0007F00000
0007F00000
0000000000
0000000000
0000000000
0000000000
0000000000
0000000000
0000000000
FFF8001FFF
FFF8001FFF
FFF8001FFF
FFF8001FFF
FFF8001FFF
FFF8001FFF
FFF8001FFF
FFF8001FFF
FFF8001FFF
FFF8001FFF
FFF8001FFF
FFF8001FFF
FFF8001FFF
FFF8001FFF
FFF8001FFF
FFF8001FFF
FFF8001FFF
FFF8001FFF
FFF8001FFF
FFF80FFFFF
FFF80FFFFF
FFF80FFFFF
FFF80FFFFF
FFF80FFFFF
FFF80FFFFF
FFF80FFFFF
01FFF01FFF
01FFF01FFF
01FFF01FFF
01FFF01FFF
01FFF01FFF
01FFF01FFF
01FFF01FFF
0000001FFF
0000001FFF
0000001FFF
0000001FFF
0000001FFF
0000001FFF
0007FFFFFF
0007FFFF80
0007FFFF80
0007FFFF80
0007FFFF80
0007FFFF80
0007FFFF80
ENDCHAR
STARTCHAR 00FE
ENCODING 254
SWIDTH 528 0
DWIDTH 47 0
BBX 40 66 0 -6
BITMAP
FFF8000000
FFF8000000
FFF8000000
FFF8000000
FFF8000000
FFF8000000
FFF8000000
FFF8000000
FFF8000000
FFF8000000
FFF8000000
FFF8000000
FFF8000000
FFF80FFF80
FFF80FFF80
FFF80FFF80
FFF80FFF80
FFF80FFF80
FFF80FFF80
FFF80FFF80
FFFFF01FFF
FFFFF01FFF
FFFFF01FFF
FFFFF01FFF
FFFFF01FFF
FFFFF01FFF
FFFFF01FFF
FFF8001FFF
FFF8001FFF
FFF8001FFF
FFF8001FFF
FFF8001FFF
FFF8001FFF
FFF8001FFF
FFF8001FFF
FFF8001FFF
FFF8001FFF
FFF8001FFF
FFF8001FFF
FFF8001FFF
FFFFF01FFF
FFFFF01FFF
FFFFF01FFF
FFFFF01FFF
FFFFF01FFF
FFFFF01FFF
FFF80FFF80
FFF80FFF80
FFF80FFF80
FFF80FFF80
FFF80FFF80
FFF80FFF80
FFF80FFF80
FFF8000000
FFF8000000
FFF8000000
FFF8000000
FFF8000000
FFF8000000
FFF8000000
FFF8000000
FFF8000000
FFF8000000
FFF8000000
FFF8000000
FFF8000000
ENDCHAR
STARTCHAR 00FF
ENCODING 255
SWIDTH 528 0
DWIDTH 47 0
BBX 40 66 0 -13
BITMAP
FFF8001FFF
FFF8001FFF
FFF8001FFF
FFF8001FFF
FFF8001FFF
FFF8001FFF
FFF8001FFF
0000000000
0000000000
0000000000
0000000000
0000000000
0000000000
0000000000
0000000000
0000000000
0000000000
0000000000
0000000000
0000000000
FFF8001FFF
FFF8001FFF
FFF8001FFF
FFF8001FFF
FFF8001FFF
FFF8001FFF
FFF8001FFF
FFF8001FFF
FFF8001FFF
FFF8001FFF
FFF8001FFF
FFF8001FFF
FFF8001FFF
FFF8001FFF
FFF8001FFF
FFF8001FFF
FFF8001FFF
FFF8001FFF
FFF8001FFF
FFF80FFFFF
FFF80FFFFF
FFF80FFFFF
FFF80FFFFF
FFF80FFFFF
FFF80FFFFF
FFF80FFFFF
01FFF01FFF
01FFF01FFF
01FFF01FFF
01FFF01FFF
01FFF01FFF
01FFF01FFF
01FFF01FFF
0000001FFF
0000001FFF
0000001FFF
0000001FFF
0000001FFF
0000001FFF
0007FFFFFF
0007FFFF80
0007FFFF80
0007FFFF80
0007FFFF80
0007FFFF80
0007FFFF80
ENDCHAR
STARTCHAR 0152
ENCODING 338
SWIDTH 832 0
DWIDTH 74 0
BBX 67 53 0 0
BITMAP
01FFFFFFFFFFFFF000
01FFFFFFFFFFFFF000
01FFFFFFFFFFFFF000
01FFFFFFFFFFFFF000
01FFFFFFFFFFFFF000
01FFFFFFFFFFFFF000
01FFFFFFFFFFFFF000
FFF8001FFF0003FFE0
FFF8001FFF0003FFE0
FFF8001FFF0003FFE0
FFF8001FFF0003FFE0
FFF8001FFF0003FFE0
FFF8001FFF0003FFE0
FFF8001FFF0003FFE0
FFF8001FFF00000000
FFF8001FFF00000000
FFF8001FFF00000000
FFF8001FFF00000000
FFF8001FFF00000000
FFF8001FFF00000000
FFF8001FFFFFFC0000
FFF8001FFFFFFC0000
FFF8001FFFFFFC0000
FFF8001FFFFFFC0000
FFF8001FFFFFFC0000
FFF8001FFFFFFC0000
FFF8001FFFFFFC0000
FFF8001FFF00000000
FFF8001FFF00000000
FFF8001FFF00000000
FFF8001FFF00000000
FFF8001FFF00000000
FFF8001FFF00000000
FFF8001FFF00000000
FFF8001FFF00000000
FFF8001FFF00000000
FFF8001FFF00000000
FFF8001FFF00000000
FFF8001FFF00000000
FFF8001FFF00000000
FFF8001FFF0003FFE0
FFF8001FFF0003FFE0
FFF8001FFF0003FFE0
FFF8001FFF0003FFE0
FFF8001FFF0003FFE0
FFF8001FFF0003FFE0
01FFFFFFFFFFFFF000
01FFFFFFFFFFFFF000
01FFFFFFFFFFFFF000
01FFFFFFFFFFFFF000
01FFFFFFFFFFFFF000
01FFFFFFFFFFFFF000
01FFFFFFFFFFFFF000
ENDCHAR
STARTCHAR 0153
ENCODING 339
SWIDTH 832 0
DWIDTH 74 0
BBX 67 33 0 0
BITMAP
03FFFFFFFFFFFFE000
03FFFFFFFFFFFFE000
03FFFFFFFFFFFFE000
03FFFFFFFFFFFFE000
03FFFFFFFFFFFFE000
03FFFFFFFFFFFFE000
03FFFFFFFFFFFFE000
FFF8001FFF0003FFE0
FFF8001FFF0003FFE0
FFF8001FFF0003FFE0
FFF8001FFF0003FFE0
FFF8001FFF0003FFE0
FFF8001FFF0003FFE0
FFF8001FFF03FFFFE0
FFF8001FFF03FFFFE0
FFF8001FFF03FFFFE0
FFF8001FFF03FFFFE0
FFF8001FFF03FFFFE0
FFF8001FFF03FFFFE0
FFF8001FFF03FFFFE0
FFF8001FFFFE000000
FFF8001FFFFE000000
FFF8001FFFFE000000
FFF8001FFFFE000000
FFF8001FFFFE000000
FFF8001FFFFE000000
03FFFFFFFFFFF80000
03FFFFFFFFFFF80000
03FFFFFFFFFFF80000
03FFFFFFFFFFF80000
03FFFFFFFFFFF80000
03FFFFFFFFFFF80000
03FFFFFFFFFFF80000
ENDCHAR
STARTCHAR 0160
ENCODING 352
SWIDTH 528 0
DWIDTH 47 0
BBX 40 66 0 0
BITMAP
03F8001F80
03F8001F80
03F8001F80
03F8001F80
03F8001F80
03F8001F80
03F8001F80
0007FFE000
0003FFE000
0003FFE000
0003FFE000
0003FFE000
0003FFE000
03FFFFFF80
03FFFFFF80
03FFFFFF80
03FFFFFF80
03FFFFFF80
03FFFFFF80
03FFFFFF80
FFF8001FFF
FFF8001FFF
FFF8001FFF
FFF8001FFF
FFF8001FFF
FFF8001FFF
FFF8001FFF
FFF8000000
FFF8000000
FFF8000000
FFF8000000
FFF8000000
FFF8000000
FFF80FFF80
FFF80FFF80
FFF80FFF80
FFF80FFF80
FFF80FFF80
FFF80FFF80
FFFFEFFFFF
03FFE01FFF
03FFE01FFF
03FFE01FFF
03FFE01FFF
03FFE01FFF
03FFE01FFF
0000001FFF
0000001FFF
0000001FFF
0000001FFF
0000001FFF
0000001FFF
0000001FFF
FFF8001FFF
FFF8001FFF
FFF8001FFF
FFF8001FFF
FFF8001FFF
FFF8001FFF
03FFFFFF80
03FFFFFF80
03FFFFFF80
03FFFFFF80
03FFFFFF80
03FFFFFF80
03FFFFFF80
ENDCHAR
STARTCHAR 0161
ENCODING 353
SWIDTH 528 0
DWIDTH 47 0
BBX 40 53 0 0
BITMAP
03F8001F80
03F8001F80
03F8001F80
03F8001F80
03F8001F80
03F8001F80
03F8001F80
0007FFE000
0003FFE000
0003FFE000
0003FFE000
0003FFE000
0003FFE000
0003FFE000
0000000000
0000000000
0000000000
0000000000
0000000000
0000000000
03FFFFFFFF
03FFFFFFFF
03FFFFFFFF
03FFFFFFFF
03FFFFFFFF
03FFFFFFFF
03FFFFFFFF
FFF8000000
FFF8000000
FFF8000000
FFF8000000
FFF8000000
FFF8000000
FFFFFFFFFF
FFFFFFFFFF
FFFFFFFFFF
FFFFFFFFFF
FFFFFFFFFF
FFFFFFFFFF
FFFFFFFFFF
0000001FFF
0000001FFF
0000001FFF
0000001FFF
0000001FFF
0000001FFF
FFFFFFFF80
FFFFFFFF80
FFFFFFFF80
FFFFFFFF80
FFFFFFFF80
FFFFFFFF80
FFFFFFFF80
ENDCHAR
STARTCHAR 0178
ENCODING 376
SWIDTH 528 0
DWIDTH 47 0
BBX 40 66 0 0
BITMAP
FFF8001FFF
FFF8001FFF
FFF8001FFF
FFF8001FFF
FFF8001FFF
FFF8001FFF
FFF8001FFF
0000000000
0000000000
0000000000
0000000000
0000000000
0000000000
FFF8001FFF
FFF8001FFF
FFF8001FFF
FFF8001FFF
FFF8001FFF
FFF8001FFF
FFF8001FFF
FFF8001FFF
FFF8001FFF
FFF8001FFF
FFF8001FFF
FFF8001FFF
FFF8001FFF
FFF8001FFF
FFF8001FFF
FFF8001FFF
FFF8001FFF
FFF8001FFF
FFF8001FFF
FFF8001FFF
FFF80FFFFF
FFF80FFFFF
FFF80FFFFF
FFF80FFFFF
FFF80FFFFF
FFF80FFFFF
FFFFFFFFFF
01FFF01FFF
01FFF01FFF
01FFF01FFF
01FFF01FFF
01FFF01FFF
01FFF01FFF
0000001FFF
0000001FFF
0000001FFF
0000001FFF
0000001FFF
0000001FFF
0000001FFF
0000001FFF
0000001FFF
0000001FFF
0000001FFF
0000001FFF
0000001FFF
0007FFFF80
0007FFFF80
0007FFFF80
0007FFFF80
0007FFFF80
0007FFFF80
0007FFFF80
ENDCHAR
STARTCHAR 0192
ENCODING 402
SWIDTH 607 0
DWIDTH 54 0
BBX 47 53 0 0
BITMAP
0007FFFFFF00
0007FFFFFF00
0007FFFFFF00
0007FFFFFF00
0007FFFFFF00
0007FFFFFF00
0007FFFFFF00
01FFF0003FFE
01FFF0003FFE
01FFF0003FFE
01FFF0003FFE
01FFF0003FFE
01FFF0003FFE
01FFF0003FFE
01FFF0000000
01FFF0000000
01FFF0000000
01FFF0000000
01FFF0000000
01FFF0000000
FFFFFFE00000
FFFFFFE00000
FFFFFFE00000
FFFFFFE00000
FFFFFFE00000
FFFFFFE00000
FFFFFFE00000
01FFF0000000
01FFF0000000
01FFF0000000
01FFF0000000
01FFF0000000
01FFF0000000
01FFF0000000
01FFF0000000
01FFF0000000
01FFF0000000
01FFF0000000
01FFF0000000
01FFF0000000
01FFF0000000
01FFF0000000
01FFF0000000
01FFF0000000
01FFF0000000
01FFF0000000
FFF800000000
FFF800000000
FFF800000000
FFF800000000
FFF800000000
FFF800000000
FFF800000000
ENDCHAR
STARTCHAR 02C6
ENCODING 710
SWIDTH 382 0
DWIDTH 34 0
BBX 27 13 0 53
BITMAP
01FFF000
01FFF000
01FFF000
01FFF000
01FFF000
01FFF000
FE000FE0
FE000FE0
FE000FE0
FE000FE0
FE000FE0
FE000FE0
FE000FE0
ENDCHAR
STARTCHAR 02DC
ENCODING 732
SWIDTH 382 0
DWIDTH 34 0
BBX 27 13 0 53
BITMAP
FFFC0FE0
FFFC0FE0
FFFC0FE0
FFFC0FE0
FFFC0FE0
FFFC0FE0
FE07FFE0
FE07FFE0
FE07FFE0
FE07FFE0
FE07FFE0
FE07FFE0
FE07FFE0
ENDCHAR
STARTCHAR 2013
ENCODING 8211
SWIDTH 382 0
DWIDTH 34 0
BBX 27 7 0 26
BITMAP
FFFFFFE0
FFFFFFE0
FFFFFFE0
FFFFFFE0
FFFFFFE0
FFFFFFE0
FFFFFFE0
ENDCHAR
STARTCHAR 2014
ENCODING 8212
SWIDTH 528 0
DWIDTH 47 0
BBX 40 7 0 26
BITMAP
FFFFFFFFFF
FFFFFFFFFF
FFFFFFFFFF
FFFFFFFFFF
FFFFFFFFFF
FFFFFFFFFF
FFFFFFFFFF
ENDCHAR
STARTCHAR 2018
ENCODING 8216
SWIDTH 225 0
DWIDTH 20 0
BBX 14 20 0 40
BITMAP
FE00
FE00
FE00
FE00
FE00
FE00
FE00
FFFC
FFFC
FFFC
FFFC
FFFC
FFFC
FFFC
FFFC
FFFC
FFFC
FFFC
FFFC
FFFC
ENDCHAR
STARTCHAR 2019
ENCODING 8217
SWIDTH 236 0
DWIDTH 21 0
BBX 13 19 1 34
BITMAP
FFF8
FFF8
FFF8
FFF8
FFF8
FFF8
FFF8
FFF8
FFF8
FFF8
FFF8
FFF8
FFF8
03F8
03F8
03F8
03F8
03F8
03F8
ENDCHAR
STARTCHAR 201A
ENCODING 8218
SWIDTH 236 0
DWIDTH 21 0
BBX 13 20 1 -13
BITMAP
FFF8
FFF8
FFF8
FFF8
FFF8
FFF8
FFF8
FFF8
FFF8
FFF8
FFF8
FFF8
FFF8
03F8
03F8
03F8
03F8
03F8
03F8
03F8
ENDCHAR
STARTCHAR 201C
ENCODING 8220
SWIDTH 450 0
DWIDTH 40 0
BBX 34 20 0 40
BITMAP
FE000FE000
FE000FE000
FE000FE000
FE000FE000
FE000FE000
FE000FE000
FE000FE000
FFF80FFFC0
FFF80FFFC0
FFF80FFFC0
FFF80FFFC0
FFF80FFFC0
FFF80FFFC0
FFF80FFFC0
FFF80FFFC0
FFF80FFFC0
FFF80FFFC0
FFF80FFFC0
FFF80FFFC0
FFF80FFFC0
ENDCHAR
STARTCHAR 201D
ENCODING 8221
SWIDTH 472 0
DWIDTH 42 0
BBX 34 19 1 34
BITMAP
FFF80FFFC0
FFF80FFFC0
FFF80FFFC0
FFF80FFFC0
FFF80FFFC0
FFF80FFFC0
FFF80FFFC0
FFF80FFFC0
FFF80FFFC0
FFF80FFFC0
FFF80FFFC0
FFF80FFFC0
FFF80FFFC0
03F8001FC0
03F8001FC0
03F8001FC0
03F8001FC0
03F8001FC0
03F8001FC0
ENDCHAR
STARTCHAR 201E
ENCODING 8222
SWIDTH 472 0
DWIDTH 42 0
BBX 34 20 1 -13
BITMAP
FFF80FFFC0
FFF80FFFC0
FFF80FFFC0
FFF80FFFC0
FFF80FFFC0
FFF80FFFC0
FFF80FFFC0
FFF80FFFC0
FFF80FFFC0
FFF80FFFC0
FFF80FFFC0
FFF80FFFC0
FFF80FFFC0
03F8001FC0
03F8001FC0
03F8001FC0
03F8001FC0
03F8001FC0
03F8001FC0
03F8001FC0
ENDCHAR
STARTCHAR 2020
ENCODING 8224
SWIDTH 528 0
DWIDTH 47 0
BBX 40 53 0 0
BITMAP
0003FFE000
0003FFE000
0003FFE000
0003FFE000
0003FFE000
0003FFE000
0003FFE000
0003FFE000
0003FFE000
0003FFE000
0003FFE000
0003FFE000
0003FFE000
FFFFFFFFFF
FFFFFFFFFF
FFFFFFFFFF
FFFFFFFFFF
FFFFFFFFFF
FFFFFFFFFF
FFFFFFFFFF
0003FFE000
0003FFE000
0003FFE000
0003FFE000
0003FFE000
0003FFE000
0003FFE000
0003FFE000
0003FFE000
0003FFE000
0003FFE000
0003FFE000
0003FFE000
0003FFE000
0003FFE000
0003FFE000
0003FFE000
0003FFE000
0003FFE000
0003FFE000
0003FFE000
0003FFE000
0003FFE000
0003FFE000
0003FFE000
0003FFE000
0003FFE000
0003FFE000
0003FFE000
0003FFE000
0003FFE000
0003FFE000
0003FFE000
ENDCHAR
STARTCHAR 2021
ENCODING 8225
SWIDTH 528 0
DWIDTH 47 0
BBX 40 53 0 0
BITMAP
0003FFE000
0003FFE000
0003FFE000
0003FFE000
0003FFE000
0003FFE000
0003FFE000
0003FFE000
0003FFE000
0003FFE000
0003FFE000
0003FFE000
0003FFE000
FFFFFFFFFF
FFFFFFFFFF
FFFFFFFFFF
FFFFFFFFFF
FFFFFFFFFF
FFFFFFFFFF
FFFFFFFFFF
0003FFE000
0003FFE000
0003FFE000
0003FFE000
0003FFE000
0003FFE000
0003FFE000
0003FFE000
0003FFE000
0003FFE000
0003FFE000
0003FFE000
0003FFE000
FFFFFFFFFF
FFFFFFFFFF
FFFFFFFFFF
FFFFFFFFFF
FFFFFFFFFF
FFFFFFFFFF
FFFFFFFFFF
0003FFE000
0003FFE000
0003FFE000
0003FFE000
0003FFE000
0003FFE000
0003FFE000
0003FFE000
0003FFE000
0003FFE000
0003FFE000
0003FFE000
0003FFE000
ENDCHAR
STARTCHAR 2022
ENCODING 8226
SWIDTH 450 0
DWIDTH 40 0
BBX 33 33 0 13
BITMAP
0007F00000
0007F00000
0007F00000
0007F00000
0007F00000
0007F00000
03FFFFC000
03FFFFC000
03FFFFC000
03FFFFC000
03FFFFC000
03FFFFC000
03FFFFC000
FFFFFFFF80
FFFFFFFF80
FFFFFFFF80
FFFFFFFF80
FFFFFFFF80
FFFFFFFF80
FFFFFFFF80
03FFFFC000
03FFFFC000
03FFFFC000
03FFFFC000
03FFFFC000
03FFFFC000
0007F00000
0007F00000
0007F00000
0007F00000
0007F00000
0007F00000
0007F00000
ENDCHAR
STARTCHAR 2026
ENCODING 8230
SWIDTH 675 0
DWIDTH 60 0
BBX 53 7 0 0
BITMAP
FFF80FFF80FFF8
FFF80FFF80FFF8
FFF80FFF80FFF8
FFF80FFF80FFF8
FFF80FFF80FFF8
FFF80FFF80FFF8
FFF80FFF80FFF8
ENDCHAR
STARTCHAR 2030
ENCODING 8240
SWIDTH 832 0
DWIDTH 74 0
BBX 67 53 0 0
BITMAP
FFFFF0007FFE000000
FFFFF0007FFE000000
FFFFF0007FFE000000
FFFFF0007FFE000000
FFFFF0007FFE000000
FFFFF0007FFE000000
FFFFF0007FFE000000
FE07F01FFF00000000
FE07F01FFF00000000
FE07F01FFF00000000
FE07F01FFF00000000
FE07F01FFF00000000
FE07F01FFF00000000
FFFFF01FFF00000000
FFFFF01FFF00000000
FFFFF01FFF00000000
FFFFF01FFF00000000
FFFFF01FFF00000000
FFFFF01FFF00000000
FFFFF01FFF00000000
00000FFF8000000000
00000FFF8000000000
00000FFF8000000000
00000FFF8000000000
00000FFF8000000000
00000FFF8000000000
00000FFF8000000000
00000FFF8000000000
00000FFF8000000000
00000FFF8000000000
00000FFF8000000000
00000FFF8000000000
00000FFF8000000000
0007FFC07FFFFFFFE0
0007FFC07FFFFFFFE0
0007FFC07FFFFFFFE0
0007FFC07FFFFFFFE0
0007FFC07FFFFFFFE0
0007FFC07FFFFFFFE0
0007FFC07FFFFFFFE0
0007FFC07F01F80FE0
0007FFC07F01F80FE0
0007FFC07F01F80FE0
0007FFC07F01F80FE0
0007FFC07F01F80FE0
0007FFC07F01F80FE0
01FFF0007FFFFFFFE0
01FFF0007FFFFFFFE0
01FFF0007FFFFFFFE0
01FFF0007FFFFFFFE0
01FFF0007FFFFFFFE0
01FFF0007FFFFFFFE0
01FFF0007FFFFFFFE0
ENDCHAR
STARTCHAR 2039
ENCODING 8249
SWIDTH 303 0
DWIDTH 27 0
BBX 20 20 0 20
BITMAP
01FFF0
01FFF0
01FFF0
01FFF0
01FFF0
01FFF0
01FFF0
FFF800
FFF800
FFF800
FFF800
FFF800
FFF800
FFFFF0
01FFF0
01FFF0
01FFF0
01FFF0
01FFF0
01FFF0
ENDCHAR
STARTCHAR 203A
ENCODING 8250
SWIDTH 303 0
DWIDTH 27 0
BBX 20 20 0 20
BITMAP
FFF800
FFF800
FFF800
FFF800
FFF800
FFF800
FFF800
01FFF0
01FFF0
01FFF0
01FFF0
01FFF0
01FFF0
FFFFF0
FFF800
FFF800
FFF800
FFF800
FFF800
FFF800
ENDCHAR
STARTCHAR 2122
ENCODING 8482
SWIDTH 450 0
DWIDTH 40 0
BBX 33 54 0 0
BITMAP
FFFFFFFF80
FFFFFFFF80
FFFFFFFF80
FFFFFFFF80
FFFFFFFF80
FFFFFFFF80
FFFFFFFF80
0007F00000
0007F00000
0007F00000
0007F00000
0007F00000
0007F00000
0007F00000
0007F00000
0007F00000
0007F00000
0007F00000
0007F00000
0007F00000
0007F00000
0007F00000
0007F00000
0007F00000
0007F00000
0007F00000
0007F00000
FE00001F80
FE00001F80
FE00001F80
FE00001F80
FE00001F80
FE00001F80
FE00001F80
FFF80FFF80
FFF80FFF80
FFF80FFF80
FFF80FFF80
FFF80FFF80
FFF80FFF80
FFF80FFF80
FE07F01F80
FE07F01F80
FE07F01F80
FE07F01F80
FE07F01F80
FE07F01F80
FE00001F80
FE00001F80
FE00001F80
FE00001F80
FE00001F80
FE00001F80
FE00001F80
ENDCHAR
STARTCHAR 2219
ENCODING 8729
SWIDTH 303 0
DWIDTH 27 0
BBX 20 20 0 20
BITMAP
FFFFF0
FFFFF0
FFFFF0
FFFFF0
FFFFF0
FFFFF0
FFFFF0
FFFFF0
FFFFF0
FFFFF0
FFFFF0
FFFFF0
FFFFF0
FFFFF0
FFFFF0
FFFFF0
FFFFF0
FFFFF0
FFFFF0
FFFFF0
ENDCHAR
STARTCHAR E000
ENCODING 57344
SWIDTH 0 0
DWIDTH 0 0
BBX 0 0 0 0
BITMAP
ENDCHAR
STARTCHAR E001
ENCODING 57345
SWIDTH 495 0
DWIDTH 44 0
BBX 0 0 0 0
BITMAP
ENDCHAR
ENDFONT
